{"glyphs":{"0":{"ha":219,"x_min":0,"x_max":203,"o":"m 47 956 q 26 947 35 956 q 17 925 17 938 l 17 46 q 26 25 17 33 q 47 17 35 17 l 157 17 q 178 25 169 17 q 186 46 186 33 l 186 925 q 178 947 186 938 q 157 956 169 956 l 47 956 m 76 894 l 126 894 l 126 75 l 76 75 l 76 894 m 157 972 q 190 958 176 972 q 203 925 203 944 l 203 46 q 190 13 203 26 q 157 0 176 0 l 47 0 q 14 13 28 0 q 0 46 0 26 l 0 925 q 14 958 0 944 q 47 972 28 972 l 157 972 m 110 92 l 110 878 l 93 878 l 93 92 l 110 92 z "},"1":{"ha":165,"x_min":0,"x_max":149,"o":"m 17 956 l 17 896 l 72 896 l 72 17 l 132 17 l 132 956 l 17 956 m 149 0 l 56 0 l 56 879 l 0 879 l 0 972 l 149 972 l 149 0 z "},"2":{"ha":219,"x_min":0,"x_max":203,"o":"m 47 956 q 26 947 35 956 q 17 925 17 938 l 17 565 l 76 565 l 76 894 l 126 894 l 126 515 l 47 515 q 26 506 35 515 q 17 486 17 497 l 17 17 l 186 17 l 186 406 l 126 406 l 126 75 l 76 75 l 76 456 l 157 456 q 178 465 169 456 q 186 486 186 474 l 186 925 q 178 947 186 938 q 157 956 169 956 l 47 956 m 157 972 q 190 958 176 972 q 203 925 203 944 l 203 486 q 190 453 203 467 q 157 439 176 439 l 93 439 l 93 92 l 110 92 l 110 422 l 203 422 l 203 0 l 0 0 l 0 486 q 14 519 0 506 q 47 532 28 532 l 110 532 l 110 878 l 93 878 l 93 549 l 0 549 l 0 925 q 14 958 0 944 q 47 972 28 972 l 157 972 z "},"3":{"ha":219,"x_min":0,"x_max":203,"o":"m 47 956 q 26 947 35 956 q 17 925 17 938 l 17 567 l 76 567 l 76 896 l 126 896 l 126 517 l 17 517 l 17 456 l 126 456 l 126 76 l 76 76 l 76 406 l 17 406 l 17 47 q 26 26 17 35 q 47 17 35 17 l 157 17 q 178 26 169 17 q 186 47 186 35 l 186 925 q 178 947 186 938 q 157 956 169 956 l 47 956 m 157 972 q 190 958 176 972 q 203 925 203 944 l 203 47 q 190 14 203 28 q 157 0 176 0 l 47 0 q 14 14 28 0 q 0 47 0 28 l 0 422 l 93 422 l 93 93 l 110 93 l 110 439 l 0 439 l 0 533 l 110 533 l 110 879 l 93 879 l 93 550 l 0 550 l 0 925 q 14 958 0 944 q 47 972 28 972 l 157 972 z "},"4":{"ha":219,"x_min":0,"x_max":203,"o":"m 126 956 l 126 515 l 76 515 l 76 956 l 17 956 l 17 456 l 126 456 l 126 17 l 186 17 l 186 956 l 126 956 m 203 0 l 110 0 l 110 439 l 0 439 l 0 972 l 93 972 l 93 532 l 110 532 l 110 972 l 203 972 l 203 0 z "},"5":{"ha":219,"x_min":0,"x_max":203,"o":"m 157 17 q 178 26 169 17 q 186 47 186 35 l 186 486 q 178 508 186 499 q 157 517 169 517 l 76 517 l 76 897 l 126 897 l 126 567 l 186 567 l 186 956 l 17 956 l 17 486 q 26 466 17 475 q 47 457 35 457 l 126 457 l 126 78 l 76 78 l 76 407 l 17 407 l 17 47 q 26 26 17 35 q 47 17 35 17 l 157 17 m 47 0 q 14 14 28 0 q 0 47 0 28 l 0 424 l 93 424 l 93 94 l 110 94 l 110 440 l 47 440 q 14 453 28 440 q 0 486 0 467 l 0 972 l 203 972 l 203 550 l 110 550 l 110 881 l 93 881 l 93 533 l 157 533 q 190 519 176 533 q 203 486 203 506 l 203 47 q 190 14 203 28 q 157 0 176 0 l 47 0 z "},"6":{"ha":219,"x_min":0,"x_max":203,"o":"m 47 956 q 26 947 35 956 q 17 925 17 938 l 17 47 q 26 26 17 35 q 47 17 35 17 l 157 17 q 178 26 169 17 q 186 47 186 35 l 186 486 q 178 508 186 499 q 157 517 169 517 l 76 517 l 76 896 l 126 896 l 126 879 l 126 567 l 186 567 l 186 925 q 178 947 186 938 q 157 956 169 956 l 47 956 m 76 456 l 126 456 l 126 76 l 76 76 l 76 456 m 157 972 q 190 958 176 972 q 203 925 203 944 l 203 550 l 110 550 l 110 879 l 93 879 l 93 533 l 157 533 q 190 519 176 533 q 203 486 203 506 l 203 47 q 190 14 203 28 q 157 0 176 0 l 47 0 q 14 14 28 0 q 0 47 0 28 l 0 925 q 14 958 0 944 q 47 972 28 972 l 157 972 m 110 93 l 110 439 l 93 439 l 93 93 l 110 93 z "},"7":{"ha":219,"x_min":0,"x_max":203,"o":"m 17 956 l 17 567 l 76 567 l 76 896 l 126 896 l 126 517 l 17 517 l 17 456 l 126 456 l 126 17 l 186 17 l 186 956 l 17 956 m 203 0 l 110 0 l 110 439 l 0 439 l 0 533 l 110 533 l 110 879 l 93 879 l 93 550 l 0 550 l 0 972 l 203 972 l 203 0 z "},"8":{"ha":219,"x_min":0,"x_max":203,"o":"m 47 956 q 26 947 35 956 q 17 925 17 938 l 17 542 q 25 519 17 528 l 60 486 l 25 453 q 17 431 17 444 l 17 47 q 26 26 17 35 q 47 17 35 17 l 157 17 q 178 26 169 17 q 186 47 186 35 l 186 431 q 178 453 186 444 l 143 486 l 178 519 q 186 542 186 528 l 186 925 q 178 947 186 938 q 157 956 169 956 l 47 956 m 76 553 l 76 896 l 126 896 l 126 553 l 101 528 l 76 553 m 76 419 l 101 444 l 126 419 l 126 76 l 76 76 l 76 419 m 157 972 q 190 958 176 972 q 203 925 203 944 l 203 542 q 189 508 203 521 l 165 486 l 189 464 q 203 431 203 451 l 203 47 q 190 14 203 28 q 157 0 176 0 l 47 0 q 14 14 28 0 q 0 47 0 28 l 0 431 q 14 464 0 450 l 39 486 l 14 508 q 0 542 0 522 l 0 925 q 14 958 0 944 q 47 972 28 972 l 157 972 m 110 560 l 110 879 l 93 879 l 93 560 l 101 551 l 110 560 m 110 93 l 110 413 l 101 421 l 93 413 l 93 93 l 110 93 z "},"9":{"ha":219,"x_min":0,"x_max":203,"o":"m 156 17 q 177 26 168 17 q 186 47 186 35 l 186 925 q 177 947 186 938 q 156 956 168 956 l 46 956 q 25 947 33 956 q 17 925 17 938 l 17 486 q 25 465 17 474 q 46 456 33 456 l 126 456 l 126 76 l 76 76 l 76 93 l 76 406 l 17 406 l 17 47 q 25 26 17 35 q 46 17 33 17 l 156 17 m 126 517 l 76 517 l 76 896 l 126 896 l 126 517 m 46 0 q 13 14 26 0 q 0 47 0 28 l 0 422 l 93 422 l 93 93 l 110 93 l 110 439 l 46 439 q 13 453 26 439 q 0 486 0 467 l 0 925 q 13 958 0 944 q 46 972 26 972 l 156 972 q 189 958 175 972 q 203 925 203 944 l 203 47 q 189 14 203 28 q 156 0 175 0 l 46 0 m 93 879 l 93 533 l 110 533 l 110 879 l 93 879 z "},"D":{"ha":329,"x_min":0,"x_max":313,"o":"m 17 956 l 17 511 l 76 511 l 76 896 l 126 896 l 126 76 l 76 76 l 76 461 l 17 461 l 17 17 l 267 17 q 288 26 279 17 q 296 47 296 35 l 296 925 q 288 947 296 938 q 267 956 279 956 l 17 956 m 186 896 l 236 896 l 236 76 l 186 76 l 186 896 m 267 972 q 299 958 286 972 q 313 925 313 944 l 313 47 q 299 14 313 28 q 267 0 286 0 l 0 0 l 0 478 l 93 478 l 93 93 l 110 93 l 110 879 l 93 879 l 93 494 l 0 494 l 0 972 l 267 972 m 219 93 l 219 879 l 203 879 l 203 93 l 219 93 z "},"E":{"ha":219,"x_min":0,"x_max":203,"o":"m 17 956 l 17 17 l 186 17 l 186 406 l 126 406 l 126 76 l 76 76 l 76 456 l 186 456 l 186 517 l 76 517 l 76 896 l 126 896 l 126 567 l 186 567 l 186 956 l 17 956 m 203 550 l 110 550 l 110 879 l 93 879 l 93 533 l 203 533 l 203 439 l 93 439 l 93 93 l 110 93 l 110 422 l 203 422 l 203 0 l 0 0 l 0 972 l 203 972 l 203 550 z "},"F":{"ha":219,"x_min":0,"x_max":203,"o":"m 17 956 l 17 17 l 76 17 l 76 456 l 186 456 l 186 517 l 76 517 l 76 896 l 126 896 l 126 567 l 186 567 l 186 956 l 17 956 m 203 550 l 110 550 l 110 879 l 93 879 l 93 533 l 203 533 l 203 439 l 93 439 l 93 0 l 0 0 l 0 972 l 203 972 l 203 550 z "},"G":{"ha":275,"x_min":0,"x_max":258,"o":"m 47 956 q 25 947 33 956 q 17 925 17 938 l 17 47 q 25 26 17 35 q 47 17 33 17 l 186 17 l 186 401 l 242 401 l 242 461 l 126 461 l 126 76 l 76 76 l 76 896 l 126 896 l 126 511 l 186 511 l 186 925 q 177 947 186 938 q 156 956 168 956 l 47 956 m 156 972 q 189 958 175 972 q 203 925 203 944 l 203 494 l 110 494 l 110 879 l 93 879 l 93 93 l 110 93 l 110 478 l 258 478 l 258 385 l 203 385 l 203 0 l 47 0 q 14 14 28 0 q 0 47 0 28 l 0 925 q 14 958 0 944 q 47 972 28 972 l 156 972 z "},"H":{"ha":219,"x_min":0,"x_max":203,"o":"m 126 956 l 126 517 l 76 517 l 76 956 l 17 956 l 17 17 l 76 17 l 76 456 l 126 456 l 126 17 l 186 17 l 186 956 l 126 956 m 203 0 l 110 0 l 110 439 l 93 439 l 93 0 l 0 0 l 0 972 l 93 972 l 93 533 l 110 533 l 110 972 l 203 972 l 203 0 z "},"I":{"ha":329,"x_min":0,"x_max":313,"o":"m 17 956 l 17 511 l 76 511 l 76 896 l 126 896 l 126 76 l 76 76 l 76 461 l 17 461 l 17 17 l 296 17 l 296 461 l 236 461 l 236 76 l 186 76 l 186 896 l 236 896 l 236 511 l 296 511 l 296 956 l 17 956 m 313 494 l 219 494 l 219 879 l 203 879 l 203 93 l 219 93 l 219 478 l 313 478 l 313 0 l 0 0 l 0 478 l 93 478 l 93 93 l 110 93 l 110 879 l 93 879 l 93 494 l 0 494 l 0 972 l 313 972 l 313 494 z "},"J":{"ha":219,"x_min":0,"x_max":203,"o":"m 17 956 l 17 786 l 76 786 l 76 896 l 126 896 l 126 76 l 76 76 l 76 461 l 17 461 l 17 47 q 26 26 17 35 q 47 17 35 17 l 157 17 q 178 26 169 17 q 186 47 186 35 l 186 956 l 17 956 m 203 47 q 190 14 203 28 q 157 0 176 0 l 47 0 q 14 14 28 0 q 0 47 0 28 l 0 478 l 93 478 l 93 93 l 110 93 l 110 879 l 93 879 l 93 769 l 0 769 l 0 972 l 203 972 l 203 47 z "},"K":{"ha":219,"x_min":0,"x_max":203,"o":"m 126 956 l 126 571 l 76 571 l 76 956 l 17 956 l 17 17 l 76 17 l 76 401 l 126 401 l 126 17 l 186 17 l 186 431 q 177 452 186 443 q 156 461 168 461 l 76 461 l 76 511 l 156 511 q 177 520 168 511 q 186 542 186 529 l 186 956 l 126 956 m 203 542 q 189 508 203 522 q 156 494 175 494 l 93 494 l 93 478 l 156 478 q 189 464 175 478 q 203 431 203 450 l 203 0 l 110 0 l 110 385 l 93 385 l 93 0 l 0 0 l 0 972 l 93 972 l 93 588 l 110 588 l 110 972 l 203 972 l 203 542 z "},"L":{"ha":219,"x_min":0,"x_max":203,"o":"m 17 956 l 17 17 l 186 17 l 186 461 l 126 461 l 126 76 l 76 76 l 76 956 l 17 956 m 93 93 l 110 93 l 110 478 l 203 478 l 203 0 l 0 0 l 0 972 l 93 972 l 93 93 z "},"M":{"ha":440,"x_min":0,"x_max":422,"o":"m 376 972 q 409 958 396 972 q 422 925 422 944 l 422 0 l 329 0 l 329 879 l 313 879 l 313 46 q 299 13 313 26 q 267 0 286 0 l 157 0 q 124 13 138 0 q 110 46 110 26 l 110 879 l 93 879 l 93 0 l 0 0 l 0 925 q 13 958 0 944 q 46 972 26 972 l 157 972 q 190 958 176 972 q 203 925 203 944 l 203 93 l 219 93 l 219 925 q 233 958 219 944 q 267 972 247 972 l 376 972 m 406 925 q 397 947 406 938 q 376 956 389 956 l 267 956 q 245 947 254 956 q 236 925 236 938 l 236 76 l 186 76 l 186 925 q 177 947 186 938 q 157 956 168 956 l 46 956 q 26 947 35 956 q 17 925 17 938 l 17 17 l 76 17 l 76 896 l 126 896 l 126 46 q 135 26 126 35 q 157 17 144 17 l 267 17 q 288 26 279 17 q 296 46 296 35 l 296 896 l 346 896 l 346 17 l 406 17 l 406 925 z "},"N":{"ha":329,"x_min":0,"x_max":313,"o":"m 236 956 l 236 93 l 236 76 l 186 76 l 186 925 q 178 947 186 938 q 157 956 169 956 l 17 956 l 17 17 l 78 17 l 78 896 l 128 896 l 128 47 q 136 26 128 35 q 157 17 144 17 l 296 17 l 296 956 l 236 956 m 313 0 l 157 0 q 124 14 138 0 q 111 47 111 28 l 111 879 l 94 879 l 94 0 l 0 0 l 0 972 l 157 972 q 190 958 176 972 q 203 925 203 944 l 203 93 l 219 93 l 219 972 l 313 972 l 313 0 z "},"O":{"ha":219,"x_min":0,"x_max":203,"o":"m 47 956 q 26 947 35 956 q 17 925 17 938 l 17 46 q 26 25 17 33 q 47 17 35 17 l 157 17 q 178 25 169 17 q 186 46 186 33 l 186 925 q 178 947 186 938 q 157 956 169 956 l 47 956 m 76 894 l 126 894 l 126 75 l 76 75 l 76 894 m 157 972 q 190 958 176 972 q 203 925 203 944 l 203 46 q 190 13 203 26 q 157 0 176 0 l 47 0 q 14 13 28 0 q 0 46 0 26 l 0 925 q 14 958 0 944 q 47 972 28 972 l 157 972 m 110 92 l 110 878 l 93 878 l 93 92 l 110 92 z "},"P":{"ha":219,"x_min":0,"x_max":203,"o":"m 93 0 l 0 0 l 0 972 l 157 972 q 190 958 176 972 q 203 925 203 944 l 203 486 q 190 453 203 467 q 157 439 176 439 l 93 439 l 93 0 m 76 456 l 157 456 q 178 465 169 456 q 186 486 186 474 l 186 925 q 178 947 186 938 q 157 956 169 956 l 17 956 l 17 17 l 76 17 l 76 456 m 76 517 l 76 896 l 126 896 l 126 517 l 76 517 m 93 533 l 110 533 l 110 879 l 93 879 l 93 533 z "},"Q":{"ha":275,"x_min":0,"x_max":258,"o":"m 76 76 l 76 896 l 126 896 l 126 76 l 76 76 m 93 93 l 110 93 l 110 879 l 93 879 l 93 93 m 0 925 q 14 958 0 944 q 47 972 28 972 l 157 972 q 190 958 176 972 q 203 925 203 944 l 203 93 l 258 93 l 258 0 l 47 0 q 14 14 28 0 q 0 47 0 28 l 0 925 m 186 925 q 178 947 186 938 q 157 956 169 956 l 47 956 q 26 947 35 956 q 17 925 17 938 l 17 47 q 26 26 17 35 q 47 17 35 17 l 242 17 l 242 76 l 186 76 l 186 925 z "},"R":{"ha":219,"x_min":0,"x_max":203,"o":"m 126 896 l 126 571 l 76 571 l 76 896 l 126 896 m 110 879 l 93 879 l 93 588 l 110 588 l 110 879 m 157 972 q 190 958 176 972 q 203 925 203 944 l 203 542 q 190 508 203 522 q 157 494 176 494 l 93 494 l 93 478 l 157 478 q 190 464 176 478 q 203 431 203 450 l 203 0 l 110 0 l 110 385 l 93 385 l 93 0 l 0 0 l 0 972 l 157 972 m 186 925 q 178 947 186 938 q 157 956 169 956 l 17 956 l 17 17 l 76 17 l 76 401 l 126 401 l 126 17 l 186 17 l 186 431 q 178 452 186 443 q 157 461 169 461 l 93 461 l 76 461 l 76 511 l 157 511 q 178 520 169 511 q 186 542 186 529 l 186 925 z "},"S":{"ha":219,"x_min":0,"x_max":203,"o":"m 47 0 q 14 14 28 0 q 0 47 0 28 l 0 422 l 93 422 l 93 93 l 110 93 l 110 439 l 47 439 q 14 453 28 439 q 0 486 0 467 l 0 925 q 14 958 0 944 q 47 972 28 972 l 157 972 q 190 958 176 972 q 203 925 203 944 l 203 550 l 110 550 l 110 879 l 93 879 l 93 533 l 157 533 q 190 519 176 533 q 203 486 203 506 l 203 47 q 190 14 203 28 q 157 0 176 0 l 47 0 m 17 47 q 26 26 17 35 q 47 17 35 17 l 157 17 q 178 26 169 17 q 186 47 186 35 l 186 486 q 178 508 186 499 q 157 517 169 517 l 76 517 l 76 896 l 126 896 l 126 567 l 186 567 l 186 925 q 178 947 186 938 q 157 956 169 956 l 47 956 q 26 947 35 956 q 17 925 17 938 l 17 486 q 26 465 17 474 q 47 456 35 456 l 126 456 l 126 76 l 76 76 l 76 406 l 17 406 l 17 47 z "},"T":{"ha":329,"x_min":0,"x_max":313,"o":"m 93 494 l 0 494 l 0 972 l 313 972 l 313 494 l 219 494 l 219 879 l 203 879 l 203 0 l 110 0 l 110 879 l 93 879 l 93 494 m 76 896 l 126 896 l 126 17 l 186 17 l 186 896 l 236 896 l 236 511 l 296 511 l 296 956 l 17 956 l 17 511 l 76 511 l 76 896 z "},"U":{"ha":219,"x_min":0,"x_max":203,"o":"m 93 93 l 110 93 l 110 972 l 203 972 l 203 47 q 190 14 203 28 q 157 0 176 0 l 47 0 q 14 14 28 0 q 0 47 0 28 l 0 972 l 93 972 l 93 93 m 76 76 l 76 956 l 17 956 l 17 47 q 26 26 17 35 q 47 17 35 17 l 157 17 q 178 26 169 17 q 186 47 186 35 l 186 956 l 126 956 l 126 76 l 76 76 z "},"V":{"ha":219,"x_min":0,"x_max":203,"o":"m 93 972 l 93 168 l 110 119 l 110 972 l 203 972 l 203 0 l 72 0 l 0 146 l 0 972 l 93 972 m 76 164 l 76 956 l 17 956 l 17 149 l 83 17 l 186 17 l 186 956 l 126 956 l 126 42 l 76 164 z "},"W":{"ha":439,"x_min":0,"x_max":422,"o":"m 329 972 l 422 972 l 422 0 l 267 0 q 233 13 247 0 q 219 46 219 26 l 219 879 l 203 879 l 203 46 q 190 13 203 26 q 157 0 176 0 l 0 0 l 0 972 l 93 972 l 93 93 l 110 93 l 110 925 q 124 958 110 944 q 157 972 138 972 l 267 972 q 299 958 286 972 q 313 925 313 944 l 313 93 l 329 93 l 329 972 m 296 76 l 296 925 q 288 947 296 938 q 267 956 279 956 l 157 956 q 135 947 144 956 q 126 925 126 938 l 126 76 l 76 76 l 76 956 l 17 956 l 17 17 l 157 17 q 177 26 168 17 q 186 46 186 35 l 186 896 l 236 896 l 236 46 q 245 26 236 35 q 267 17 254 17 l 406 17 l 406 956 l 346 956 l 346 76 l 296 76 z "},"X":{"ha":219,"x_min":0,"x_max":203,"o":"m 93 0 l 0 0 l 0 431 q 14 464 0 450 q 47 478 28 478 l 56 478 l 56 494 l 47 494 q 14 508 28 494 q 0 540 0 521 l 0 972 l 93 972 l 93 586 l 110 586 l 110 972 l 203 972 l 203 540 q 190 508 203 521 q 157 494 176 494 l 147 494 l 147 478 l 157 478 q 190 464 176 478 q 203 431 203 450 l 203 0 l 110 0 l 110 383 l 93 383 l 93 0 m 76 400 l 126 400 l 126 17 l 186 17 l 186 431 q 178 452 186 443 q 157 461 169 461 l 131 461 l 131 511 l 157 511 q 178 519 169 511 q 186 540 186 528 l 186 956 l 126 956 l 126 571 l 76 571 l 76 956 l 17 956 l 17 540 q 26 519 17 528 q 47 511 35 511 l 72 511 l 72 461 l 47 461 q 26 452 35 461 q 17 431 17 443 l 17 17 l 76 17 l 76 400 z "},"Y":{"ha":219,"x_min":0,"x_max":203,"o":"m 47 440 q 14 453 28 440 q 0 486 0 467 l 0 972 l 93 972 l 93 533 l 110 533 l 110 972 l 203 972 l 203 486 q 190 453 203 467 q 157 440 176 440 l 147 440 l 147 0 l 56 0 l 56 440 l 47 440 m 17 486 q 26 466 17 475 q 47 457 35 457 l 72 457 l 72 17 l 131 17 l 131 457 l 157 457 q 178 466 169 457 q 186 486 186 475 l 186 956 l 126 956 l 126 517 l 76 517 l 76 956 l 17 956 l 17 486 z "},"Z":{"ha":219,"x_min":0,"x_max":203,"o":"m 110 560 l 110 879 l 93 879 l 93 604 l 0 604 l 0 972 l 203 972 l 203 542 q 189 508 203 521 l 93 413 l 93 93 l 110 93 l 110 368 l 203 368 l 203 0 l 0 0 l 0 431 q 14 464 0 450 l 110 560 m 126 896 l 126 553 l 25 453 q 17 431 17 444 l 17 17 l 186 17 l 186 351 l 126 351 l 126 76 l 76 76 l 76 419 l 178 519 q 186 542 186 528 l 186 956 l 17 956 l 17 621 l 76 621 l 76 896 l 126 896 z "},"A":{"ha":219,"x_min":0,"x_max":203,"o":"m 46 956 q 25 947 33 956 q 17 925 17 938 l 17 17 l 76 17 l 76 456 l 126 456 l 126 17 l 186 17 l 186 925 q 177 947 186 938 q 156 956 168 956 l 46 956 m 76 896 l 126 896 l 126 517 l 76 517 l 76 896 m 156 972 q 189 958 175 972 q 203 925 203 944 l 203 0 l 110 0 l 110 439 l 93 439 l 93 0 l 0 0 l 0 925 q 13 958 0 944 q 46 972 26 972 l 156 972 m 110 533 l 110 879 l 93 879 l 93 533 l 110 533 z "},"a":{"ha":219,"x_min":0,"x_max":203,"o":"m 126 347 l 126 78 l 76 78 l 76 347 l 126 347 m 110 331 l 93 331 l 93 94 l 110 94 l 110 331 m 0 707 q 14 740 0 726 q 47 753 28 753 l 157 753 q 190 740 176 753 q 203 707 203 726 l 203 0 l 47 0 q 14 14 28 0 q 0 47 0 28 l 0 376 q 14 410 0 396 q 47 424 28 424 l 110 424 l 110 660 l 93 660 l 93 440 l 0 440 l 0 707 m 17 457 l 76 457 l 76 676 l 126 676 l 126 407 l 47 407 q 26 398 35 407 q 17 376 17 389 l 17 47 q 26 26 17 35 q 47 17 35 17 l 186 17 l 186 707 q 178 728 186 719 q 157 736 169 736 l 47 736 q 26 728 35 736 q 17 707 17 719 l 17 457 z "},"b":{"ha":219,"x_min":0,"x_max":203,"o":"m 126 676 l 126 76 l 76 76 l 76 676 l 126 676 m 110 660 l 93 660 l 93 93 l 110 93 l 110 660 m 93 972 l 93 753 l 157 753 q 190 739 176 753 q 203 706 203 725 l 203 47 q 190 14 203 28 q 157 0 176 0 l 0 0 l 0 972 l 93 972 m 76 736 l 76 956 l 17 956 l 17 17 l 157 17 q 178 26 169 17 q 186 47 186 35 l 186 706 q 178 727 186 718 q 157 736 169 736 l 76 736 z "},"d":{"ha":219,"x_min":0,"x_max":203,"o":"m 126 676 l 126 76 l 76 76 l 76 676 l 126 676 m 93 93 l 110 93 l 110 660 l 93 660 l 93 93 m 203 972 l 203 0 l 46 0 q 13 14 26 0 q 0 47 0 28 l 0 706 q 13 739 0 725 q 46 753 26 753 l 110 753 l 110 972 l 203 972 m 46 736 q 25 727 33 736 q 17 706 17 718 l 17 47 q 25 26 17 35 q 46 17 33 17 l 186 17 l 186 956 l 126 956 l 126 736 l 46 736 z "},"e":{"ha":219,"x_min":0,"x_max":203,"o":"m 76 406 l 76 676 l 126 676 l 126 406 l 76 406 m 93 422 l 110 422 l 110 660 l 93 660 l 93 422 m 0 706 q 14 739 0 725 q 47 753 28 753 l 157 753 q 190 739 176 753 q 203 706 203 725 l 203 329 l 93 329 l 93 93 l 110 93 l 110 313 l 203 313 l 203 47 q 190 14 203 28 q 157 0 176 0 l 47 0 q 14 14 28 0 q 0 47 0 28 l 0 706 m 17 47 q 26 26 17 35 q 47 17 35 17 l 157 17 q 178 26 169 17 q 186 47 186 35 l 186 296 l 126 296 l 126 76 l 76 76 l 76 346 l 186 346 l 186 706 q 178 727 186 718 q 157 736 169 736 l 47 736 q 26 727 35 736 q 17 706 17 718 l 17 47 z "},"f":{"ha":219,"x_min":0,"x_max":203,"o":"m 157 972 q 190 958 176 972 q 203 925 203 944 l 203 660 l 110 660 l 110 879 l 93 879 l 93 643 l 203 643 l 203 550 l 93 550 l 93 0 l 0 0 l 0 925 q 14 958 0 944 q 47 972 28 972 l 157 972 m 186 925 q 178 947 186 938 q 157 956 169 956 l 47 956 q 26 947 35 956 q 17 925 17 938 l 17 17 l 76 17 l 76 567 l 186 567 l 186 626 l 76 626 l 76 896 l 126 896 l 126 676 l 186 676 l 186 925 z "},"g":{"ha":219,"x_min":0,"x_max":203,"o":"m 126 78 l 76 78 l 76 676 l 126 676 l 126 78 m 110 660 l 93 660 l 93 94 l 110 94 l 110 660 m 93 -17 l 93 -126 l 110 -126 l 110 0 l 47 0 q 14 14 28 0 q 0 47 0 28 l 0 707 q 14 740 0 726 q 47 753 28 753 l 203 753 l 203 -172 q 190 -206 203 -192 q 157 -219 176 -219 l 47 -219 q 14 -206 28 -219 q 0 -172 0 -192 l 0 -17 l 93 -17 m 76 -143 l 76 -33 l 17 -33 l 17 -172 q 26 -194 17 -185 q 47 -203 35 -203 l 157 -203 q 178 -194 169 -203 q 186 -172 186 -185 l 186 736 l 47 736 q 26 728 35 736 q 17 707 17 719 l 17 47 q 26 26 17 35 q 47 17 35 17 l 126 17 l 126 -143 l 76 -143 z "},"h":{"ha":219,"x_min":0,"x_max":203,"o":"m 93 972 l 93 753 l 157 753 q 190 739 176 753 q 203 706 203 725 l 203 0 l 110 0 l 110 660 l 93 660 l 93 0 l 0 0 l 0 972 l 93 972 m 76 736 l 76 956 l 17 956 l 17 17 l 76 17 l 76 676 l 126 676 l 126 17 l 186 17 l 186 706 q 178 727 186 718 q 157 736 169 736 l 76 736 z "},"i":{"ha":110,"x_min":0,"x_max":93,"o":"m 93 0 l 0 0 l 0 753 l 93 753 l 93 0 m 76 736 l 17 736 l 17 17 l 76 17 l 76 736 m 93 769 l 0 769 l 0 972 l 93 972 l 93 769 m 76 956 l 17 956 l 17 786 l 76 786 l 76 956 z "},"j":{"ha":110,"x_min":-110,"x_max":93,"o":"m -62 -219 q -96 -206 -82 -219 q -110 -174 -110 -193 l -110 -17 l -17 -17 l -17 -126 l 0 -126 l 0 753 l 93 753 l 93 -174 q 80 -206 93 -193 q 47 -219 67 -219 l -62 -219 m -93 -174 q -84 -194 -93 -186 q -62 -203 -75 -203 l 47 -203 q 68 -194 60 -203 q 76 -174 76 -186 l 76 736 l 17 736 l 17 -143 l -33 -143 l -33 -33 l -93 -33 l -93 -174 m 0 972 l 93 972 l 93 769 l 0 769 l 0 972 m 17 786 l 76 786 l 76 956 l 17 956 l 17 786 z "},"k":{"ha":219,"x_min":0,"x_max":203,"o":"m 94 0 l 0 0 l 0 972 l 94 972 l 94 478 l 111 478 l 111 753 l 203 753 l 203 431 q 190 398 203 411 q 157 385 176 385 l 94 385 l 94 368 l 157 368 q 190 354 176 368 q 203 321 203 340 l 203 0 l 111 0 l 111 275 l 94 275 l 94 0 m 78 292 l 128 292 l 128 17 l 188 17 l 188 321 q 178 342 188 333 q 157 351 169 351 l 78 351 l 78 401 l 157 401 q 178 410 169 401 q 188 431 188 419 l 188 736 l 128 736 l 128 461 l 78 461 l 78 956 l 17 956 l 17 17 l 78 17 l 78 292 z "},"l":{"ha":110,"x_min":0,"x_max":93,"o":"m 93 0 l 0 0 l 0 972 l 93 972 l 93 0 m 76 956 l 17 956 l 17 17 l 76 17 l 76 956 z "},"m":{"ha":329,"x_min":0,"x_max":313,"o":"m 93 0 l 0 0 l 0 753 l 267 753 q 299 739 286 753 q 313 706 313 725 l 313 0 l 219 0 l 219 660 l 203 660 l 203 0 l 110 0 l 110 660 l 93 660 l 93 0 m 76 676 l 126 676 l 126 17 l 186 17 l 186 676 l 236 676 l 236 17 l 296 17 l 296 706 q 287 727 296 718 q 267 736 278 736 l 17 736 l 17 17 l 76 17 l 76 676 z "},"n":{"ha":219,"x_min":0,"x_max":203,"o":"m 157 753 q 190 739 176 753 q 203 706 203 725 l 203 0 l 110 0 l 110 660 l 93 660 l 93 0 l 0 0 l 0 753 l 157 753 m 186 706 q 178 727 186 718 q 157 736 169 736 l 17 736 l 17 17 l 76 17 l 76 676 l 126 676 l 126 17 l 186 17 l 186 706 z "},"o":{"ha":219,"x_min":0,"x_max":203,"o":"m 156 753 q 189 739 175 753 q 203 706 203 725 l 203 47 q 189 14 203 28 q 156 0 175 0 l 46 0 q 13 14 26 0 q 0 47 0 28 l 0 706 q 13 739 0 725 q 46 753 26 753 l 156 753 m 186 706 q 177 727 186 718 q 156 736 168 736 l 46 736 q 25 727 33 736 q 17 706 17 718 l 17 47 q 25 26 17 35 q 46 17 33 17 l 156 17 q 177 26 168 17 q 186 47 186 35 l 186 706 m 126 676 l 126 76 l 75 76 l 75 676 l 126 676 m 110 660 l 92 660 l 92 93 l 110 93 l 110 660 z "},"p":{"ha":219,"x_min":0,"x_max":203,"o":"m 76 76 l 76 676 l 126 676 l 126 76 l 76 76 m 110 660 l 93 660 l 93 93 l 110 93 l 110 660 m 0 -219 l 0 753 l 157 753 q 190 739 176 753 q 203 706 203 725 l 203 47 q 190 14 203 28 q 157 0 176 0 l 93 0 l 93 -219 l 0 -219 m 157 17 q 178 26 169 17 q 186 47 186 35 l 186 706 q 178 727 186 718 q 157 736 169 736 l 17 736 l 17 -203 l 76 -203 l 76 17 l 157 17 z "},"q":{"ha":219,"x_min":0,"x_max":203,"o":"m 76 76 l 76 676 l 126 676 l 126 76 l 76 76 m 93 93 l 110 93 l 110 660 l 93 660 l 93 93 m 110 -219 l 110 0 l 46 0 q 13 14 26 0 q 0 47 0 28 l 0 706 q 13 739 0 725 q 46 753 26 753 l 203 753 l 203 -219 l 110 -219 m 126 17 l 126 -203 l 186 -203 l 186 736 l 46 736 q 25 727 33 736 q 17 706 17 718 l 17 47 q 25 26 17 35 q 46 17 33 17 l 126 17 z "},"r":{"ha":219,"x_min":0,"x_max":203,"o":"m 157 753 q 190 739 176 753 q 203 706 203 725 l 203 439 l 110 439 l 110 660 l 93 660 l 93 0 l 0 0 l 0 753 l 157 753 m 186 706 q 178 727 186 718 q 157 736 169 736 l 17 736 l 17 17 l 76 17 l 76 676 l 126 676 l 126 456 l 186 456 l 186 706 z "},"s":{"ha":219,"x_min":0,"x_max":203,"o":"m 46 0 q 13 14 26 0 q 0 47 0 28 l 0 313 l 93 313 l 93 93 l 110 93 l 110 329 l 46 329 q 13 343 26 329 q 0 376 0 357 l 0 706 q 13 739 0 725 q 46 753 26 753 l 157 753 q 190 739 176 753 q 203 706 203 725 l 203 439 l 110 439 l 110 660 l 93 660 l 93 422 l 157 422 q 190 409 176 422 q 203 376 203 396 l 203 47 q 190 14 203 28 q 157 0 176 0 l 46 0 m 17 47 q 26 26 17 35 q 46 17 35 17 l 157 17 q 177 26 168 17 q 186 47 186 35 l 186 376 q 177 397 186 389 q 157 406 168 406 l 76 406 l 76 676 l 126 676 l 126 456 l 186 456 l 186 706 q 177 727 186 718 q 157 736 168 736 l 46 736 q 26 727 35 736 q 17 706 17 718 l 17 376 q 26 355 17 364 q 46 346 35 346 l 126 346 l 126 76 l 76 76 l 76 296 l 17 296 l 17 47 z "},"t":{"ha":165,"x_min":0,"x_max":149,"o":"m 93 972 l 93 753 l 149 753 l 149 660 l 93 660 l 93 0 l 0 0 l 0 972 l 93 972 m 76 736 l 76 956 l 17 956 l 17 17 l 76 17 l 76 676 l 132 676 l 132 736 l 76 736 z "},"u":{"ha":219,"x_min":0,"x_max":203,"o":"m 93 93 l 110 93 l 110 753 l 203 753 l 203 47 q 190 14 203 28 q 157 0 176 0 l 47 0 q 14 14 28 0 q 0 47 0 28 l 0 753 l 93 753 l 93 93 m 76 76 l 76 736 l 17 736 l 17 47 q 26 26 17 35 q 47 17 35 17 l 157 17 q 178 26 169 17 q 186 47 186 35 l 186 736 l 126 736 l 126 76 l 76 76 z "},"v":{"ha":219,"x_min":0,"x_max":203,"o":"m 93 753 l 93 168 l 110 119 l 110 753 l 203 753 l 203 0 l 72 0 l 0 146 l 0 753 l 93 753 m 76 164 l 76 736 l 17 736 l 17 149 l 83 17 l 186 17 l 186 736 l 126 736 l 126 42 l 76 164 z "},"w":{"ha":329,"x_min":0,"x_max":313,"o":"m 313 47 q 299 14 313 28 q 267 0 286 0 l 0 0 l 0 753 l 93 753 l 93 93 l 110 93 l 110 753 l 203 753 l 203 93 l 219 93 l 219 753 l 313 753 l 313 47 m 17 17 l 267 17 q 288 26 279 17 q 296 47 296 35 l 296 736 l 236 736 l 236 76 l 186 76 l 186 736 l 126 736 l 126 76 l 76 76 l 76 736 l 17 736 l 17 17 z "},"x":{"ha":219,"x_min":0,"x_max":203,"o":"m 93 0 l 0 0 l 0 322 q 14 356 0 342 q 47 369 28 369 l 56 369 l 56 386 l 47 386 q 14 399 28 386 q 0 432 0 413 l 0 753 l 93 753 l 93 478 l 110 478 l 110 753 l 203 753 l 203 432 q 190 399 203 413 q 157 386 176 386 l 147 386 l 147 369 l 157 369 q 190 356 176 369 q 203 322 203 342 l 203 0 l 110 0 l 110 275 l 93 275 l 93 0 m 76 292 l 126 292 l 126 17 l 186 17 l 186 322 q 178 344 186 335 q 157 353 169 353 l 131 353 l 131 403 l 157 403 q 178 411 169 403 q 186 432 186 419 l 186 736 l 126 736 l 126 463 l 76 463 l 76 736 l 17 736 l 17 432 q 26 411 17 419 q 47 403 35 403 l 72 403 l 72 353 l 47 353 q 26 344 35 353 q 17 322 17 335 l 17 17 l 76 17 l 76 292 z "},"y":{"ha":219,"x_min":0,"x_max":203,"o":"m 93 93 l 110 93 l 110 753 l 203 753 l 203 -174 q 190 -206 203 -193 q 157 -219 176 -219 l 46 -219 q 13 -206 26 -219 q 0 -174 0 -193 l 0 -17 l 93 -17 l 93 -126 l 110 -126 l 110 0 l 46 0 q 13 14 26 0 q 0 47 0 28 l 0 753 l 93 753 l 93 93 m 76 76 l 76 736 l 17 736 l 17 47 q 26 26 17 35 q 46 17 35 17 l 126 17 l 126 -143 l 76 -143 l 76 -33 l 17 -33 l 17 -174 q 26 -194 17 -186 q 46 -203 35 -203 l 157 -203 q 177 -194 168 -203 q 186 -174 186 -186 l 186 736 l 126 736 l 126 76 l 76 76 z "},"z":{"ha":219,"x_min":0,"x_max":203,"o":"m 110 450 l 110 660 l 93 660 l 93 494 l 0 494 l 0 753 l 203 753 l 203 431 q 190 399 203 411 l 93 301 l 93 93 l 110 93 l 110 258 l 203 258 l 203 0 l 0 0 l 0 321 q 14 354 0 340 l 110 450 m 126 676 l 126 443 l 26 343 q 17 321 17 333 l 17 17 l 188 17 l 188 242 l 126 242 l 126 76 l 76 76 l 76 308 l 178 410 q 188 431 188 419 l 188 736 l 17 736 l 17 511 l 76 511 l 76 676 l 126 676 z "},"?":{"ha":219,"x_min":0,"x_max":203,"o":"m 47 956 q 26 947 35 956 q 17 925 17 938 l 17 567 l 76 567 l 76 896 l 126 896 l 126 517 l 47 517 q 26 508 35 517 q 17 486 17 499 l 17 236 l 76 236 l 76 456 l 157 456 q 178 465 169 456 q 186 486 186 474 l 186 925 q 178 947 186 938 q 157 956 169 956 l 47 956 m 17 186 l 17 17 l 76 17 l 76 186 l 17 186 m 157 972 q 190 958 176 972 q 203 925 203 944 l 203 486 q 190 453 203 467 q 157 439 176 439 l 93 439 l 93 219 l 0 219 l 0 486 q 14 519 0 506 q 47 533 28 533 l 110 533 l 110 879 l 93 879 l 93 550 l 0 550 l 0 925 q 14 958 0 944 q 47 972 28 972 l 157 972 m 93 0 l 0 0 l 0 203 l 93 203 l 93 0 z "},".":{"ha":110,"x_min":0,"x_max":93,"o":"m 17 186 l 17 17 l 76 17 l 76 186 l 17 186 m 93 0 l 0 0 l 0 203 l 93 203 l 93 0 z "},"!":{"ha":110,"x_min":0,"x_max":93,"o":"m 17 956 l 17 236 l 76 236 l 76 956 l 17 956 m 17 186 l 17 17 l 76 17 l 76 186 l 17 186 m 93 219 l 0 219 l 0 972 l 93 972 l 93 219 m 93 0 l 0 0 l 0 203 l 93 203 l 93 0 z "},"\"":{"ha":219,"x_min":0,"x_max":203,"o":"m 126 956 l 126 786 l 186 786 l 186 956 l 126 956 m 17 956 l 17 786 l 76 786 l 76 956 l 17 956 m 203 769 l 110 769 l 110 972 l 203 972 l 203 769 m 93 769 l 0 769 l 0 972 l 93 972 l 93 769 z "},"'":{"ha":110,"x_min":0,"x_max":93,"o":"m 17 956 l 17 786 l 76 786 l 76 956 l 17 956 m 93 769 l 0 769 l 0 972 l 93 972 l 93 769 z "},"-":{"ha":219,"x_min":0,"x_max":203,"o":"m 17 407 l 17 347 l 186 347 l 186 407 l 17 407 m 203 331 l 0 331 l 0 424 l 203 424 l 203 331 z "},"–":{"ha":329,"x_min":0,"x_max":313,"o":"m 17 407 l 17 347 l 296 347 l 296 407 l 17 407 m 313 331 l 0 331 l 0 424 l 313 424 l 313 331 z "},"c":{"ha":219,"x_min":0,"x_max":203,"o":"m 0 706 q 14 739 0 725 q 47 753 28 753 l 157 753 q 190 739 176 753 q 203 706 203 725 l 203 385 l 110 385 l 110 660 l 93 660 l 93 93 l 110 93 l 110 368 l 203 368 l 203 47 q 190 14 203 28 q 157 0 176 0 l 47 0 q 14 14 28 0 q 0 47 0 28 l 0 706 m 17 47 q 26 26 17 35 q 47 17 35 17 l 157 17 q 178 26 169 17 q 186 47 186 35 l 186 351 l 126 351 l 126 76 l 76 76 l 76 676 l 126 676 l 126 401 l 186 401 l 186 706 q 178 727 186 718 q 157 736 169 736 l 47 736 q 26 727 35 736 q 17 706 17 718 l 17 47 z "},"—":{"ha":439,"x_min":0,"x_max":422,"o":"m 17 407 l 17 347 l 406 347 l 406 407 l 17 407 m 422 331 l 0 331 l 0 424 l 422 424 l 422 331 z "},"(":{"ha":165,"x_min":0,"x_max":149,"o":"m 47 956 q 26 947 35 956 q 17 925 17 938 l 17 47 q 26 26 17 35 q 47 17 35 17 l 132 17 l 132 76 l 76 76 l 76 896 l 132 896 l 132 956 l 47 956 m 149 879 l 93 879 l 93 93 l 149 93 l 149 0 l 47 0 q 14 14 28 0 q 0 47 0 28 l 0 925 q 14 958 0 944 q 47 972 28 972 l 149 972 l 149 879 z "},")":{"ha":165,"x_min":0,"x_max":149,"o":"m 17 956 l 17 896 l 72 896 l 72 76 l 17 76 l 17 17 l 101 17 q 123 26 114 17 q 132 47 132 35 l 132 925 q 123 947 132 938 q 101 956 114 956 l 17 956 m 0 972 l 101 972 q 135 958 121 972 q 149 925 149 944 l 149 47 q 135 14 149 28 q 101 0 121 0 l 0 0 l 0 93 l 56 93 l 56 879 l 0 879 l 0 972 z "},"/":{"ha":219,"x_min":0,"x_max":203,"o":"m 126 956 l 126 707 l 18 274 q 17 265 17 271 l 17 17 l 76 17 l 76 264 l 186 699 l 186 956 l 126 956 m 203 706 q 201 694 203 697 l 93 260 l 93 0 l 0 0 l 0 265 q 1 278 0 274 l 110 711 l 110 972 l 203 972 l 203 706 z "},"[":{"ha":219,"x_min":0,"x_max":203,"o":"m 93 881 l 93 94 l 203 94 l 203 0 l 0 0 l 0 972 l 203 972 l 203 881 l 93 881 m 76 78 l 76 897 l 186 897 l 186 956 l 17 956 l 17 17 l 186 17 l 186 78 l 76 78 z "},"]":{"ha":219,"x_min":0,"x_max":203,"o":"m 110 881 l 110 94 l 0 94 l 0 0 l 203 0 l 203 972 l 0 972 l 0 881 l 110 881 m 126 78 l 126 897 l 17 897 l 17 956 l 186 956 l 186 17 l 17 17 l 17 78 l 126 78 z "},"_":{"ha":219,"x_min":0,"x_max":203,"o":"m 17 -33 l 17 -93 l 186 -93 l 186 -33 l 17 -33 m 203 -110 l 0 -110 l 0 -17 l 203 -17 l 203 -110 z "},"$":{"ha":329,"x_min":0,"x_max":313,"o":"m 126 956 l 126 846 l 47 846 q 26 837 35 846 q 17 817 17 828 l 17 486 q 26 465 17 474 q 47 456 35 456 l 126 456 l 126 186 l 76 186 l 76 406 l 17 406 l 17 157 q 26 135 17 144 q 47 126 35 126 l 126 126 l 126 17 l 186 17 l 186 126 l 267 126 q 288 135 279 126 q 296 157 296 144 l 296 486 q 288 508 296 499 q 267 517 279 517 l 186 517 l 186 786 l 236 786 l 236 567 l 296 567 l 296 817 q 288 837 296 828 q 267 846 279 846 l 186 846 l 186 956 l 126 956 m 76 786 l 126 786 l 126 517 l 76 517 l 76 786 m 186 456 l 236 456 l 236 186 l 186 186 l 186 456 m 203 863 l 267 863 q 299 849 286 863 q 313 817 313 836 l 313 550 l 219 550 l 219 769 l 203 769 l 203 533 l 267 533 q 299 519 286 533 q 313 486 313 506 l 313 157 q 299 124 313 138 q 267 110 286 110 l 203 110 l 203 0 l 110 0 l 110 110 l 47 110 q 14 124 28 110 q 0 157 0 138 l 0 422 l 93 422 l 93 203 l 110 203 l 110 439 l 47 439 q 14 453 28 439 q 0 486 0 467 l 0 817 q 14 849 0 836 q 47 863 28 863 l 110 863 l 110 972 l 203 972 l 203 863 m 110 533 l 110 769 l 93 769 l 93 533 l 110 533 m 219 203 l 219 439 l 203 439 l 203 203 l 219 203 z "},"\\":{"ha":219,"x_min":0,"x_max":203,"o":"m 76 956 l 76 707 l 185 274 q 186 265 186 271 l 186 17 l 126 17 l 126 264 l 17 699 l 17 956 l 76 956 m 0 706 q 1 694 0 697 l 110 260 l 110 0 l 203 0 l 203 265 q 201 278 203 274 l 93 711 l 93 972 l 0 972 l 0 706 z "},"{":{"ha":219,"x_min":0,"x_max":203,"o":"m 46 385 q 13 398 26 385 q 0 431 0 411 l 0 542 q 13 574 0 561 q 46 588 26 588 l 56 588 l 56 925 q 69 958 56 944 q 101 972 82 972 l 203 972 l 203 879 l 149 879 l 149 542 q 135 508 149 522 q 101 494 121 494 l 93 494 l 93 478 l 101 478 q 135 464 121 478 q 149 431 149 450 l 149 93 l 203 93 l 203 0 l 101 0 q 69 13 82 0 q 56 46 56 26 l 56 385 l 46 385 m 17 431 q 26 410 17 419 q 46 401 35 401 l 72 401 l 72 46 q 81 26 72 35 q 101 17 89 17 l 186 17 l 186 76 l 132 76 l 132 431 q 123 452 132 443 q 101 461 114 461 l 76 461 l 76 511 l 101 511 q 123 520 114 511 q 132 542 132 529 l 132 896 l 186 896 l 186 956 l 101 956 q 81 947 89 956 q 72 925 72 938 l 72 571 l 46 571 q 26 562 35 571 q 17 542 17 553 l 17 431 z "},"}":{"ha":219,"x_min":0,"x_max":203,"o":"m 157 385 q 190 398 176 385 q 203 431 203 411 l 203 542 q 190 574 203 561 q 157 588 176 588 l 147 588 l 147 925 q 134 958 147 944 q 101 972 121 972 l 0 972 l 0 879 l 54 879 l 54 542 q 68 508 54 522 q 101 494 82 494 l 110 494 l 110 478 l 101 478 q 68 464 82 478 q 54 431 54 450 l 54 93 l 0 93 l 0 0 l 101 0 q 134 13 121 0 q 147 46 147 26 l 147 385 l 157 385 m 186 431 q 177 410 186 419 q 157 401 168 401 l 131 401 l 131 46 q 122 26 131 35 q 101 17 114 17 l 17 17 l 17 76 l 71 76 l 71 431 q 80 452 71 443 q 101 461 89 461 l 126 461 l 126 511 l 101 511 q 80 520 89 511 q 71 542 71 529 l 71 896 l 17 896 l 17 956 l 101 956 q 122 947 114 956 q 131 925 131 938 l 131 571 l 157 571 q 177 562 168 571 q 186 542 186 553 l 186 431 z "},"|":{"ha":110,"x_min":0,"x_max":93,"o":"m 93 -110 l 0 -110 l 0 1082 l 93 1082 l 93 -110 m 76 1065 l 17 1065 l 17 -93 l 76 -93 l 76 1065 z "},"`":{"ha":219,"x_min":0,"x_max":203,"o":"m 93 972 l 93 863 l 203 863 l 203 769 l 47 769 q 14 783 28 769 q 0 815 0 796 l 0 972 l 93 972 m 76 846 l 76 956 l 17 956 l 17 815 q 26 794 17 803 q 47 786 35 786 l 186 786 l 186 846 l 76 846 z "},"à":{"ha":219,"x_min":0,"x_max":203,"o":"m 126 347 l 126 78 l 76 78 l 76 347 l 126 347 m 110 331 l 93 331 l 93 94 l 110 94 l 110 331 m 0 707 q 14 740 0 726 q 47 753 28 753 l 157 753 q 190 740 176 753 q 203 707 203 726 l 203 0 l 47 0 q 14 14 28 0 q 0 47 0 28 l 0 376 q 14 410 0 396 q 47 424 28 424 l 110 424 l 110 660 l 93 660 l 93 440 l 0 440 l 0 707 m 17 457 l 76 457 l 76 676 l 126 676 l 126 407 l 47 407 q 26 398 35 407 q 17 376 17 389 l 17 47 q 26 26 17 35 q 47 17 35 17 l 186 17 l 186 707 q 178 728 186 719 q 157 736 169 736 l 47 736 q 26 728 35 736 q 17 707 17 719 l 17 457 m 93 972 l 93 863 l 203 863 l 203 769 l 47 769 q 14 783 28 769 q 0 815 0 796 l 0 972 l 93 972 m 76 846 l 76 956 l 17 956 l 17 815 q 26 794 17 803 q 47 786 35 786 l 186 786 l 186 846 l 76 846 z "},"è":{"ha":219,"x_min":0,"x_max":203,"o":"m 76 406 l 76 676 l 126 676 l 126 406 l 76 406 m 93 422 l 110 422 l 110 660 l 93 660 l 93 422 m 0 706 q 14 739 0 725 q 47 753 28 753 l 157 753 q 190 739 176 753 q 203 706 203 725 l 203 329 l 93 329 l 93 93 l 110 93 l 110 313 l 203 313 l 203 47 q 190 14 203 28 q 157 0 176 0 l 47 0 q 14 14 28 0 q 0 47 0 28 l 0 706 m 17 47 q 26 26 17 35 q 47 17 35 17 l 157 17 q 178 26 169 17 q 186 47 186 35 l 186 296 l 126 296 l 126 76 l 76 76 l 76 346 l 186 346 l 186 706 q 178 727 186 718 q 157 736 169 736 l 47 736 q 26 727 35 736 q 17 706 17 718 l 17 47 m 93 972 l 93 863 l 203 863 l 203 769 l 47 769 q 14 783 28 769 q 0 815 0 796 l 0 972 l 93 972 m 76 846 l 76 956 l 17 956 l 17 815 q 26 794 17 803 q 47 786 35 786 l 186 786 l 186 846 l 76 846 z "},"ò":{"ha":219,"x_min":0,"x_max":203,"o":"m 156 753 q 189 739 175 753 q 203 706 203 725 l 203 47 q 189 14 203 28 q 156 0 175 0 l 46 0 q 13 14 26 0 q 0 47 0 28 l 0 706 q 13 739 0 725 q 46 753 26 753 l 156 753 m 186 706 q 177 727 186 718 q 156 736 168 736 l 46 736 q 25 727 33 736 q 17 706 17 718 l 17 47 q 25 26 17 35 q 46 17 33 17 l 156 17 q 177 26 168 17 q 186 47 186 35 l 186 706 m 126 676 l 126 76 l 75 76 l 75 676 l 126 676 m 110 660 l 92 660 l 92 93 l 110 93 l 110 660 m 93 972 l 93 863 l 203 863 l 203 769 l 47 769 q 14 783 28 769 q 0 815 0 796 l 0 972 l 93 972 m 76 846 l 76 956 l 17 956 l 17 815 q 26 794 17 803 q 47 786 35 786 l 186 786 l 186 846 l 76 846 z "},"ù":{"ha":219,"x_min":0,"x_max":203,"o":"m 93 93 l 110 93 l 110 753 l 203 753 l 203 47 q 190 14 203 28 q 157 0 176 0 l 47 0 q 14 14 28 0 q 0 47 0 28 l 0 753 l 93 753 l 93 93 m 76 76 l 76 736 l 17 736 l 17 47 q 26 26 17 35 q 47 17 35 17 l 157 17 q 178 26 169 17 q 186 47 186 35 l 186 736 l 126 736 l 126 76 l 76 76 m 93 972 l 93 863 l 203 863 l 203 769 l 47 769 q 14 783 28 769 q 0 815 0 796 l 0 972 l 93 972 m 76 846 l 76 956 l 17 956 l 17 815 q 26 794 17 803 q 47 786 35 786 l 186 786 l 186 846 l 76 846 z "},"´":{"ha":219,"x_min":0,"x_max":203,"o":"m 203 972 l 203 815 q 189 783 203 796 q 156 769 175 769 l 0 769 l 0 863 l 110 863 l 110 972 l 203 972 m 17 846 l 17 786 l 156 786 q 177 794 168 786 q 186 815 186 803 l 186 956 l 126 956 l 126 846 l 17 846 z "},"á":{"ha":219,"x_min":0,"x_max":203,"o":"m 126 347 l 126 78 l 76 78 l 76 347 l 126 347 m 110 331 l 93 331 l 93 94 l 110 94 l 110 331 m 0 707 q 14 740 0 726 q 47 753 28 753 l 157 753 q 190 740 176 753 q 203 707 203 726 l 203 0 l 47 0 q 14 14 28 0 q 0 47 0 28 l 0 376 q 14 410 0 396 q 47 424 28 424 l 110 424 l 110 660 l 93 660 l 93 440 l 0 440 l 0 707 m 17 457 l 76 457 l 76 676 l 126 676 l 126 407 l 47 407 q 26 398 35 407 q 17 376 17 389 l 17 47 q 26 26 17 35 q 47 17 35 17 l 186 17 l 186 707 q 178 728 186 719 q 157 736 169 736 l 47 736 q 26 728 35 736 q 17 707 17 719 l 17 457 m 203 972 l 203 815 q 189 783 203 796 q 156 769 175 769 l 0 769 l 0 863 l 110 863 l 110 972 l 203 972 m 17 846 l 17 786 l 156 786 q 177 794 168 786 q 186 815 186 803 l 186 956 l 126 956 l 126 846 l 17 846 z "},"é":{"ha":219,"x_min":0,"x_max":203,"o":"m 76 406 l 76 676 l 126 676 l 126 406 l 76 406 m 93 422 l 110 422 l 110 660 l 93 660 l 93 422 m 0 706 q 14 739 0 725 q 47 753 28 753 l 157 753 q 190 739 176 753 q 203 706 203 725 l 203 329 l 93 329 l 93 93 l 110 93 l 110 313 l 203 313 l 203 47 q 190 14 203 28 q 157 0 176 0 l 47 0 q 14 14 28 0 q 0 47 0 28 l 0 706 m 17 47 q 26 26 17 35 q 47 17 35 17 l 157 17 q 178 26 169 17 q 186 47 186 35 l 186 296 l 126 296 l 126 76 l 76 76 l 76 346 l 186 346 l 186 706 q 178 727 186 718 q 157 736 169 736 l 47 736 q 26 727 35 736 q 17 706 17 718 l 17 47 m 203 972 l 203 815 q 189 783 203 796 q 156 769 175 769 l 0 769 l 0 863 l 110 863 l 110 972 l 203 972 m 17 846 l 17 786 l 156 786 q 177 794 168 786 q 186 815 186 803 l 186 956 l 126 956 l 126 846 l 17 846 z "},"ó":{"ha":219,"x_min":0,"x_max":203,"o":"m 156 753 q 189 739 175 753 q 203 706 203 725 l 203 47 q 189 14 203 28 q 156 0 175 0 l 46 0 q 13 14 26 0 q 0 47 0 28 l 0 706 q 13 739 0 725 q 46 753 26 753 l 156 753 m 186 706 q 177 727 186 718 q 156 736 168 736 l 46 736 q 25 727 33 736 q 17 706 17 718 l 17 47 q 25 26 17 35 q 46 17 33 17 l 156 17 q 177 26 168 17 q 186 47 186 35 l 186 706 m 126 676 l 126 76 l 75 76 l 75 676 l 126 676 m 110 660 l 92 660 l 92 93 l 110 93 l 110 660 m 203 972 l 203 815 q 189 783 203 796 q 156 769 175 769 l 0 769 l 0 863 l 110 863 l 110 972 l 203 972 m 17 846 l 17 786 l 156 786 q 177 794 168 786 q 186 815 186 803 l 186 956 l 126 956 l 126 846 l 17 846 z "},"ú":{"ha":219,"x_min":0,"x_max":203,"o":"m 93 93 l 110 93 l 110 753 l 203 753 l 203 47 q 190 14 203 28 q 157 0 176 0 l 47 0 q 14 14 28 0 q 0 47 0 28 l 0 753 l 93 753 l 93 93 m 76 76 l 76 736 l 17 736 l 17 47 q 26 26 17 35 q 47 17 35 17 l 157 17 q 178 26 169 17 q 186 47 186 35 l 186 736 l 126 736 l 126 76 l 76 76 m 203 972 l 203 815 q 189 783 203 796 q 156 769 175 769 l 0 769 l 0 863 l 110 863 l 110 972 l 203 972 m 17 846 l 17 786 l 156 786 q 177 794 168 786 q 186 815 186 803 l 186 956 l 126 956 l 126 846 l 17 846 z "},"ˆ":{"ha":219,"x_min":0,"x_max":203,"o":"m 189 904 q 203 871 203 890 l 203 769 l 110 769 l 110 851 l 101 860 l 93 851 l 93 769 l 0 769 l 0 871 q 14 904 0 888 l 68 958 q 101 972 82 972 q 135 958 121 972 l 189 904 m 186 871 q 178 892 186 883 l 122 947 q 101 956 114 956 q 81 947 89 956 l 25 892 q 17 871 17 883 l 17 786 l 76 786 l 76 858 l 101 883 l 126 858 l 126 786 l 186 786 l 186 871 z "},"â":{"ha":219,"x_min":0,"x_max":203,"o":"m 126 347 l 126 78 l 76 78 l 76 347 l 126 347 m 110 331 l 93 331 l 93 94 l 110 94 l 110 331 m 0 707 q 14 740 0 726 q 47 753 28 753 l 157 753 q 190 740 176 753 q 203 707 203 726 l 203 0 l 47 0 q 14 14 28 0 q 0 47 0 28 l 0 376 q 14 410 0 396 q 47 424 28 424 l 110 424 l 110 660 l 93 660 l 93 440 l 0 440 l 0 707 m 17 457 l 76 457 l 76 676 l 126 676 l 126 407 l 47 407 q 26 398 35 407 q 17 376 17 389 l 17 47 q 26 26 17 35 q 47 17 35 17 l 186 17 l 186 707 q 178 728 186 719 q 157 736 169 736 l 47 736 q 26 728 35 736 q 17 707 17 719 l 17 457 m 189 904 q 203 871 203 890 l 203 769 l 110 769 l 110 851 l 101 860 l 93 851 l 93 769 l 0 769 l 0 871 q 14 904 0 888 l 68 958 q 101 972 82 972 q 135 958 121 972 l 189 904 m 186 871 q 178 892 186 883 l 122 947 q 101 956 114 956 q 81 947 89 956 l 25 892 q 17 871 17 883 l 17 786 l 76 786 l 76 858 l 101 883 l 126 858 l 126 786 l 186 786 l 186 871 z "},"ê":{"ha":219,"x_min":0,"x_max":203,"o":"m 76 406 l 76 676 l 126 676 l 126 406 l 76 406 m 93 422 l 110 422 l 110 660 l 93 660 l 93 422 m 0 706 q 14 739 0 725 q 47 753 28 753 l 157 753 q 190 739 176 753 q 203 706 203 725 l 203 329 l 93 329 l 93 93 l 110 93 l 110 313 l 203 313 l 203 47 q 190 14 203 28 q 157 0 176 0 l 47 0 q 14 14 28 0 q 0 47 0 28 l 0 706 m 17 47 q 26 26 17 35 q 47 17 35 17 l 157 17 q 178 26 169 17 q 186 47 186 35 l 186 296 l 126 296 l 126 76 l 76 76 l 76 346 l 186 346 l 186 706 q 178 727 186 718 q 157 736 169 736 l 47 736 q 26 727 35 736 q 17 706 17 718 l 17 47 m 189 904 q 203 871 203 890 l 203 769 l 110 769 l 110 851 l 101 860 l 93 851 l 93 769 l 0 769 l 0 871 q 14 904 0 888 l 68 958 q 101 972 82 972 q 135 958 121 972 l 189 904 m 186 871 q 178 892 186 883 l 122 947 q 101 956 114 956 q 81 947 89 956 l 25 892 q 17 871 17 883 l 17 786 l 76 786 l 76 858 l 101 883 l 126 858 l 126 786 l 186 786 l 186 871 z "},"ô":{"ha":219,"x_min":0,"x_max":203,"o":"m 156 753 q 189 739 175 753 q 203 706 203 725 l 203 47 q 189 14 203 28 q 156 0 175 0 l 46 0 q 13 14 26 0 q 0 47 0 28 l 0 706 q 13 739 0 725 q 46 753 26 753 l 156 753 m 186 706 q 177 727 186 718 q 156 736 168 736 l 46 736 q 25 727 33 736 q 17 706 17 718 l 17 47 q 25 26 17 35 q 46 17 33 17 l 156 17 q 177 26 168 17 q 186 47 186 35 l 186 706 m 126 676 l 126 76 l 75 76 l 75 676 l 126 676 m 110 660 l 92 660 l 92 93 l 110 93 l 110 660 m 189 904 q 203 871 203 890 l 203 769 l 110 769 l 110 851 l 101 860 l 93 851 l 93 769 l 0 769 l 0 871 q 14 904 0 888 l 68 958 q 101 972 82 972 q 135 958 121 972 l 189 904 m 186 871 q 178 892 186 883 l 122 947 q 101 956 114 956 q 81 947 89 956 l 25 892 q 17 871 17 883 l 17 786 l 76 786 l 76 858 l 101 883 l 126 858 l 126 786 l 186 786 l 186 871 z "},"û":{"ha":219,"x_min":0,"x_max":203,"o":"m 93 93 l 110 93 l 110 753 l 203 753 l 203 47 q 190 14 203 28 q 157 0 176 0 l 47 0 q 14 14 28 0 q 0 47 0 28 l 0 753 l 93 753 l 93 93 m 76 76 l 76 736 l 17 736 l 17 47 q 26 26 17 35 q 47 17 35 17 l 157 17 q 178 26 169 17 q 186 47 186 35 l 186 736 l 126 736 l 126 76 l 76 76 m 189 904 q 203 871 203 890 l 203 769 l 110 769 l 110 851 l 101 860 l 93 851 l 93 769 l 0 769 l 0 871 q 14 904 0 888 l 68 958 q 101 972 82 972 q 135 958 121 972 l 189 904 m 186 871 q 178 892 186 883 l 122 947 q 101 956 114 956 q 81 947 89 956 l 25 892 q 17 871 17 883 l 17 786 l 76 786 l 76 858 l 101 883 l 126 858 l 126 786 l 186 786 l 186 871 z "},"˚":{"ha":219,"x_min":0,"x_max":203,"o":"m 126 896 l 126 846 l 76 846 l 76 896 l 126 896 m 110 879 l 93 879 l 93 863 l 110 863 l 110 879 m 156 972 q 189 958 175 972 q 203 925 203 944 l 203 815 q 189 783 203 796 q 156 769 175 769 l 46 769 q 13 783 26 769 q 0 815 0 796 l 0 925 q 13 958 0 944 q 46 972 26 972 l 156 972 m 186 925 q 177 947 186 938 q 156 956 168 956 l 46 956 q 25 947 33 956 q 17 925 17 938 l 17 815 q 25 794 17 803 q 46 786 33 786 l 156 786 q 177 794 168 786 q 186 815 186 803 l 186 925 z "},"å":{"ha":219,"x_min":0,"x_max":203,"o":"m 126 347 l 126 78 l 76 78 l 76 347 l 126 347 m 110 331 l 93 331 l 93 94 l 110 94 l 110 331 m 0 707 q 14 740 0 726 q 47 753 28 753 l 157 753 q 190 740 176 753 q 203 707 203 726 l 203 0 l 47 0 q 14 14 28 0 q 0 47 0 28 l 0 376 q 14 410 0 396 q 47 424 28 424 l 110 424 l 110 660 l 93 660 l 93 440 l 0 440 l 0 707 m 17 457 l 76 457 l 76 676 l 126 676 l 126 407 l 47 407 q 26 398 35 407 q 17 376 17 389 l 17 47 q 26 26 17 35 q 47 17 35 17 l 186 17 l 186 707 q 178 728 186 719 q 157 736 169 736 l 47 736 q 26 728 35 736 q 17 707 17 719 l 17 457 m 126 896 l 126 846 l 76 846 l 76 896 l 126 896 m 110 879 l 93 879 l 93 863 l 110 863 l 110 879 m 156 972 q 189 958 175 972 q 203 925 203 944 l 203 815 q 189 783 203 796 q 156 769 175 769 l 46 769 q 13 783 26 769 q 0 815 0 796 l 0 925 q 13 958 0 944 q 46 972 26 972 l 156 972 m 186 925 q 177 947 186 938 q 156 956 168 956 l 46 956 q 25 947 33 956 q 17 925 17 938 l 17 815 q 25 794 17 803 q 46 786 33 786 l 156 786 q 177 794 168 786 q 186 815 186 803 l 186 925 z "},"¨":{"ha":219,"x_min":0,"x_max":203,"o":"m 126 956 l 126 786 l 186 786 l 186 956 l 126 956 m 17 956 l 17 786 l 76 786 l 76 956 l 17 956 m 203 769 l 110 769 l 110 972 l 203 972 l 203 769 m 93 769 l 0 769 l 0 972 l 93 972 l 93 769 z "},"ä":{"ha":219,"x_min":0,"x_max":203,"o":"m 126 347 l 126 78 l 76 78 l 76 347 l 126 347 m 110 331 l 93 331 l 93 94 l 110 94 l 110 331 m 0 707 q 14 740 0 726 q 47 753 28 753 l 157 753 q 190 740 176 753 q 203 707 203 726 l 203 0 l 47 0 q 14 14 28 0 q 0 47 0 28 l 0 376 q 14 410 0 396 q 47 424 28 424 l 110 424 l 110 660 l 93 660 l 93 440 l 0 440 l 0 707 m 17 457 l 76 457 l 76 676 l 126 676 l 126 407 l 47 407 q 26 398 35 407 q 17 376 17 389 l 17 47 q 26 26 17 35 q 47 17 35 17 l 186 17 l 186 707 q 178 728 186 719 q 157 736 169 736 l 47 736 q 26 728 35 736 q 17 707 17 719 l 17 457 m 126 956 l 126 786 l 186 786 l 186 956 l 126 956 m 17 956 l 17 786 l 76 786 l 76 956 l 17 956 m 203 769 l 110 769 l 110 972 l 203 972 l 203 769 m 93 769 l 0 769 l 0 972 l 93 972 l 93 769 z "},"ë":{"ha":219,"x_min":0,"x_max":203,"o":"m 76 406 l 76 676 l 126 676 l 126 406 l 76 406 m 93 422 l 110 422 l 110 660 l 93 660 l 93 422 m 0 706 q 14 739 0 725 q 47 753 28 753 l 157 753 q 190 739 176 753 q 203 706 203 725 l 203 329 l 93 329 l 93 93 l 110 93 l 110 313 l 203 313 l 203 47 q 190 14 203 28 q 157 0 176 0 l 47 0 q 14 14 28 0 q 0 47 0 28 l 0 706 m 17 47 q 26 26 17 35 q 47 17 35 17 l 157 17 q 178 26 169 17 q 186 47 186 35 l 186 296 l 126 296 l 126 76 l 76 76 l 76 346 l 186 346 l 186 706 q 178 727 186 718 q 157 736 169 736 l 47 736 q 26 727 35 736 q 17 706 17 718 l 17 47 m 126 956 l 126 786 l 186 786 l 186 956 l 126 956 m 17 956 l 17 786 l 76 786 l 76 956 l 17 956 m 203 769 l 110 769 l 110 972 l 203 972 l 203 769 m 93 769 l 0 769 l 0 972 l 93 972 l 93 769 z "},"ö":{"ha":219,"x_min":0,"x_max":203,"o":"m 156 753 q 189 739 175 753 q 203 706 203 725 l 203 47 q 189 14 203 28 q 156 0 175 0 l 46 0 q 13 14 26 0 q 0 47 0 28 l 0 706 q 13 739 0 725 q 46 753 26 753 l 156 753 m 186 706 q 177 727 186 718 q 156 736 168 736 l 46 736 q 25 727 33 736 q 17 706 17 718 l 17 47 q 25 26 17 35 q 46 17 33 17 l 156 17 q 177 26 168 17 q 186 47 186 35 l 186 706 m 126 676 l 126 76 l 75 76 l 75 676 l 126 676 m 110 660 l 92 660 l 92 93 l 110 93 l 110 660 m 126 956 l 126 786 l 186 786 l 186 956 l 126 956 m 17 956 l 17 786 l 76 786 l 76 956 l 17 956 m 203 769 l 110 769 l 110 972 l 203 972 l 203 769 m 93 769 l 0 769 l 0 972 l 93 972 l 93 769 z "},"ü":{"ha":219,"x_min":0,"x_max":203,"o":"m 93 93 l 110 93 l 110 753 l 203 753 l 203 47 q 190 14 203 28 q 157 0 176 0 l 47 0 q 14 14 28 0 q 0 47 0 28 l 0 753 l 93 753 l 93 93 m 76 76 l 76 736 l 17 736 l 17 47 q 26 26 17 35 q 47 17 35 17 l 157 17 q 178 26 169 17 q 186 47 186 35 l 186 736 l 126 736 l 126 76 l 76 76 m 126 956 l 126 786 l 186 786 l 186 956 l 126 956 m 17 956 l 17 786 l 76 786 l 76 956 l 17 956 m 203 769 l 110 769 l 110 972 l 203 972 l 203 769 m 93 769 l 0 769 l 0 972 l 93 972 l 93 769 z "},"ÿ":{"ha":219,"x_min":0,"x_max":203,"o":"m 93 93 l 110 93 l 110 753 l 203 753 l 203 -174 q 190 -206 203 -193 q 157 -219 176 -219 l 46 -219 q 13 -206 26 -219 q 0 -174 0 -193 l 0 -17 l 93 -17 l 93 -126 l 110 -126 l 110 0 l 46 0 q 13 14 26 0 q 0 47 0 28 l 0 753 l 93 753 l 93 93 m 76 76 l 76 736 l 17 736 l 17 47 q 26 26 17 35 q 46 17 35 17 l 126 17 l 126 -143 l 76 -143 l 76 -33 l 17 -33 l 17 -174 q 26 -194 17 -186 q 46 -203 35 -203 l 157 -203 q 177 -194 168 -203 q 186 -174 186 -186 l 186 736 l 126 736 l 126 76 l 76 76 m 126 956 l 126 786 l 186 786 l 186 956 l 126 956 m 17 956 l 17 786 l 76 786 l 76 956 l 17 956 m 203 769 l 110 769 l 110 972 l 203 972 l 203 769 m 93 769 l 0 769 l 0 972 l 93 972 l 93 769 z "},"©":{"ha":439,"x_min":0,"x_max":422,"o":"m 76 186 l 76 786 l 346 786 l 346 186 l 76 186 m 93 203 l 329 203 l 329 769 l 93 769 l 93 203 m 0 815 q 13 849 0 835 q 46 863 26 863 l 376 863 q 409 849 396 863 q 422 815 422 835 l 422 157 q 409 124 422 138 q 376 110 396 110 l 46 110 q 13 124 26 110 q 0 157 0 138 l 0 815 m 17 157 q 26 135 17 144 q 46 126 35 126 l 376 126 q 397 135 389 126 q 406 157 406 144 l 406 815 q 397 837 406 828 q 376 846 389 846 l 46 846 q 26 837 35 846 q 17 815 17 828 l 17 157 m 267 753 q 299 739 286 753 q 313 706 313 725 l 313 494 l 219 494 l 219 660 l 203 660 l 203 313 l 219 313 l 219 478 l 313 478 l 313 267 q 299 233 313 247 q 267 219 286 219 l 157 219 q 124 233 138 219 q 110 267 110 247 l 110 706 q 124 739 110 725 q 157 753 138 753 l 267 753 m 296 706 q 288 727 296 718 q 267 736 279 736 l 157 736 q 135 727 144 736 q 126 706 126 718 l 126 267 q 135 245 126 254 q 157 236 144 236 l 267 236 q 288 245 279 236 q 296 267 296 254 l 296 461 l 236 461 l 236 296 l 186 296 l 186 676 l 236 676 l 236 511 l 296 511 l 296 706 z "},"™":{"ha":658,"x_min":0,"x_max":642,"o":"m 93 714 l 0 714 l 0 972 l 313 972 l 313 714 l 219 714 l 219 879 l 203 879 l 203 439 l 110 439 l 110 879 l 93 879 l 93 714 m 76 896 l 126 896 l 126 456 l 186 456 l 186 896 l 236 896 l 236 731 l 296 731 l 296 956 l 17 956 l 17 731 l 76 731 l 76 896 m 346 956 l 346 456 l 406 456 l 406 896 l 456 896 l 456 456 l 515 456 l 515 896 l 565 896 l 565 456 l 625 456 l 625 925 q 617 947 625 938 q 596 956 608 956 l 346 956 m 596 972 q 628 958 615 972 q 642 925 642 944 l 642 439 l 549 439 l 549 879 l 532 879 l 532 439 l 439 439 l 439 879 l 422 879 l 422 439 l 329 439 l 329 972 l 596 972 z "},"®":{"ha":219,"x_min":0,"x_max":203,"o":"m 126 896 l 126 790 l 76 790 l 76 896 l 126 896 m 110 879 l 93 879 l 93 807 l 110 807 l 110 879 m 157 972 q 190 958 176 972 q 203 925 203 944 l 203 761 q 190 728 203 742 q 157 714 176 714 l 93 714 l 93 697 l 157 697 q 190 683 176 697 q 203 650 203 669 l 203 440 l 110 440 l 110 604 l 93 604 l 93 440 l 0 440 l 0 972 l 157 972 m 186 925 q 178 947 186 938 q 157 956 169 956 l 17 956 l 17 457 l 76 457 l 76 621 l 126 621 l 126 457 l 186 457 l 186 650 q 178 672 186 663 q 157 681 169 681 l 93 681 l 76 681 l 76 731 l 157 731 q 178 740 169 731 q 186 761 186 749 l 186 925 z "},"Æ":{"ha":329,"x_min":0,"x_max":313,"o":"m 76 515 l 76 896 l 126 896 l 126 515 l 76 515 m 93 532 l 110 532 l 110 879 l 93 879 l 93 532 m 0 925 q 13 958 0 944 q 46 972 26 972 l 313 972 l 313 550 l 219 550 l 219 879 l 203 879 l 203 532 l 313 532 l 313 439 l 203 439 l 203 93 l 219 93 l 219 422 l 313 422 l 313 0 l 110 0 l 110 439 l 93 439 l 93 0 l 0 0 l 0 925 m 17 17 l 76 17 l 76 456 l 126 456 l 126 17 l 296 17 l 296 406 l 236 406 l 236 76 l 186 76 l 186 456 l 296 456 l 296 515 l 186 515 l 186 896 l 236 896 l 236 567 l 296 567 l 296 956 l 46 956 q 26 947 35 956 q 17 925 17 938 l 17 17 z "},"æ":{"ha":329,"x_min":0,"x_max":313,"o":"m 186 406 l 186 676 l 236 676 l 236 406 l 186 406 m 203 422 l 219 422 l 219 660 l 203 660 l 203 422 m 0 706 q 13 739 0 725 q 46 753 26 753 l 267 753 q 299 739 286 753 q 313 706 313 725 l 313 329 l 203 329 l 203 93 l 219 93 l 219 313 l 313 313 l 313 46 q 299 13 313 26 q 267 0 286 0 l 46 0 q 13 13 26 0 q 0 46 0 26 l 0 376 q 13 409 0 396 q 46 422 26 422 l 110 422 l 110 660 l 93 660 l 93 439 l 0 439 l 0 706 m 296 706 q 288 727 296 718 q 267 736 279 736 l 46 736 q 26 727 35 736 q 17 706 17 718 l 17 456 l 76 456 l 76 676 l 126 676 l 126 406 l 46 406 q 26 397 35 406 q 17 376 17 389 l 17 46 q 26 26 17 35 q 46 17 35 17 l 267 17 q 288 26 279 17 q 296 46 296 35 l 296 296 l 236 296 l 236 76 l 186 76 l 186 346 l 296 346 l 296 706 m 126 346 l 126 76 l 76 76 l 76 346 l 126 346 m 110 329 l 93 329 l 93 93 l 110 93 l 110 329 z "},"˜":{"ha":219,"x_min":0,"x_max":203,"o":"m 110 972 l 203 972 l 203 871 q 189 838 203 851 q 156 824 175 824 l 93 824 l 93 769 l 0 769 l 0 871 q 13 903 0 890 q 46 917 26 917 l 110 917 l 110 972 m 126 900 l 46 900 q 26 892 35 900 q 17 871 17 883 l 17 786 l 76 786 l 76 840 l 156 840 q 177 849 168 840 q 186 871 186 858 l 186 956 l 126 956 l 126 900 z "},"ã":{"ha":219,"x_min":0,"x_max":203,"o":"m 126 347 l 126 78 l 76 78 l 76 347 l 126 347 m 110 331 l 93 331 l 93 94 l 110 94 l 110 331 m 0 707 q 14 740 0 726 q 47 753 28 753 l 157 753 q 190 740 176 753 q 203 707 203 726 l 203 0 l 47 0 q 14 14 28 0 q 0 47 0 28 l 0 376 q 14 410 0 396 q 47 424 28 424 l 110 424 l 110 660 l 93 660 l 93 440 l 0 440 l 0 707 m 17 457 l 76 457 l 76 676 l 126 676 l 126 407 l 47 407 q 26 398 35 407 q 17 376 17 389 l 17 47 q 26 26 17 35 q 47 17 35 17 l 186 17 l 186 707 q 178 728 186 719 q 157 736 169 736 l 47 736 q 26 728 35 736 q 17 707 17 719 l 17 457 m 110 972 l 203 972 l 203 871 q 189 838 203 851 q 156 824 175 824 l 93 824 l 93 769 l 0 769 l 0 871 q 13 903 0 890 q 46 917 26 917 l 110 917 l 110 972 m 126 900 l 46 900 q 26 892 35 900 q 17 871 17 883 l 17 786 l 76 786 l 76 840 l 156 840 q 177 849 168 840 q 186 871 186 858 l 186 956 l 126 956 l 126 900 z "},"ñ":{"ha":219,"x_min":0,"x_max":203,"o":"m 157 753 q 190 739 176 753 q 203 706 203 725 l 203 0 l 110 0 l 110 660 l 93 660 l 93 0 l 0 0 l 0 753 l 157 753 m 186 706 q 178 727 186 718 q 157 736 169 736 l 17 736 l 17 17 l 76 17 l 76 676 l 126 676 l 126 17 l 186 17 l 186 706 m 110 972 l 203 972 l 203 871 q 189 838 203 851 q 156 824 175 824 l 93 824 l 93 769 l 0 769 l 0 871 q 13 903 0 890 q 46 917 26 917 l 110 917 l 110 972 m 126 900 l 46 900 q 26 892 35 900 q 17 871 17 883 l 17 786 l 76 786 l 76 840 l 156 840 q 177 849 168 840 q 186 871 186 858 l 186 956 l 126 956 l 126 900 z "},"õ":{"ha":219,"x_min":0,"x_max":203,"o":"m 156 753 q 189 739 175 753 q 203 706 203 725 l 203 47 q 189 14 203 28 q 156 0 175 0 l 46 0 q 13 14 26 0 q 0 47 0 28 l 0 706 q 13 739 0 725 q 46 753 26 753 l 156 753 m 186 706 q 177 727 186 718 q 156 736 168 736 l 46 736 q 25 727 33 736 q 17 706 17 718 l 17 47 q 25 26 17 35 q 46 17 33 17 l 156 17 q 177 26 168 17 q 186 47 186 35 l 186 706 m 126 676 l 126 76 l 75 76 l 75 676 l 126 676 m 110 660 l 92 660 l 92 93 l 110 93 l 110 660 m 110 972 l 203 972 l 203 871 q 189 838 203 851 q 156 824 175 824 l 93 824 l 93 769 l 0 769 l 0 871 q 13 903 0 890 q 46 917 26 917 l 110 917 l 110 972 m 126 900 l 46 900 q 26 892 35 900 q 17 871 17 883 l 17 786 l 76 786 l 76 840 l 156 840 q 177 849 168 840 q 186 871 186 858 l 186 956 l 126 956 l 126 900 z "},"Œ":{"ha":329,"x_min":0,"x_max":313,"o":"m 76 76 l 76 896 l 126 896 l 126 76 l 76 76 m 93 93 l 110 93 l 110 879 l 93 879 l 93 93 m 46 0 q 13 13 26 0 q 0 46 0 26 l 0 925 q 13 958 0 944 q 46 972 26 972 l 313 972 l 313 550 l 219 550 l 219 879 l 203 879 l 203 532 l 313 532 l 313 439 l 203 439 l 203 93 l 219 93 l 219 422 l 313 422 l 313 0 l 46 0 m 17 46 q 26 26 17 35 q 46 17 35 17 l 296 17 l 296 406 l 236 406 l 236 76 l 186 76 l 186 456 l 296 456 l 296 515 l 186 515 l 186 896 l 236 896 l 236 567 l 296 567 l 296 956 l 46 956 q 26 947 35 956 q 17 925 17 938 l 17 46 z "},"œ":{"ha":329,"x_min":0,"x_max":313,"o":"m 76 76 l 76 676 l 126 676 l 126 76 l 76 76 m 93 93 l 110 93 l 110 660 l 93 660 l 93 93 m 186 406 l 186 676 l 236 676 l 236 406 l 186 406 m 203 422 l 219 422 l 219 660 l 203 660 l 203 422 m 47 0 q 14 13 28 0 q 0 46 0 26 l 0 706 q 14 739 0 725 q 47 753 28 753 l 265 753 q 299 739 285 753 q 313 706 313 725 l 313 329 l 203 329 l 203 93 l 219 93 l 219 313 l 313 313 l 313 46 q 299 13 313 26 q 265 0 285 0 l 47 0 m 17 46 q 26 26 17 35 q 47 17 35 17 l 265 17 q 287 26 278 17 q 296 46 296 35 l 296 296 l 236 296 l 236 76 l 186 76 l 186 346 l 296 346 l 296 706 q 287 727 296 718 q 265 736 278 736 l 47 736 q 26 727 35 736 q 17 706 17 718 l 17 46 z "},"¿":{"ha":219,"x_min":0,"x_max":203,"o":"m 156 17 q 177 26 168 17 q 186 47 186 35 l 186 406 l 126 406 l 126 76 l 76 76 l 76 456 l 156 456 q 177 465 168 456 q 186 486 186 474 l 186 736 l 126 736 l 126 517 l 46 517 q 25 508 33 517 q 17 486 17 499 l 17 47 q 25 26 17 35 q 46 17 33 17 l 156 17 m 186 786 l 186 956 l 126 956 l 126 786 l 186 786 m 46 0 q 13 14 26 0 q 0 47 0 28 l 0 486 q 13 519 0 506 q 46 533 26 533 l 110 533 l 110 753 l 203 753 l 203 486 q 189 453 203 467 q 156 439 175 439 l 93 439 l 93 93 l 110 93 l 110 422 l 203 422 l 203 47 q 189 14 203 28 q 156 0 175 0 l 46 0 m 110 972 l 203 972 l 203 769 l 110 769 l 110 972 z "},"¡":{"ha":110,"x_min":0,"x_max":93,"o":"m 17 17 l 17 736 l 76 736 l 76 17 l 17 17 m 17 786 l 17 956 l 76 956 l 76 786 l 17 786 m 93 753 l 0 753 l 0 0 l 93 0 l 93 753 m 93 972 l 0 972 l 0 769 l 93 769 l 93 972 z "},"€":{"ha":275,"x_min":0,"x_max":258,"o":"m 165 604 l 165 879 l 149 879 l 149 588 l 258 588 l 258 494 l 149 494 l 149 478 l 258 478 l 258 385 l 149 385 l 149 93 l 165 93 l 165 368 l 258 368 l 258 46 q 244 13 258 26 q 211 0 231 0 l 101 0 q 69 13 82 0 q 56 46 56 26 l 56 385 l 0 385 l 0 478 l 56 478 l 56 494 l 0 494 l 0 588 l 56 588 l 56 925 q 69 958 56 944 q 101 972 82 972 l 211 972 q 244 958 231 972 q 258 925 258 944 l 258 604 l 165 604 m 182 621 l 242 621 l 242 925 q 233 947 242 938 q 211 956 224 956 l 101 956 q 81 947 89 956 q 72 925 72 938 l 72 571 l 17 571 l 17 511 l 72 511 l 72 461 l 17 461 l 17 401 l 72 401 l 72 46 q 81 26 72 35 q 101 17 89 17 l 211 17 q 233 26 224 17 q 242 46 242 35 l 242 351 l 182 351 l 182 76 l 132 76 l 132 401 l 242 401 l 242 461 l 132 461 l 132 511 l 242 511 l 242 571 l 132 571 l 132 896 l 182 896 l 182 621 z "},"¥":{"ha":219,"x_min":0,"x_max":203,"o":"m 56 368 l 56 385 l 0 385 l 0 478 l 56 478 l 56 494 l 46 494 q 13 508 26 494 q 0 542 0 522 l 0 972 l 93 972 l 93 588 l 110 588 l 110 972 l 203 972 l 203 542 q 190 508 203 522 q 157 494 176 494 l 149 494 l 149 478 l 203 478 l 203 385 l 149 385 l 149 368 l 203 368 l 203 275 l 149 275 l 149 0 l 56 0 l 56 275 l 0 275 l 0 368 l 56 368 m 72 401 l 72 351 l 17 351 l 17 292 l 72 292 l 72 17 l 132 17 l 132 292 l 186 292 l 186 351 l 132 351 l 132 401 l 186 401 l 186 461 l 132 461 l 132 511 l 157 511 q 177 520 168 511 q 186 542 186 529 l 186 956 l 126 956 l 126 571 l 76 571 l 76 956 l 17 956 l 17 542 q 26 520 17 529 q 46 511 35 511 l 72 511 l 72 461 l 17 461 l 17 401 l 72 401 z "},"Ä":{"ha":219,"x_min":0,"x_max":203,"o":"m 46 736 q 25 727 33 736 q 17 706 17 718 l 17 17 l 76 17 l 76 344 l 126 344 l 126 17 l 186 17 l 186 706 q 177 727 186 718 q 156 736 168 736 l 46 736 m 76 676 l 126 676 l 126 406 l 76 406 l 76 676 m 156 753 q 189 739 175 753 q 203 706 203 725 l 203 0 l 110 0 l 110 328 l 93 328 l 93 0 l 0 0 l 0 706 q 13 739 0 725 q 46 753 26 753 l 156 753 m 110 422 l 110 660 l 93 660 l 93 422 l 110 422 m 126 956 l 126 786 l 186 786 l 186 956 l 126 956 m 17 956 l 17 786 l 76 786 l 76 956 l 17 956 m 203 769 l 110 769 l 110 972 l 203 972 l 203 769 m 93 769 l 0 769 l 0 972 l 93 972 l 93 769 z "},"Å":{"ha":219,"x_min":0,"x_max":203,"o":"m 46 736 q 25 727 33 736 q 17 706 17 718 l 17 17 l 76 17 l 76 344 l 126 344 l 126 17 l 186 17 l 186 706 q 177 727 186 718 q 156 736 168 736 l 46 736 m 76 676 l 126 676 l 126 406 l 76 406 l 76 676 m 156 753 q 189 739 175 753 q 203 706 203 725 l 203 0 l 110 0 l 110 328 l 93 328 l 93 0 l 0 0 l 0 706 q 13 739 0 725 q 46 753 26 753 l 156 753 m 110 422 l 110 660 l 93 660 l 93 422 l 110 422 m 126 896 l 126 846 l 76 846 l 76 896 l 126 896 m 110 879 l 93 879 l 93 863 l 110 863 l 110 879 m 156 972 q 189 958 175 972 q 203 925 203 944 l 203 815 q 189 783 203 796 q 156 769 175 769 l 46 769 q 13 783 26 769 q 0 815 0 796 l 0 925 q 13 958 0 944 q 46 972 26 972 l 156 972 m 186 925 q 177 947 186 938 q 156 956 168 956 l 46 956 q 25 947 33 956 q 17 925 17 938 l 17 815 q 25 794 17 803 q 46 786 33 786 l 156 786 q 177 794 168 786 q 186 815 186 803 l 186 925 z "},"Â":{"ha":219,"x_min":0,"x_max":203,"o":"m 46 736 q 25 727 33 736 q 17 706 17 718 l 17 17 l 76 17 l 76 344 l 126 344 l 126 17 l 186 17 l 186 706 q 177 727 186 718 q 156 736 168 736 l 46 736 m 76 676 l 126 676 l 126 406 l 76 406 l 76 676 m 156 753 q 189 739 175 753 q 203 706 203 725 l 203 0 l 110 0 l 110 328 l 93 328 l 93 0 l 0 0 l 0 706 q 13 739 0 725 q 46 753 26 753 l 156 753 m 110 422 l 110 660 l 93 660 l 93 422 l 110 422 m 189 904 q 203 871 203 890 l 203 769 l 110 769 l 110 851 l 101 860 l 93 851 l 93 769 l 0 769 l 0 871 q 14 904 0 888 l 68 958 q 101 972 82 972 q 135 958 121 972 l 189 904 m 186 871 q 178 892 186 883 l 122 947 q 101 956 114 956 q 81 947 89 956 l 25 892 q 17 871 17 883 l 17 786 l 76 786 l 76 858 l 101 883 l 126 858 l 126 786 l 186 786 l 186 871 z "},"Á":{"ha":219,"x_min":0,"x_max":203,"o":"m 156 736 q 177 727 168 736 q 186 706 186 718 l 186 17 l 126 17 l 126 344 l 76 344 l 76 17 l 17 17 l 17 706 q 25 727 17 718 q 46 736 33 736 l 156 736 m 76 406 l 126 406 l 126 676 l 76 676 l 76 406 m 156 753 l 46 753 q 13 739 26 753 q 0 706 0 725 l 0 0 l 93 0 l 93 328 l 110 328 l 110 0 l 203 0 l 203 706 q 189 739 203 725 q 156 753 175 753 m 93 422 l 93 660 l 110 660 l 110 422 l 93 422 m 203 972 l 203 815 q 189 783 203 796 q 156 769 175 769 l 0 769 l 0 863 l 110 863 l 110 972 l 203 972 m 17 846 l 17 786 l 156 786 q 177 794 168 786 q 186 815 186 803 l 186 956 l 126 956 l 126 846 l 17 846 z "},"É":{"ha":219,"x_min":0,"x_max":203,"o":"m 186 736 l 186 457 l 126 457 l 126 676 l 76 676 l 76 407 l 186 407 l 186 346 l 76 346 l 76 76 l 126 76 l 126 296 l 186 296 l 186 17 l 17 17 l 17 736 l 186 736 m 203 753 l 0 753 l 0 0 l 203 0 l 203 313 l 110 313 l 110 93 l 93 93 l 93 329 l 203 329 l 203 424 l 93 424 l 93 660 l 110 660 l 110 440 l 203 440 l 203 753 m 203 972 l 203 815 q 189 783 203 796 q 156 769 175 769 l 0 769 l 0 863 l 110 863 l 110 972 l 203 972 m 17 846 l 17 786 l 156 786 q 177 794 168 786 q 186 815 186 803 l 186 956 l 126 956 l 126 846 l 17 846 z "},"Ê":{"ha":219,"x_min":0,"x_max":203,"o":"m 17 736 l 17 17 l 186 17 l 186 296 l 126 296 l 126 76 l 76 76 l 76 346 l 186 346 l 186 407 l 76 407 l 76 676 l 126 676 l 126 457 l 186 457 l 186 736 l 17 736 m 203 440 l 110 440 l 110 660 l 93 660 l 93 424 l 203 424 l 203 329 l 93 329 l 93 93 l 110 93 l 110 313 l 203 313 l 203 0 l 0 0 l 0 753 l 203 753 l 203 440 m 189 904 q 203 871 203 890 l 203 769 l 110 769 l 110 851 l 101 860 l 93 851 l 93 769 l 0 769 l 0 871 q 14 904 0 888 l 68 958 q 101 972 82 972 q 135 958 121 972 l 189 904 m 186 871 q 178 892 186 883 l 122 947 q 101 956 114 956 q 81 947 89 956 l 25 892 q 17 871 17 883 l 17 786 l 76 786 l 76 858 l 101 883 l 126 858 l 126 786 l 186 786 l 186 871 z "},"Ë":{"ha":219,"x_min":0,"x_max":203,"o":"m 17 736 l 17 17 l 186 17 l 186 296 l 126 296 l 126 76 l 76 76 l 76 346 l 186 346 l 186 407 l 76 407 l 76 676 l 126 676 l 126 457 l 186 457 l 186 736 l 17 736 m 203 440 l 110 440 l 110 660 l 93 660 l 93 424 l 203 424 l 203 329 l 93 329 l 93 93 l 110 93 l 110 313 l 203 313 l 203 0 l 0 0 l 0 753 l 203 753 l 203 440 m 126 956 l 126 786 l 186 786 l 186 956 l 126 956 m 17 956 l 17 786 l 76 786 l 76 956 l 17 956 m 203 769 l 110 769 l 110 972 l 203 972 l 203 769 m 93 769 l 0 769 l 0 972 l 93 972 l 93 769 z "},"È":{"ha":219,"x_min":0,"x_max":203,"o":"m 17 736 l 17 17 l 186 17 l 186 296 l 126 296 l 126 76 l 76 76 l 76 346 l 186 346 l 186 407 l 76 407 l 76 676 l 126 676 l 126 457 l 186 457 l 186 736 l 17 736 m 203 440 l 110 440 l 110 660 l 93 660 l 93 424 l 203 424 l 203 329 l 93 329 l 93 93 l 110 93 l 110 313 l 203 313 l 203 0 l 0 0 l 0 753 l 203 753 l 203 440 m 93 972 l 93 863 l 203 863 l 203 769 l 47 769 q 14 783 28 769 q 0 815 0 796 l 0 972 l 93 972 m 76 846 l 76 956 l 17 956 l 17 815 q 26 794 17 803 q 47 786 35 786 l 186 786 l 186 846 l 76 846 z "},"À":{"ha":219,"x_min":0,"x_max":203,"o":"m 46 736 q 25 727 33 736 q 17 706 17 718 l 17 17 l 76 17 l 76 344 l 126 344 l 126 17 l 186 17 l 186 706 q 177 727 186 718 q 156 736 168 736 l 46 736 m 76 676 l 126 676 l 126 406 l 76 406 l 76 676 m 156 753 q 189 739 175 753 q 203 706 203 725 l 203 0 l 110 0 l 110 328 l 93 328 l 93 0 l 0 0 l 0 706 q 13 739 0 725 q 46 753 26 753 l 156 753 m 110 422 l 110 660 l 93 660 l 93 422 l 110 422 m 93 972 l 93 863 l 203 863 l 203 769 l 47 769 q 14 783 28 769 q 0 815 0 796 l 0 972 l 93 972 m 76 846 l 76 956 l 17 956 l 17 815 q 26 794 17 803 q 47 786 35 786 l 186 786 l 186 846 l 76 846 z "},"Ã":{"ha":219,"x_min":0,"x_max":203,"o":"m 46 736 q 25 727 33 736 q 17 706 17 718 l 17 17 l 76 17 l 76 344 l 126 344 l 126 17 l 186 17 l 186 706 q 177 727 186 718 q 156 736 168 736 l 46 736 m 76 676 l 126 676 l 126 406 l 76 406 l 76 676 m 156 753 q 189 739 175 753 q 203 706 203 725 l 203 0 l 110 0 l 110 328 l 93 328 l 93 0 l 0 0 l 0 706 q 13 739 0 725 q 46 753 26 753 l 156 753 m 110 422 l 110 660 l 93 660 l 93 422 l 110 422 m 110 972 l 203 972 l 203 871 q 189 838 203 851 q 156 824 175 824 l 93 824 l 93 769 l 0 769 l 0 871 q 13 903 0 890 q 46 917 26 917 l 110 917 l 110 972 m 126 900 l 46 900 q 26 892 35 900 q 17 871 17 883 l 17 786 l 76 786 l 76 840 l 156 840 q 177 849 168 840 q 186 871 186 858 l 186 956 l 126 956 l 126 900 z "},"ı":{"ha":110,"x_min":0,"x_max":93,"o":"m 93 0 l 0 0 l 0 753 l 93 753 l 93 0 m 76 736 l 17 736 l 17 17 l 76 17 l 76 736 z "},"í":{"ha":219,"x_min":0,"x_max":203,"o":"m 149 0 l 56 0 l 56 753 l 149 753 l 149 0 m 132 736 l 72 736 l 72 17 l 132 17 l 132 736 m 203 972 l 203 815 q 189 783 203 796 q 156 769 175 769 l 0 769 l 0 863 l 110 863 l 110 972 l 203 972 m 17 846 l 17 786 l 156 786 q 177 794 168 786 q 186 815 186 803 l 186 956 l 126 956 l 126 846 l 17 846 z "},"ì":{"ha":219,"x_min":0,"x_max":203,"o":"m 149 0 l 56 0 l 56 753 l 149 753 l 149 0 m 132 736 l 72 736 l 72 17 l 132 17 l 132 736 m 93 972 l 93 863 l 203 863 l 203 769 l 47 769 q 14 783 28 769 q 0 815 0 796 l 0 972 l 93 972 m 76 846 l 76 956 l 17 956 l 17 815 q 26 794 17 803 q 47 786 35 786 l 186 786 l 186 846 l 76 846 z "},"î":{"ha":219,"x_min":0,"x_max":203,"o":"m 149 0 l 56 0 l 56 753 l 149 753 l 149 0 m 132 736 l 72 736 l 72 17 l 132 17 l 132 736 m 189 904 q 203 871 203 890 l 203 769 l 110 769 l 110 851 l 101 860 l 93 851 l 93 769 l 0 769 l 0 871 q 14 904 0 888 l 68 958 q 101 972 82 972 q 135 958 121 972 l 189 904 m 186 871 q 178 892 186 883 l 122 947 q 101 956 114 956 q 81 947 89 956 l 25 892 q 17 871 17 883 l 17 786 l 76 786 l 76 858 l 101 883 l 126 858 l 126 786 l 186 786 l 186 871 z "},"ï":{"ha":219,"x_min":0,"x_max":203,"o":"m 149 0 l 56 0 l 56 753 l 149 753 l 149 0 m 132 736 l 72 736 l 72 17 l 132 17 l 132 736 m 126 956 l 126 786 l 186 786 l 186 956 l 126 956 m 17 956 l 17 786 l 76 786 l 76 956 l 17 956 m 203 769 l 110 769 l 110 972 l 203 972 l 203 769 m 93 769 l 0 769 l 0 972 l 93 972 l 93 769 z "},"Ö":{"ha":219,"x_min":0,"x_max":203,"o":"m 126 956 l 126 786 l 186 786 l 186 956 l 126 956 m 17 956 l 17 786 l 76 786 l 76 956 l 17 956 m 203 769 l 110 769 l 110 972 l 203 972 l 203 769 m 93 769 l 0 769 l 0 972 l 93 972 l 93 769 m 156 753 q 189 739 175 753 q 203 706 203 725 l 203 47 q 189 14 203 28 q 156 0 175 0 l 46 0 q 13 14 26 0 q 0 47 0 28 l 0 706 q 13 739 0 725 q 46 753 26 753 l 156 753 m 186 706 q 177 727 186 718 q 156 736 168 736 l 46 736 q 25 727 33 736 q 17 706 17 718 l 17 47 q 25 26 17 35 q 46 17 33 17 l 156 17 q 177 26 168 17 q 186 47 186 35 l 186 706 m 126 676 l 126 76 l 75 76 l 75 676 l 126 676 m 110 660 l 92 660 l 92 93 l 110 93 l 110 660 z "},"Õ":{"ha":219,"x_min":0,"x_max":203,"o":"m 110 972 l 203 972 l 203 871 q 189 838 203 851 q 156 824 175 824 l 93 824 l 93 769 l 0 769 l 0 871 q 13 903 0 890 q 46 917 26 917 l 110 917 l 110 972 m 126 900 l 46 900 q 26 892 35 900 q 17 871 17 883 l 17 786 l 76 786 l 76 840 l 156 840 q 177 849 168 840 q 186 871 186 858 l 186 956 l 126 956 l 126 900 m 156 753 q 189 739 175 753 q 203 706 203 725 l 203 47 q 189 14 203 28 q 156 0 175 0 l 46 0 q 13 14 26 0 q 0 47 0 28 l 0 706 q 13 739 0 725 q 46 753 26 753 l 156 753 m 186 706 q 177 727 186 718 q 156 736 168 736 l 46 736 q 25 727 33 736 q 17 706 17 718 l 17 47 q 25 26 17 35 q 46 17 33 17 l 156 17 q 177 26 168 17 q 186 47 186 35 l 186 706 m 126 676 l 126 76 l 75 76 l 75 676 l 126 676 m 110 660 l 92 660 l 92 93 l 110 93 l 110 660 z "},"Ó":{"ha":219,"x_min":0,"x_max":203,"o":"m 203 972 l 203 815 q 189 783 203 796 q 156 769 175 769 l 0 769 l 0 863 l 110 863 l 110 972 l 203 972 m 17 846 l 17 786 l 156 786 q 177 794 168 786 q 186 815 186 803 l 186 956 l 126 956 l 126 846 l 17 846 m 156 753 q 189 739 175 753 q 203 706 203 725 l 203 47 q 189 14 203 28 q 156 0 175 0 l 46 0 q 13 14 26 0 q 0 47 0 28 l 0 706 q 13 739 0 725 q 46 753 26 753 l 156 753 m 186 706 q 177 727 186 718 q 156 736 168 736 l 46 736 q 25 727 33 736 q 17 706 17 718 l 17 47 q 25 26 17 35 q 46 17 33 17 l 156 17 q 177 26 168 17 q 186 47 186 35 l 186 706 m 126 676 l 126 76 l 75 76 l 75 676 l 126 676 m 110 660 l 92 660 l 92 93 l 110 93 l 110 660 z "},"Ô":{"ha":219,"x_min":0,"x_max":203,"o":"m 189 904 q 203 871 203 890 l 203 769 l 110 769 l 110 851 l 101 860 l 93 851 l 93 769 l 0 769 l 0 871 q 14 904 0 888 l 68 958 q 101 972 82 972 q 135 958 121 972 l 189 904 m 186 871 q 178 892 186 883 l 122 947 q 101 956 114 956 q 81 947 89 956 l 25 892 q 17 871 17 883 l 17 786 l 76 786 l 76 858 l 101 883 l 126 858 l 126 786 l 186 786 l 186 871 m 156 753 q 189 739 175 753 q 203 706 203 725 l 203 47 q 189 14 203 28 q 156 0 175 0 l 46 0 q 13 14 26 0 q 0 47 0 28 l 0 706 q 13 739 0 725 q 46 753 26 753 l 156 753 m 186 706 q 177 727 186 718 q 156 736 168 736 l 46 736 q 25 727 33 736 q 17 706 17 718 l 17 47 q 25 26 17 35 q 46 17 33 17 l 156 17 q 177 26 168 17 q 186 47 186 35 l 186 706 m 126 676 l 126 76 l 75 76 l 75 676 l 126 676 m 110 660 l 92 660 l 92 93 l 110 93 l 110 660 z "},"Ò":{"ha":219,"x_min":0,"x_max":203,"o":"m 93 972 l 93 863 l 203 863 l 203 769 l 47 769 q 14 783 28 769 q 0 815 0 796 l 0 972 l 93 972 m 76 846 l 76 956 l 17 956 l 17 815 q 26 794 17 803 q 47 786 35 786 l 186 786 l 186 846 l 76 846 m 156 753 q 189 739 175 753 q 203 706 203 725 l 203 47 q 189 14 203 28 q 156 0 175 0 l 46 0 q 13 14 26 0 q 0 47 0 28 l 0 706 q 13 739 0 725 q 46 753 26 753 l 156 753 m 186 706 q 177 727 186 718 q 156 736 168 736 l 46 736 q 25 727 33 736 q 17 706 17 718 l 17 47 q 25 26 17 35 q 46 17 33 17 l 156 17 q 177 26 168 17 q 186 47 186 35 l 186 706 m 126 676 l 126 76 l 75 76 l 75 676 l 126 676 m 110 660 l 92 660 l 92 93 l 110 93 l 110 660 z "},"Ñ":{"ha":329,"x_min":0,"x_max":313,"o":"m 236 736 l 236 93 l 236 76 l 186 76 l 186 706 q 178 727 186 718 q 157 736 169 736 l 17 736 l 17 17 l 78 17 l 78 676 l 128 676 l 128 47 q 136 26 128 35 q 157 17 144 17 l 296 17 l 296 736 l 236 736 m 313 0 l 157 0 q 124 14 138 0 q 111 47 111 28 l 111 660 l 94 660 l 94 0 l 0 0 l 0 753 l 157 753 q 190 739 176 753 q 204 706 204 725 l 204 93 l 219 93 l 219 753 l 313 753 l 313 0 m 172 972 l 265 972 l 265 871 q 251 838 265 851 q 218 824 238 824 l 156 824 l 156 769 l 63 769 l 63 871 q 76 903 63 890 q 108 917 89 917 l 172 917 l 172 972 m 189 900 l 108 900 q 88 892 97 900 q 79 871 79 883 l 79 786 l 139 786 l 139 840 l 218 840 q 240 849 231 840 q 249 871 249 858 l 249 956 l 189 956 l 189 900 z "},"Ü":{"ha":219,"x_min":0,"x_max":203,"o":"m 126 956 l 126 786 l 186 786 l 186 956 l 126 956 m 17 956 l 17 786 l 76 786 l 76 956 l 17 956 m 203 769 l 110 769 l 110 972 l 203 972 l 203 769 m 93 769 l 0 769 l 0 972 l 93 972 l 93 769 m 93 93 l 110 93 l 110 753 l 203 753 l 203 47 q 190 14 203 28 q 157 0 176 0 l 47 0 q 14 14 28 0 q 0 47 0 28 l 0 753 l 93 753 l 93 93 m 76 76 l 76 736 l 17 736 l 17 47 q 26 26 17 35 q 47 17 35 17 l 157 17 q 178 26 169 17 q 186 47 186 35 l 186 736 l 126 736 l 126 76 l 76 76 z "},"Ú":{"ha":219,"x_min":0,"x_max":203,"o":"m 203 972 l 203 815 q 189 783 203 796 q 156 769 175 769 l 0 769 l 0 863 l 110 863 l 110 972 l 203 972 m 17 846 l 17 786 l 156 786 q 177 794 168 786 q 186 815 186 803 l 186 956 l 126 956 l 126 846 l 17 846 m 93 93 l 110 93 l 110 753 l 203 753 l 203 47 q 190 14 203 28 q 157 0 176 0 l 47 0 q 14 14 28 0 q 0 47 0 28 l 0 753 l 93 753 l 93 93 m 76 76 l 76 736 l 17 736 l 17 47 q 26 26 17 35 q 47 17 35 17 l 157 17 q 178 26 169 17 q 186 47 186 35 l 186 736 l 126 736 l 126 76 l 76 76 z "},"Û":{"ha":219,"x_min":0,"x_max":203,"o":"m 189 904 q 203 871 203 890 l 203 769 l 110 769 l 110 851 l 101 860 l 93 851 l 93 769 l 0 769 l 0 871 q 14 904 0 888 l 68 958 q 101 972 82 972 q 135 958 121 972 l 189 904 m 186 871 q 178 892 186 883 l 122 947 q 101 956 114 956 q 81 947 89 956 l 25 892 q 17 871 17 883 l 17 786 l 76 786 l 76 858 l 101 883 l 126 858 l 126 786 l 186 786 l 186 871 m 93 93 l 110 93 l 110 753 l 203 753 l 203 47 q 190 14 203 28 q 157 0 176 0 l 47 0 q 14 14 28 0 q 0 47 0 28 l 0 753 l 93 753 l 93 93 m 76 76 l 76 736 l 17 736 l 17 47 q 26 26 17 35 q 47 17 35 17 l 157 17 q 178 26 169 17 q 186 47 186 35 l 186 736 l 126 736 l 126 76 l 76 76 z "},"Ù":{"ha":219,"x_min":0,"x_max":203,"o":"m 93 972 l 93 863 l 203 863 l 203 769 l 47 769 q 14 783 28 769 q 0 815 0 796 l 0 972 l 93 972 m 76 846 l 76 956 l 17 956 l 17 815 q 26 794 17 803 q 47 786 35 786 l 186 786 l 186 846 l 76 846 m 93 93 l 110 93 l 110 753 l 203 753 l 203 47 q 190 14 203 28 q 157 0 176 0 l 47 0 q 14 14 28 0 q 0 47 0 28 l 0 753 l 93 753 l 93 93 m 76 76 l 76 736 l 17 736 l 17 47 q 26 26 17 35 q 47 17 35 17 l 157 17 q 178 26 169 17 q 186 47 186 35 l 186 736 l 126 736 l 126 76 l 76 76 z "},"Ÿ":{"ha":219,"x_min":0,"x_max":203,"o":"m 47 329 q 14 342 28 329 q 0 375 0 356 l 0 753 l 93 753 l 93 422 l 110 422 l 110 753 l 203 753 l 203 375 q 190 342 203 356 q 157 329 176 329 l 147 329 l 147 0 l 56 0 l 56 329 l 47 329 m 17 375 q 26 355 17 364 q 47 346 35 346 l 72 346 l 72 17 l 131 17 l 131 346 l 157 346 q 178 355 169 346 q 186 375 186 364 l 186 736 l 126 736 l 126 406 l 76 406 l 76 736 l 17 736 l 17 375 m 126 956 l 126 786 l 186 786 l 186 956 l 126 956 m 17 956 l 17 786 l 76 786 l 76 956 l 17 956 m 203 769 l 110 769 l 110 972 l 203 972 l 203 769 m 93 769 l 0 769 l 0 972 l 93 972 l 93 769 z "},"@":{"ha":329,"x_min":0,"x_max":313,"o":"m 47 846 q 26 837 35 846 q 17 817 17 828 l 17 157 q 26 135 17 144 q 47 126 35 126 l 296 126 l 296 186 l 76 186 l 76 786 l 236 786 l 236 736 l 157 736 q 135 727 144 736 q 126 706 126 718 l 126 267 q 135 245 126 254 q 157 236 144 236 l 296 236 l 296 817 q 287 837 296 828 q 265 846 278 846 l 47 846 m 186 676 l 236 676 l 236 296 l 186 296 l 186 676 m 265 863 q 299 849 285 863 q 313 817 313 836 l 313 219 l 157 219 q 124 233 138 219 q 110 267 110 247 l 110 706 q 124 739 110 725 q 157 753 138 753 l 219 753 l 219 769 l 93 769 l 93 203 l 313 203 l 313 110 l 47 110 q 14 124 28 110 q 0 157 0 138 l 0 817 q 14 849 0 836 q 47 863 28 863 l 265 863 m 219 313 l 219 660 l 203 660 l 203 313 l 219 313 z "},"„":{"ha":331,"x_min":0,"x_max":314,"o":"m 165 93 l 221 93 l 221 203 l 314 203 l 314 46 q 301 13 314 26 q 268 0 288 0 l 165 0 l 165 93 m 182 17 l 268 17 q 288 26 279 17 q 297 46 297 35 l 297 186 l 238 186 l 238 76 l 182 76 l 182 17 m 0 93 l 56 93 l 56 203 l 149 203 l 149 46 q 135 13 149 26 q 103 0 122 0 l 0 0 l 0 93 m 17 17 l 103 17 q 123 26 114 17 q 132 46 132 35 l 132 186 l 72 186 l 72 76 l 17 76 l 17 17 z "},"‚":{"ha":165,"x_min":0,"x_max":149,"o":"m 0 93 l 56 93 l 56 203 l 149 203 l 149 46 q 135 13 149 26 q 103 0 122 0 l 0 0 l 0 93 m 17 17 l 103 17 q 123 26 114 17 q 132 46 132 35 l 132 186 l 72 186 l 72 76 l 17 76 l 17 17 z "},"“":{"ha":331,"x_min":0,"x_max":314,"o":"m 314 879 l 258 879 l 258 769 l 165 769 l 165 926 q 178 959 165 946 q 211 972 192 972 l 314 972 l 314 879 m 297 956 l 211 956 q 191 947 200 956 q 182 926 182 938 l 182 786 l 242 786 l 242 896 l 297 896 l 297 956 m 149 879 l 93 879 l 93 769 l 0 769 l 0 926 q 13 959 0 946 q 46 972 26 972 l 149 972 l 149 879 m 132 956 l 46 956 q 26 947 35 956 q 17 926 17 938 l 17 786 l 76 786 l 76 896 l 132 896 l 132 956 z "},"”":{"ha":331,"x_min":0,"x_max":314,"o":"m 165 863 l 221 863 l 221 972 l 314 972 l 314 815 q 301 783 314 796 q 268 770 288 770 l 165 770 l 165 863 m 182 786 l 268 786 q 288 795 279 786 q 297 815 297 804 l 297 956 l 238 956 l 238 846 l 182 846 l 182 786 m 0 863 l 56 863 l 56 972 l 149 972 l 149 815 q 135 783 149 796 q 103 770 122 770 l 0 770 l 0 863 m 17 786 l 103 786 q 123 795 114 786 q 132 815 132 804 l 132 956 l 72 956 l 72 846 l 17 846 l 17 786 z "},"‘":{"ha":165,"x_min":0,"x_max":149,"o":"m 149 879 l 93 879 l 93 769 l 0 769 l 0 926 q 13 959 0 946 q 46 972 26 972 l 149 972 l 149 879 m 132 956 l 46 956 q 26 947 35 956 q 17 926 17 938 l 17 786 l 76 786 l 76 896 l 132 896 l 132 956 z "},"’":{"ha":165,"x_min":0,"x_max":149,"o":"m 0 863 l 56 863 l 56 972 l 149 972 l 149 815 q 135 783 149 796 q 103 770 122 770 l 0 770 l 0 863 m 17 786 l 103 786 q 123 795 114 786 q 132 815 132 804 l 132 956 l 72 956 l 72 846 l 17 846 l 17 786 z "},"…":{"ha":329,"x_min":0,"x_max":313,"o":"m 126 186 l 126 17 l 186 17 l 186 186 l 126 186 m 203 0 l 110 0 l 110 203 l 203 203 l 203 0 m 17 186 l 17 17 l 76 17 l 76 186 l 17 186 m 93 0 l 0 0 l 0 203 l 93 203 l 93 0 m 236 186 l 236 17 l 296 17 l 296 186 l 236 186 m 313 0 l 219 0 l 219 203 l 313 203 l 313 0 z "},"¸":{"ha":110,"x_min":0,"x_max":149,"o":"m 56 -126 l 56 -110 l 46 -110 q 13 -97 26 -110 q 0 -64 0 -83 l 0 93 l 93 93 l 93 -17 l 101 -17 q 135 -31 121 -17 q 149 -64 149 -44 l 149 -174 q 135 -206 149 -193 q 101 -219 121 -219 l 0 -219 l 0 -126 l 56 -126 m 72 -93 l 72 -143 l 17 -143 l 17 -203 l 101 -203 q 123 -194 114 -203 q 132 -174 132 -186 l 132 -64 q 123 -42 132 -51 q 101 -33 114 -33 l 76 -33 l 76 76 l 17 76 l 17 -64 q 26 -84 17 -75 q 46 -93 35 -93 l 72 -93 z "},"Ç":{"ha":219,"x_min":0,"x_max":203,"o":"m 0 925 q 13 958 0 944 q 46 972 26 972 l 157 972 q 190 958 176 972 q 203 925 203 944 l 203 494 l 110 494 l 110 879 l 93 879 l 93 93 l 110 93 l 110 478 l 203 478 l 203 46 q 190 13 203 26 q 157 0 176 0 l 149 0 l 149 -17 l 157 -17 q 190 -31 176 -17 q 203 -64 203 -44 l 203 -174 q 190 -206 203 -193 q 157 -219 176 -219 l 56 -219 l 56 -126 l 110 -126 l 110 -110 l 101 -110 q 69 -97 82 -110 q 56 -64 56 -83 l 56 0 l 46 0 q 13 13 26 0 q 0 46 0 26 l 0 925 m 186 925 q 177 947 186 938 q 157 956 168 956 l 46 956 q 26 947 35 956 q 17 925 17 938 l 17 46 q 26 26 17 35 q 46 17 35 17 l 72 17 l 72 -64 q 81 -85 72 -76 q 101 -93 89 -93 l 126 -93 l 126 -143 l 72 -143 l 72 -203 l 157 -203 q 177 -194 168 -203 q 186 -174 186 -186 l 186 -64 q 177 -42 186 -51 q 157 -33 168 -33 l 132 -33 l 132 17 l 157 17 q 177 26 168 17 q 186 46 186 35 l 186 461 l 126 461 l 126 76 l 76 76 l 76 896 l 126 896 l 126 511 l 186 511 l 186 925 z "},"ç":{"ha":219,"x_min":0,"x_max":203,"o":"m 0 706 q 13 739 0 725 q 46 753 26 753 l 157 753 q 190 739 176 753 q 203 706 203 725 l 203 385 l 110 385 l 110 660 l 93 660 l 93 93 l 110 93 l 110 368 l 203 368 l 203 46 q 190 13 203 26 q 157 0 176 0 l 149 0 l 149 -17 l 157 -17 q 190 -31 176 -17 q 203 -64 203 -44 l 203 -174 q 190 -206 203 -193 q 157 -219 176 -219 l 56 -219 l 56 -126 l 110 -126 l 110 -110 l 101 -110 q 69 -97 82 -110 q 56 -64 56 -83 l 56 0 l 46 0 q 13 13 26 0 q 0 46 0 26 l 0 706 m 186 706 q 177 727 186 718 q 157 736 168 736 l 46 736 q 26 727 35 736 q 17 706 17 718 l 17 46 q 26 26 17 35 q 46 17 35 17 l 72 17 l 72 -64 q 81 -85 72 -76 q 101 -93 89 -93 l 126 -93 l 126 -143 l 72 -143 l 72 -203 l 157 -203 q 177 -194 168 -203 q 186 -174 186 -186 l 186 -64 q 177 -42 186 -51 q 157 -33 168 -33 l 132 -33 l 132 17 l 157 17 q 177 26 168 17 q 186 46 186 35 l 186 351 l 126 351 l 126 76 l 76 76 l 76 676 l 126 676 l 126 401 l 186 401 l 186 706 z "},"ß":{"ha":275,"x_min":0,"x_max":258,"o":"m 93 494 l 93 478 l 211 478 q 244 464 231 478 q 258 431 258 450 l 258 46 q 244 13 258 26 q 211 0 231 0 l 110 0 l 110 93 l 165 93 l 165 385 l 93 385 l 93 0 l 0 0 l 0 925 q 13 958 0 944 q 46 972 26 972 l 157 972 q 190 958 176 972 q 203 925 203 944 l 203 542 q 190 508 203 522 q 157 494 176 494 l 93 494 m 76 461 l 76 511 l 157 511 q 177 520 168 511 q 186 542 186 529 l 186 925 q 177 947 186 938 q 157 956 168 956 l 46 956 q 26 947 35 956 q 17 925 17 938 l 17 17 l 76 17 l 76 401 l 182 401 l 182 76 l 126 76 l 126 17 l 211 17 q 233 26 224 17 q 242 46 242 35 l 242 431 q 233 452 242 443 q 211 461 224 461 l 76 461 m 76 571 l 76 896 l 126 896 l 126 571 l 76 571 m 93 588 l 110 588 l 110 879 l 93 879 l 93 588 z "},"Ø":{"ha":329,"x_min":0,"x_max":313,"o":"m 76 186 l 76 786 l 126 786 l 126 186 l 76 186 m 93 203 l 110 203 l 110 769 l 93 769 l 93 203 m 186 186 l 186 786 l 236 786 l 236 186 l 186 186 m 203 203 l 219 203 l 219 769 l 203 769 l 203 203 m 0 815 q 13 849 0 835 q 46 863 26 863 l 110 863 l 110 972 l 203 972 l 203 863 l 267 863 q 299 849 286 863 q 313 815 313 835 l 313 157 q 299 124 313 138 q 267 110 286 110 l 203 110 l 203 0 l 110 0 l 110 110 l 46 110 q 13 124 26 110 q 0 157 0 138 l 0 815 m 17 157 q 26 135 17 144 q 46 126 35 126 l 126 126 l 126 17 l 186 17 l 186 126 l 267 126 q 288 135 279 126 q 296 157 296 144 l 296 815 q 288 837 296 828 q 267 846 279 846 l 186 846 l 186 956 l 126 956 l 126 846 l 46 846 q 26 837 35 846 q 17 815 17 828 l 17 157 z "},"ø":{"ha":329,"x_min":0,"x_max":313,"o":"m 76 76 l 76 676 l 126 676 l 126 76 l 76 76 m 93 93 l 110 93 l 110 660 l 93 660 l 93 93 m 186 76 l 186 676 l 236 676 l 236 76 l 186 76 m 203 93 l 219 93 l 219 660 l 203 660 l 203 93 m 0 706 q 13 739 0 725 q 46 753 26 753 l 110 753 l 110 863 l 203 863 l 203 753 l 267 753 q 299 739 286 753 q 313 706 313 725 l 313 47 q 299 14 313 28 q 267 0 286 0 l 203 0 l 203 -110 l 110 -110 l 110 0 l 46 0 q 13 14 26 0 q 0 47 0 28 l 0 706 m 17 47 q 26 26 17 35 q 46 17 35 17 l 126 17 l 126 -93 l 186 -93 l 186 17 l 267 17 q 288 26 279 17 q 296 47 296 35 l 296 706 q 288 727 296 718 q 267 736 279 736 l 186 736 l 186 846 l 126 846 l 126 736 l 46 736 q 26 727 35 736 q 17 706 17 718 l 17 47 z "},":":{"ha":110,"x_min":0,"x_max":93,"o":"m 17 297 l 17 128 l 75 128 l 75 297 l 17 297 m 93 111 l 0 111 l 0 314 l 93 314 l 93 111 m 17 626 l 17 457 l 76 457 l 76 626 l 17 626 m 93 440 l 0 440 l 0 643 l 93 643 l 93 440 z "},";":{"ha":165,"x_min":0,"x_max":149,"o":"m 72 296 l 72 76 l 17 76 l 17 17 l 101 17 q 122 25 114 17 q 131 46 131 33 l 131 296 l 72 296 m 149 46 q 135 13 149 26 q 103 0 122 0 l 0 0 l 0 93 l 56 93 l 56 313 l 149 313 l 149 46 m 72 625 l 72 456 l 131 456 l 131 625 l 72 625 m 149 439 l 56 439 l 56 642 l 149 642 l 149 439 z "},",":{"ha":110,"x_min":-54,"x_max":93,"o":"m 17 188 l 17 -33 l -37 -33 l -37 -93 l 47 -93 q 68 -84 60 -93 q 76 -62 76 -75 l 76 188 l 17 188 m 93 -62 q 80 -96 93 -82 q 47 -110 67 -110 l -54 -110 l -54 -17 l 0 -17 l 0 204 l 93 204 l 93 -62 z "},"+":{"ha":329,"x_min":0,"x_max":313,"o":"m 126 517 l 126 408 l 17 408 l 17 347 l 126 347 l 126 238 l 186 238 l 186 347 l 296 347 l 296 408 l 186 408 l 186 517 l 126 517 m 203 424 l 313 424 l 313 331 l 203 331 l 203 221 l 110 221 l 110 331 l 0 331 l 0 424 l 110 424 l 110 533 l 203 533 l 203 424 z "},"=":{"ha":275,"x_min":0,"x_max":258,"o":"m 17 463 l 17 403 l 242 403 l 242 463 l 17 463 m 17 353 l 17 292 l 242 292 l 242 353 l 17 353 m 258 386 l 0 386 l 0 478 l 258 478 l 258 386 m 258 275 l 0 275 l 0 369 l 258 369 l 258 275 z "},"£":{"ha":329,"x_min":0,"x_max":313,"o":"m 110 203 l 110 440 l 0 440 l 0 533 l 110 533 l 110 981 q 124 1014 110 1000 q 157 1028 138 1028 l 267 1028 q 299 1014 286 1028 q 313 981 313 1000 l 313 550 l 219 550 l 219 935 l 203 935 l 203 533 l 313 533 l 313 440 l 203 440 l 203 157 q 190 124 203 138 q 157 110 176 110 l 93 110 l 93 93 l 313 93 l 313 0 l 0 0 l 0 157 q 13 190 0 176 q 46 203 26 203 l 110 203 m 126 457 l 126 186 l 46 186 q 26 178 35 186 q 17 157 17 169 l 17 17 l 296 17 l 296 76 l 76 76 l 76 126 l 157 126 q 177 135 168 126 q 186 157 186 144 l 186 457 l 296 457 l 296 517 l 186 517 l 186 951 l 236 951 l 236 567 l 296 567 l 296 981 q 288 1002 296 993 q 267 1011 279 1011 l 157 1011 q 135 1002 144 1011 q 126 981 126 993 l 126 517 l 17 517 l 17 457 l 126 457 z "},"§":{"ha":219,"x_min":0,"x_max":203,"o":"m 76 406 l 76 567 l 126 567 l 126 406 l 76 406 m 93 422 l 110 422 l 110 550 l 93 550 l 93 422 m 0 925 q 14 958 0 944 q 47 972 28 972 l 203 972 l 203 660 l 110 660 l 110 879 l 93 879 l 93 643 l 157 643 q 190 629 176 643 q 203 596 203 615 l 203 46 q 190 13 203 26 q 157 0 176 0 l 0 0 l 0 313 l 93 313 l 93 93 l 110 93 l 110 329 l 47 329 q 14 343 28 329 q 0 376 0 357 l 0 925 m 186 956 l 47 956 q 26 947 35 956 q 17 925 17 938 l 17 376 q 26 355 17 364 q 47 346 35 346 l 126 346 l 126 76 l 76 76 l 76 296 l 17 296 l 17 17 l 157 17 q 178 26 169 17 q 186 46 186 35 l 186 596 q 178 617 186 608 q 157 626 169 626 l 76 626 l 76 896 l 126 896 l 126 676 l 186 676 l 186 956 z "},"•":{"ha":110,"x_min":0,"x_max":93,"o":"m 17 461 l 17 292 l 76 292 l 76 461 l 17 461 m 93 275 l 0 275 l 0 478 l 93 478 l 93 275 z "},"~":{"ha":275,"x_min":0,"x_max":258,"o":"m 165 478 l 258 478 l 258 376 q 244 343 258 357 q 211 329 231 329 l 93 329 l 93 275 l 0 275 l 0 376 q 13 409 0 396 q 46 422 26 422 l 165 422 l 165 478 m 182 406 l 46 406 q 26 397 35 406 q 17 376 17 389 l 17 292 l 76 292 l 76 346 l 211 346 q 233 355 224 346 q 242 376 242 364 l 242 461 l 182 461 l 182 406 z "},"°":{"ha":219,"x_min":0,"x_max":203,"o":"m 47 956 q 26 947 35 956 q 17 925 17 938 l 17 596 q 26 575 17 583 q 47 567 35 567 l 157 567 q 178 575 169 567 q 186 596 186 583 l 186 925 q 178 947 186 938 q 157 956 169 956 l 47 956 m 76 894 l 126 894 l 126 625 l 76 625 l 76 894 m 157 972 q 190 958 176 972 q 203 925 203 944 l 203 596 q 190 563 203 576 q 157 550 176 550 l 47 550 q 14 563 28 550 q 0 596 0 576 l 0 925 q 14 958 0 944 q 47 972 28 972 l 157 972 m 110 642 l 110 878 l 93 878 l 93 642 l 110 642 z "},"#":{"ha":329,"x_min":0,"x_max":313,"o":"m 182 956 l 182 571 l 131 571 l 131 956 l 72 956 l 72 571 l 17 571 l 17 511 l 72 511 l 72 461 l 17 461 l 17 401 l 72 401 l 72 17 l 131 17 l 131 401 l 182 401 l 182 17 l 242 17 l 242 401 l 296 401 l 296 461 l 242 461 l 242 511 l 296 511 l 296 571 l 242 571 l 242 956 l 182 956 m 131 511 l 182 511 l 182 461 l 131 461 l 131 511 m 258 588 l 313 588 l 313 494 l 258 494 l 258 478 l 313 478 l 313 385 l 258 385 l 258 0 l 165 0 l 165 385 l 147 385 l 147 0 l 56 0 l 56 385 l 0 385 l 0 478 l 56 478 l 56 494 l 0 494 l 0 588 l 56 588 l 56 972 l 147 972 l 147 588 l 165 588 l 165 972 l 258 972 l 258 588 m 165 478 l 165 494 l 147 494 l 147 478 l 165 478 z "},"^":{"ha":219,"x_min":0,"x_max":203,"o":"m 189 904 q 203 871 203 890 l 203 769 l 110 769 l 110 851 l 101 860 l 93 851 l 93 769 l 0 769 l 0 871 q 14 904 0 888 l 68 958 q 101 972 82 972 q 135 958 121 972 l 189 904 m 186 871 q 178 892 186 883 l 122 947 q 101 956 114 956 q 81 947 89 956 l 25 892 q 17 871 17 883 l 17 786 l 76 786 l 76 858 l 101 883 l 126 858 l 126 786 l 186 786 l 186 871 z "},"ˇ":{"ha":219,"x_min":0,"x_max":203,"o":"m 135 783 q 101 769 121 769 q 68 783 82 769 l 14 838 q 0 871 0 854 l 0 972 l 93 972 l 93 890 l 101 882 l 110 890 l 110 972 l 203 972 l 203 871 q 189 838 203 851 l 135 783 m 186 956 l 126 956 l 126 883 l 101 858 l 76 883 l 76 956 l 17 956 l 17 871 q 25 850 17 858 l 81 794 q 101 786 89 786 q 122 794 114 786 l 178 850 q 186 871 186 858 l 186 956 z "},"˝":{"ha":219,"x_min":0,"x_max":203,"o":"m 126 956 l 126 786 l 186 786 l 186 956 l 126 956 m 17 956 l 17 786 l 76 786 l 76 956 l 17 956 m 203 769 l 110 769 l 110 972 l 203 972 l 203 769 m 93 769 l 0 769 l 0 972 l 93 972 l 93 769 z "},"˘":{"ha":219,"x_min":0,"x_max":203,"o":"m 46 768 q 13 782 26 768 q 0 815 0 796 l 0 972 l 93 972 l 93 861 l 110 861 l 110 972 l 203 972 l 203 815 q 190 782 203 796 q 157 768 176 768 l 46 768 m 17 815 q 26 794 17 803 q 46 785 35 785 l 157 785 q 177 794 168 785 q 186 815 186 803 l 186 956 l 126 956 l 126 844 l 76 844 l 76 956 l 17 956 l 17 815 z "},"č":{"ha":219,"x_min":0,"x_max":203,"o":"m 0 706 q 14 739 0 725 q 47 753 28 753 l 157 753 q 190 739 176 753 q 203 706 203 725 l 203 385 l 110 385 l 110 660 l 93 660 l 93 93 l 110 93 l 110 368 l 203 368 l 203 47 q 190 14 203 28 q 157 0 176 0 l 47 0 q 14 14 28 0 q 0 47 0 28 l 0 706 m 17 47 q 26 26 17 35 q 47 17 35 17 l 157 17 q 178 26 169 17 q 186 47 186 35 l 186 351 l 126 351 l 126 76 l 76 76 l 76 676 l 126 676 l 126 401 l 186 401 l 186 706 q 178 727 186 718 q 157 736 169 736 l 47 736 q 26 727 35 736 q 17 706 17 718 l 17 47 m 135 783 q 101 769 121 769 q 68 783 82 769 l 14 838 q 0 871 0 854 l 0 972 l 93 972 l 93 890 l 101 882 l 110 890 l 110 972 l 203 972 l 203 871 q 189 838 203 851 l 135 783 m 186 956 l 126 956 l 126 883 l 101 858 l 76 883 l 76 956 l 17 956 l 17 871 q 25 850 17 858 l 81 794 q 101 786 89 786 q 122 794 114 786 l 178 850 q 186 871 186 858 l 186 956 z "},"ć":{"ha":219,"x_min":0,"x_max":203,"o":"m 0 706 q 14 739 0 725 q 47 753 28 753 l 157 753 q 190 739 176 753 q 203 706 203 725 l 203 385 l 110 385 l 110 660 l 93 660 l 93 93 l 110 93 l 110 368 l 203 368 l 203 47 q 190 14 203 28 q 157 0 176 0 l 47 0 q 14 14 28 0 q 0 47 0 28 l 0 706 m 17 47 q 26 26 17 35 q 47 17 35 17 l 157 17 q 178 26 169 17 q 186 47 186 35 l 186 351 l 126 351 l 126 76 l 76 76 l 76 676 l 126 676 l 126 401 l 186 401 l 186 706 q 178 727 186 718 q 157 736 169 736 l 47 736 q 26 727 35 736 q 17 706 17 718 l 17 47 m 203 972 l 203 815 q 189 783 203 796 q 156 769 175 769 l 0 769 l 0 863 l 110 863 l 110 972 l 203 972 m 17 846 l 17 786 l 156 786 q 177 794 168 786 q 186 815 186 803 l 186 956 l 126 956 l 126 846 l 17 846 z "},"ź":{"ha":219,"x_min":0,"x_max":203,"o":"m 110 450 l 110 660 l 93 660 l 93 494 l 0 494 l 0 753 l 203 753 l 203 431 q 190 399 203 411 l 93 301 l 93 93 l 110 93 l 110 258 l 203 258 l 203 0 l 0 0 l 0 321 q 14 354 0 340 l 110 450 m 126 676 l 126 443 l 26 343 q 17 321 17 333 l 17 17 l 188 17 l 188 242 l 126 242 l 126 76 l 76 76 l 76 308 l 178 410 q 188 431 188 419 l 188 736 l 17 736 l 17 511 l 76 511 l 76 676 l 126 676 m 203 972 l 203 815 q 189 783 203 796 q 156 769 175 769 l 0 769 l 0 863 l 110 863 l 110 972 l 203 972 m 17 846 l 17 786 l 156 786 q 177 794 168 786 q 186 815 186 803 l 186 956 l 126 956 l 126 846 l 17 846 z "},"ě":{"ha":219,"x_min":0,"x_max":203,"o":"m 76 406 l 76 676 l 126 676 l 126 406 l 76 406 m 93 422 l 110 422 l 110 660 l 93 660 l 93 422 m 0 706 q 14 739 0 725 q 47 753 28 753 l 157 753 q 190 739 176 753 q 203 706 203 725 l 203 329 l 93 329 l 93 93 l 110 93 l 110 313 l 203 313 l 203 47 q 190 14 203 28 q 157 0 176 0 l 47 0 q 14 14 28 0 q 0 47 0 28 l 0 706 m 17 47 q 26 26 17 35 q 47 17 35 17 l 157 17 q 178 26 169 17 q 186 47 186 35 l 186 296 l 126 296 l 126 76 l 76 76 l 76 346 l 186 346 l 186 706 q 178 727 186 718 q 157 736 169 736 l 47 736 q 26 727 35 736 q 17 706 17 718 l 17 47 m 135 783 q 101 769 121 769 q 68 783 82 769 l 14 838 q 0 871 0 854 l 0 972 l 93 972 l 93 890 l 101 882 l 110 890 l 110 972 l 203 972 l 203 871 q 189 838 203 851 l 135 783 m 186 956 l 126 956 l 126 883 l 101 858 l 76 883 l 76 956 l 17 956 l 17 871 q 25 850 17 858 l 81 794 q 101 786 89 786 q 122 794 114 786 l 178 850 q 186 871 186 858 l 186 956 z "},"Ě":{"ha":219,"x_min":0,"x_max":203,"o":"m 17 736 l 17 17 l 186 17 l 186 296 l 126 296 l 126 76 l 76 76 l 76 346 l 186 346 l 186 407 l 76 407 l 76 676 l 126 676 l 126 457 l 186 457 l 186 736 l 17 736 m 203 440 l 110 440 l 110 660 l 93 660 l 93 424 l 203 424 l 203 329 l 93 329 l 93 93 l 110 93 l 110 313 l 203 313 l 203 0 l 0 0 l 0 753 l 203 753 l 203 440 m 135 783 q 101 769 121 769 q 68 783 82 769 l 14 838 q 0 871 0 854 l 0 972 l 93 972 l 93 890 l 101 882 l 110 890 l 110 972 l 203 972 l 203 871 q 189 838 203 851 l 135 783 m 186 956 l 126 956 l 126 883 l 101 858 l 76 883 l 76 956 l 17 956 l 17 871 q 25 850 17 858 l 81 794 q 101 786 89 786 q 122 794 114 786 l 178 850 q 186 871 186 858 l 186 956 z "},"ő":{"ha":219,"x_min":0,"x_max":203,"o":"m 156 753 q 189 739 175 753 q 203 706 203 725 l 203 47 q 189 14 203 28 q 156 0 175 0 l 46 0 q 13 14 26 0 q 0 47 0 28 l 0 706 q 13 739 0 725 q 46 753 26 753 l 156 753 m 186 706 q 177 727 186 718 q 156 736 168 736 l 46 736 q 25 727 33 736 q 17 706 17 718 l 17 47 q 25 26 17 35 q 46 17 33 17 l 156 17 q 177 26 168 17 q 186 47 186 35 l 186 706 m 126 676 l 126 76 l 75 76 l 75 676 l 126 676 m 110 660 l 92 660 l 92 93 l 110 93 l 110 660 m 126 956 l 126 786 l 186 786 l 186 956 l 126 956 m 17 956 l 17 786 l 76 786 l 76 956 l 17 956 m 203 769 l 110 769 l 110 972 l 203 972 l 203 769 m 93 769 l 0 769 l 0 972 l 93 972 l 93 769 z "},"ń":{"ha":219,"x_min":0,"x_max":203,"o":"m 157 753 q 190 739 176 753 q 203 706 203 725 l 203 0 l 110 0 l 110 660 l 93 660 l 93 0 l 0 0 l 0 753 l 157 753 m 186 706 q 178 727 186 718 q 157 736 169 736 l 17 736 l 17 17 l 76 17 l 76 676 l 126 676 l 126 17 l 186 17 l 186 706 m 203 972 l 203 815 q 189 783 203 796 q 156 769 175 769 l 0 769 l 0 863 l 110 863 l 110 972 l 203 972 m 17 846 l 17 786 l 156 786 q 177 794 168 786 q 186 815 186 803 l 186 956 l 126 956 l 126 846 l 17 846 z "},"ř":{"ha":219,"x_min":0,"x_max":203,"o":"m 157 753 q 190 739 176 753 q 203 706 203 725 l 203 439 l 110 439 l 110 660 l 93 660 l 93 0 l 0 0 l 0 753 l 157 753 m 186 706 q 178 727 186 718 q 157 736 169 736 l 17 736 l 17 17 l 76 17 l 76 676 l 126 676 l 126 456 l 186 456 l 186 706 m 135 783 q 101 769 121 769 q 68 783 82 769 l 14 838 q 0 871 0 854 l 0 972 l 93 972 l 93 890 l 101 882 l 110 890 l 110 972 l 203 972 l 203 871 q 189 838 203 851 l 135 783 m 186 956 l 126 956 l 126 883 l 101 858 l 76 883 l 76 956 l 17 956 l 17 871 q 25 850 17 858 l 81 794 q 101 786 89 786 q 122 794 114 786 l 178 850 q 186 871 186 858 l 186 956 z "},"š":{"ha":219,"x_min":0,"x_max":203,"o":"m 46 0 q 13 14 26 0 q 0 47 0 28 l 0 313 l 93 313 l 93 93 l 110 93 l 110 329 l 46 329 q 13 343 26 329 q 0 376 0 357 l 0 706 q 13 739 0 725 q 46 753 26 753 l 157 753 q 190 739 176 753 q 203 706 203 725 l 203 439 l 110 439 l 110 660 l 93 660 l 93 422 l 157 422 q 190 409 176 422 q 203 376 203 396 l 203 47 q 190 14 203 28 q 157 0 176 0 l 46 0 m 17 47 q 26 26 17 35 q 46 17 35 17 l 157 17 q 177 26 168 17 q 186 47 186 35 l 186 376 q 177 397 186 389 q 157 406 168 406 l 76 406 l 76 676 l 126 676 l 126 456 l 186 456 l 186 706 q 177 727 186 718 q 157 736 168 736 l 46 736 q 26 727 35 736 q 17 706 17 718 l 17 376 q 26 355 17 364 q 46 346 35 346 l 126 346 l 126 76 l 76 76 l 76 296 l 17 296 l 17 47 m 135 783 q 101 769 121 769 q 68 783 82 769 l 14 838 q 0 871 0 854 l 0 972 l 93 972 l 93 890 l 101 882 l 110 890 l 110 972 l 203 972 l 203 871 q 189 838 203 851 l 135 783 m 186 956 l 126 956 l 126 883 l 101 858 l 76 883 l 76 956 l 17 956 l 17 871 q 25 850 17 858 l 81 794 q 101 786 89 786 q 122 794 114 786 l 178 850 q 186 871 186 858 l 186 956 z "},"ś":{"ha":219,"x_min":0,"x_max":203,"o":"m 46 0 q 13 14 26 0 q 0 47 0 28 l 0 313 l 93 313 l 93 93 l 110 93 l 110 329 l 46 329 q 13 343 26 329 q 0 376 0 357 l 0 706 q 13 739 0 725 q 46 753 26 753 l 157 753 q 190 739 176 753 q 203 706 203 725 l 203 439 l 110 439 l 110 660 l 93 660 l 93 422 l 157 422 q 190 409 176 422 q 203 376 203 396 l 203 47 q 190 14 203 28 q 157 0 176 0 l 46 0 m 17 47 q 26 26 17 35 q 46 17 35 17 l 157 17 q 177 26 168 17 q 186 47 186 35 l 186 376 q 177 397 186 389 q 157 406 168 406 l 76 406 l 76 676 l 126 676 l 126 456 l 186 456 l 186 706 q 177 727 186 718 q 157 736 168 736 l 46 736 q 26 727 35 736 q 17 706 17 718 l 17 376 q 26 355 17 364 q 46 346 35 346 l 126 346 l 126 76 l 76 76 l 76 296 l 17 296 l 17 47 m 203 972 l 203 815 q 189 783 203 796 q 156 769 175 769 l 0 769 l 0 863 l 110 863 l 110 972 l 203 972 m 17 846 l 17 786 l 156 786 q 177 794 168 786 q 186 815 186 803 l 186 956 l 126 956 l 126 846 l 17 846 z "},"ů":{"ha":219,"x_min":0,"x_max":203,"o":"m 93 93 l 110 93 l 110 753 l 203 753 l 203 47 q 190 14 203 28 q 157 0 176 0 l 47 0 q 14 14 28 0 q 0 47 0 28 l 0 753 l 93 753 l 93 93 m 76 76 l 76 736 l 17 736 l 17 47 q 26 26 17 35 q 47 17 35 17 l 157 17 q 178 26 169 17 q 186 47 186 35 l 186 736 l 126 736 l 126 76 l 76 76 m 126 896 l 126 846 l 76 846 l 76 896 l 126 896 m 110 879 l 93 879 l 93 863 l 110 863 l 110 879 m 156 972 q 189 958 175 972 q 203 925 203 944 l 203 815 q 189 783 203 796 q 156 769 175 769 l 46 769 q 13 783 26 769 q 0 815 0 796 l 0 925 q 13 958 0 944 q 46 972 26 972 l 156 972 m 186 925 q 177 947 186 938 q 156 956 168 956 l 46 956 q 25 947 33 956 q 17 925 17 938 l 17 815 q 25 794 17 803 q 46 786 33 786 l 156 786 q 177 794 168 786 q 186 815 186 803 l 186 925 z "},"ű":{"ha":219,"x_min":0,"x_max":203,"o":"m 93 93 l 110 93 l 110 753 l 203 753 l 203 47 q 190 14 203 28 q 157 0 176 0 l 47 0 q 14 14 28 0 q 0 47 0 28 l 0 753 l 93 753 l 93 93 m 76 76 l 76 736 l 17 736 l 17 47 q 26 26 17 35 q 47 17 35 17 l 157 17 q 178 26 169 17 q 186 47 186 35 l 186 736 l 126 736 l 126 76 l 76 76 m 126 956 l 126 786 l 186 786 l 186 956 l 126 956 m 17 956 l 17 786 l 76 786 l 76 956 l 17 956 m 203 769 l 110 769 l 110 972 l 203 972 l 203 769 m 93 769 l 0 769 l 0 972 l 93 972 l 93 769 z "},"ý":{"ha":219,"x_min":0,"x_max":203,"o":"m 93 93 l 110 93 l 110 753 l 203 753 l 203 -174 q 190 -206 203 -193 q 157 -219 176 -219 l 46 -219 q 13 -206 26 -219 q 0 -174 0 -193 l 0 -17 l 93 -17 l 93 -126 l 110 -126 l 110 0 l 46 0 q 13 14 26 0 q 0 47 0 28 l 0 753 l 93 753 l 93 93 m 76 76 l 76 736 l 17 736 l 17 47 q 26 26 17 35 q 46 17 35 17 l 126 17 l 126 -143 l 76 -143 l 76 -33 l 17 -33 l 17 -174 q 26 -194 17 -186 q 46 -203 35 -203 l 157 -203 q 177 -194 168 -203 q 186 -174 186 -186 l 186 736 l 126 736 l 126 76 l 76 76 m 203 972 l 203 815 q 189 783 203 796 q 156 769 175 769 l 0 769 l 0 863 l 110 863 l 110 972 l 203 972 m 17 846 l 17 786 l 156 786 q 177 794 168 786 q 186 815 186 803 l 186 956 l 126 956 l 126 846 l 17 846 z "},"ž":{"ha":219,"x_min":0,"x_max":203,"o":"m 110 450 l 110 660 l 93 660 l 93 494 l 0 494 l 0 753 l 203 753 l 203 431 q 190 399 203 411 l 93 301 l 93 93 l 110 93 l 110 258 l 203 258 l 203 0 l 0 0 l 0 321 q 14 354 0 340 l 110 450 m 126 676 l 126 443 l 26 343 q 17 321 17 333 l 17 17 l 188 17 l 188 242 l 126 242 l 126 76 l 76 76 l 76 308 l 178 410 q 188 431 188 419 l 188 736 l 17 736 l 17 511 l 76 511 l 76 676 l 126 676 m 135 783 q 101 769 121 769 q 68 783 82 769 l 14 838 q 0 871 0 854 l 0 972 l 93 972 l 93 890 l 101 882 l 110 890 l 110 972 l 203 972 l 203 871 q 189 838 203 851 l 135 783 m 186 956 l 126 956 l 126 883 l 101 858 l 76 883 l 76 956 l 17 956 l 17 871 q 25 850 17 858 l 81 794 q 101 786 89 786 q 122 794 114 786 l 178 850 q 186 871 186 858 l 186 956 z "},"ŕ":{"ha":219,"x_min":0,"x_max":203,"o":"m 157 753 q 190 739 176 753 q 203 706 203 725 l 203 439 l 110 439 l 110 660 l 93 660 l 93 0 l 0 0 l 0 753 l 157 753 m 186 706 q 178 727 186 718 q 157 736 169 736 l 17 736 l 17 17 l 76 17 l 76 676 l 126 676 l 126 456 l 186 456 l 186 706 m 203 972 l 203 815 q 189 783 203 796 q 156 769 175 769 l 0 769 l 0 863 l 110 863 l 110 972 l 203 972 m 17 846 l 17 786 l 156 786 q 177 794 168 786 q 186 815 186 803 l 186 956 l 126 956 l 126 846 l 17 846 z "},"ň":{"ha":219,"x_min":0,"x_max":203,"o":"m 157 753 q 190 739 176 753 q 203 706 203 725 l 203 0 l 110 0 l 110 660 l 93 660 l 93 0 l 0 0 l 0 753 l 157 753 m 186 706 q 178 727 186 718 q 157 736 169 736 l 17 736 l 17 17 l 76 17 l 76 676 l 126 676 l 126 17 l 186 17 l 186 706 m 135 783 q 101 769 121 769 q 68 783 82 769 l 14 838 q 0 871 0 854 l 0 972 l 93 972 l 93 890 l 101 882 l 110 890 l 110 972 l 203 972 l 203 871 q 189 838 203 851 l 135 783 m 186 956 l 126 956 l 126 883 l 101 858 l 76 883 l 76 956 l 17 956 l 17 871 q 25 850 17 858 l 81 794 q 101 786 89 786 q 122 794 114 786 l 178 850 q 186 871 186 858 l 186 956 z "},"Ő":{"ha":219,"x_min":0,"x_max":203,"o":"m 126 956 l 126 786 l 186 786 l 186 956 l 126 956 m 17 956 l 17 786 l 76 786 l 76 956 l 17 956 m 203 769 l 110 769 l 110 972 l 203 972 l 203 769 m 93 769 l 0 769 l 0 972 l 93 972 l 93 769 m 156 753 q 189 739 175 753 q 203 706 203 725 l 203 47 q 189 14 203 28 q 156 0 175 0 l 46 0 q 13 14 26 0 q 0 47 0 28 l 0 706 q 13 739 0 725 q 46 753 26 753 l 156 753 m 186 706 q 177 727 186 718 q 156 736 168 736 l 46 736 q 25 727 33 736 q 17 706 17 718 l 17 47 q 25 26 17 35 q 46 17 33 17 l 156 17 q 177 26 168 17 q 186 47 186 35 l 186 706 m 126 676 l 126 76 l 75 76 l 75 676 l 126 676 m 110 660 l 92 660 l 92 93 l 110 93 l 110 660 z "},"Ű":{"ha":219,"x_min":0,"x_max":203,"o":"m 126 956 l 126 786 l 186 786 l 186 956 l 126 956 m 17 956 l 17 786 l 76 786 l 76 956 l 17 956 m 203 769 l 110 769 l 110 972 l 203 972 l 203 769 m 93 769 l 0 769 l 0 972 l 93 972 l 93 769 m 93 93 l 110 93 l 110 753 l 203 753 l 203 47 q 190 14 203 28 q 157 0 176 0 l 47 0 q 14 14 28 0 q 0 47 0 28 l 0 753 l 93 753 l 93 93 m 76 76 l 76 736 l 17 736 l 17 47 q 26 26 17 35 q 47 17 35 17 l 157 17 q 178 26 169 17 q 186 47 186 35 l 186 736 l 126 736 l 126 76 l 76 76 z "},"Ů":{"ha":219,"x_min":0,"x_max":203,"o":"m 126 896 l 126 846 l 76 846 l 76 896 l 126 896 m 110 879 l 93 879 l 93 863 l 110 863 l 110 879 m 156 972 q 189 958 175 972 q 203 925 203 944 l 203 815 q 189 783 203 796 q 156 769 175 769 l 46 769 q 13 783 26 769 q 0 815 0 796 l 0 925 q 13 958 0 944 q 46 972 26 972 l 156 972 m 186 925 q 177 947 186 938 q 156 956 168 956 l 46 956 q 25 947 33 956 q 17 925 17 938 l 17 815 q 25 794 17 803 q 46 786 33 786 l 156 786 q 177 794 168 786 q 186 815 186 803 l 186 925 m 93 93 l 110 93 l 110 753 l 203 753 l 203 47 q 190 14 203 28 q 157 0 176 0 l 47 0 q 14 14 28 0 q 0 47 0 28 l 0 753 l 93 753 l 93 93 m 76 76 l 76 736 l 17 736 l 17 47 q 26 26 17 35 q 47 17 35 17 l 157 17 q 178 26 169 17 q 186 47 186 35 l 186 736 l 126 736 l 126 76 l 76 76 z "},"Ý":{"ha":219,"x_min":0,"x_max":203,"o":"m 47 329 l 56 329 l 56 0 l 147 0 l 147 329 l 157 329 q 190 342 176 329 q 203 375 203 356 l 203 753 l 110 753 l 110 422 l 93 422 l 93 753 l 0 753 l 0 375 q 14 342 0 356 q 47 329 28 329 m 17 736 l 76 736 l 76 406 l 126 406 l 126 736 l 186 736 l 186 375 q 178 355 186 364 q 157 346 169 346 l 131 346 l 131 17 l 72 17 l 72 346 l 47 346 q 26 355 35 346 q 17 375 17 364 l 17 736 m 203 972 l 203 815 q 189 783 203 796 q 156 769 175 769 l 0 769 l 0 863 l 110 863 l 110 972 l 203 972 m 17 846 l 17 786 l 156 786 q 177 794 168 786 q 186 815 186 803 l 186 956 l 126 956 l 126 846 l 17 846 z "},"ă":{"ha":219,"x_min":0,"x_max":203,"o":"m 126 347 l 126 78 l 76 78 l 76 347 l 126 347 m 110 331 l 93 331 l 93 94 l 110 94 l 110 331 m 0 707 q 14 740 0 726 q 47 753 28 753 l 157 753 q 190 740 176 753 q 203 707 203 726 l 203 0 l 47 0 q 14 14 28 0 q 0 47 0 28 l 0 376 q 14 410 0 396 q 47 424 28 424 l 110 424 l 110 660 l 93 660 l 93 440 l 0 440 l 0 707 m 17 457 l 76 457 l 76 676 l 126 676 l 126 407 l 47 407 q 26 398 35 407 q 17 376 17 389 l 17 47 q 26 26 17 35 q 47 17 35 17 l 186 17 l 186 707 q 178 728 186 719 q 157 736 169 736 l 47 736 q 26 728 35 736 q 17 707 17 719 l 17 457 m 46 768 q 13 782 26 768 q 0 815 0 796 l 0 972 l 93 972 l 93 861 l 110 861 l 110 972 l 203 972 l 203 815 q 190 782 203 796 q 157 768 176 768 l 46 768 m 17 815 q 26 794 17 803 q 46 785 35 785 l 157 785 q 177 794 168 785 q 186 815 186 803 l 186 956 l 126 956 l 126 844 l 76 844 l 76 956 l 17 956 l 17 815 z "},"Ă":{"ha":219,"x_min":0,"x_max":203,"o":"m 46 736 q 25 727 33 736 q 17 706 17 718 l 17 17 l 76 17 l 76 344 l 126 344 l 126 17 l 186 17 l 186 706 q 177 727 186 718 q 156 736 168 736 l 46 736 m 76 676 l 126 676 l 126 406 l 76 406 l 76 676 m 156 753 q 189 739 175 753 q 203 706 203 725 l 203 0 l 110 0 l 110 328 l 93 328 l 93 0 l 0 0 l 0 706 q 13 739 0 725 q 46 753 26 753 l 156 753 m 110 422 l 110 660 l 93 660 l 93 422 l 110 422 m 46 768 q 13 782 26 768 q 0 815 0 796 l 0 972 l 93 972 l 93 861 l 110 861 l 110 972 l 203 972 l 203 815 q 190 782 203 796 q 157 768 176 768 l 46 768 m 17 815 q 26 794 17 803 q 46 785 35 785 l 157 785 q 177 794 168 785 q 186 815 186 803 l 186 956 l 126 956 l 126 844 l 76 844 l 76 956 l 17 956 l 17 815 z "},"Ń":{"ha":329,"x_min":0,"x_max":313,"o":"m 296 736 l 296 17 l 157 17 q 136 26 144 17 q 128 47 128 35 l 128 676 l 78 676 l 78 17 l 17 17 l 17 736 l 157 736 q 178 727 169 736 q 186 706 186 718 l 186 76 l 236 76 l 236 93 l 236 736 l 296 736 m 313 753 l 219 753 l 219 93 l 204 93 l 204 706 q 190 739 204 725 q 157 753 176 753 l 0 753 l 0 0 l 94 0 l 94 660 l 111 660 l 111 47 q 124 14 111 28 q 157 0 138 0 l 313 0 l 313 753 m 257 972 l 257 815 q 243 783 257 796 q 210 769 229 769 l 54 769 l 54 863 l 164 863 l 164 972 l 257 972 m 71 846 l 71 786 l 210 786 q 231 794 222 786 q 240 815 240 803 l 240 956 l 181 956 l 181 846 l 71 846 z "},"Ň":{"ha":329,"x_min":0,"x_max":313,"o":"m 236 736 l 236 93 l 236 76 l 186 76 l 186 706 q 178 727 186 718 q 157 736 169 736 l 17 736 l 17 17 l 78 17 l 78 676 l 128 676 l 128 47 q 136 26 128 35 q 157 17 144 17 l 296 17 l 296 736 l 236 736 m 313 0 l 157 0 q 124 14 138 0 q 111 47 111 28 l 111 660 l 94 660 l 94 0 l 0 0 l 0 753 l 157 753 q 190 739 176 753 q 204 706 204 725 l 204 93 l 219 93 l 219 753 l 313 753 l 313 0 m 189 783 q 156 769 175 769 q 122 783 136 769 l 68 838 q 54 871 54 854 l 54 972 l 147 972 l 147 890 l 156 882 l 164 890 l 164 972 l 257 972 l 257 871 q 243 838 257 851 l 189 783 m 240 956 l 181 956 l 181 883 l 156 858 l 131 883 l 131 956 l 71 956 l 71 871 q 79 850 71 858 l 135 794 q 156 786 143 786 q 176 794 168 786 l 232 850 q 240 871 240 858 l 240 956 z "},"˙":{"ha":110,"x_min":0,"x_max":93,"o":"m 17 956 l 17 786 l 76 786 l 76 956 l 17 956 m 93 769 l 0 769 l 0 972 l 93 972 l 93 769 z "},"ż":{"ha":219,"x_min":0,"x_max":203,"o":"m 110 450 l 110 660 l 93 660 l 93 494 l 0 494 l 0 753 l 203 753 l 203 431 q 190 399 203 411 l 93 301 l 93 93 l 110 93 l 110 258 l 203 258 l 203 0 l 0 0 l 0 321 q 14 354 0 340 l 110 450 m 126 676 l 126 443 l 26 343 q 17 321 17 333 l 17 17 l 188 17 l 188 242 l 126 242 l 126 76 l 76 76 l 76 308 l 178 410 q 188 431 188 419 l 188 736 l 17 736 l 17 511 l 76 511 l 76 676 l 126 676 m 72 956 l 72 786 l 132 786 l 132 956 l 72 956 m 149 769 l 56 769 l 56 972 l 149 972 l 149 769 z "},"ė":{"ha":219,"x_min":0,"x_max":203,"o":"m 76 406 l 76 676 l 126 676 l 126 406 l 76 406 m 93 422 l 110 422 l 110 660 l 93 660 l 93 422 m 0 706 q 14 739 0 725 q 47 753 28 753 l 157 753 q 190 739 176 753 q 203 706 203 725 l 203 329 l 93 329 l 93 93 l 110 93 l 110 313 l 203 313 l 203 47 q 190 14 203 28 q 157 0 176 0 l 47 0 q 14 14 28 0 q 0 47 0 28 l 0 706 m 17 47 q 26 26 17 35 q 47 17 35 17 l 157 17 q 178 26 169 17 q 186 47 186 35 l 186 296 l 126 296 l 126 76 l 76 76 l 76 346 l 186 346 l 186 706 q 178 727 186 718 q 157 736 169 736 l 47 736 q 26 727 35 736 q 17 706 17 718 l 17 47 m 72 956 l 72 786 l 132 786 l 132 956 l 72 956 m 149 769 l 56 769 l 56 972 l 149 972 l 149 769 z "},"Ş":{"ha":219,"x_min":0,"x_max":203,"o":"m 110 550 l 110 879 l 93 879 l 93 532 l 157 532 q 190 519 176 532 q 203 486 203 506 l 203 46 q 190 13 203 26 q 157 0 176 0 l 149 0 l 149 -17 l 157 -17 q 190 -31 176 -17 q 203 -64 203 -44 l 203 -174 q 190 -206 203 -193 q 157 -219 176 -219 l 56 -219 l 56 -126 l 110 -126 l 110 -110 l 101 -110 q 69 -97 82 -110 q 56 -64 56 -83 l 56 0 l 46 0 q 13 13 26 0 q 0 46 0 26 l 0 422 l 93 422 l 93 93 l 110 93 l 110 439 l 46 439 q 13 453 26 439 q 0 486 0 467 l 0 925 q 13 958 0 944 q 46 972 26 972 l 157 972 q 190 958 176 972 q 203 925 203 944 l 203 550 l 110 550 m 126 896 l 126 567 l 186 567 l 186 925 q 177 947 186 938 q 157 956 168 956 l 46 956 q 26 947 35 956 q 17 925 17 938 l 17 486 q 26 465 17 474 q 46 456 35 456 l 126 456 l 126 76 l 76 76 l 76 406 l 17 406 l 17 46 q 26 26 17 35 q 46 17 35 17 l 72 17 l 72 -64 q 81 -85 72 -76 q 101 -93 89 -93 l 126 -93 l 126 -143 l 72 -143 l 72 -203 l 157 -203 q 177 -194 168 -203 q 186 -174 186 -186 l 186 -64 q 177 -42 186 -51 q 157 -33 168 -33 l 132 -33 l 132 17 l 157 17 q 177 26 168 17 q 186 46 186 35 l 186 486 q 177 507 186 499 q 157 515 168 515 l 76 515 l 76 896 l 126 896 z "},"ğ":{"ha":219,"x_min":0,"x_max":203,"o":"m 126 78 l 76 78 l 76 676 l 126 676 l 126 78 m 110 660 l 93 660 l 93 94 l 110 94 l 110 660 m 93 -17 l 93 -126 l 110 -126 l 110 0 l 47 0 q 14 14 28 0 q 0 47 0 28 l 0 707 q 14 740 0 726 q 47 753 28 753 l 203 753 l 203 -172 q 190 -206 203 -192 q 157 -219 176 -219 l 47 -219 q 14 -206 28 -219 q 0 -172 0 -192 l 0 -17 l 93 -17 m 76 -143 l 76 -33 l 17 -33 l 17 -172 q 26 -194 17 -185 q 47 -203 35 -203 l 157 -203 q 178 -194 169 -203 q 186 -172 186 -185 l 186 736 l 47 736 q 26 728 35 736 q 17 707 17 719 l 17 47 q 26 26 17 35 q 47 17 35 17 l 126 17 l 126 -143 l 76 -143 m 46 768 q 13 782 26 768 q 0 815 0 796 l 0 972 l 93 972 l 93 861 l 110 861 l 110 972 l 203 972 l 203 815 q 190 782 203 796 q 157 768 176 768 l 46 768 m 17 815 q 26 794 17 803 q 46 785 35 785 l 157 785 q 177 794 168 785 q 186 815 186 803 l 186 956 l 126 956 l 126 844 l 76 844 l 76 956 l 17 956 l 17 815 z "},"ċ":{"ha":219,"x_min":0,"x_max":203,"o":"m 0 706 q 14 739 0 725 q 47 753 28 753 l 157 753 q 190 739 176 753 q 203 706 203 725 l 203 385 l 110 385 l 110 660 l 93 660 l 93 93 l 110 93 l 110 368 l 203 368 l 203 47 q 190 14 203 28 q 157 0 176 0 l 47 0 q 14 14 28 0 q 0 47 0 28 l 0 706 m 17 47 q 26 26 17 35 q 47 17 35 17 l 157 17 q 178 26 169 17 q 186 47 186 35 l 186 351 l 126 351 l 126 76 l 76 76 l 76 676 l 126 676 l 126 401 l 186 401 l 186 706 q 178 727 186 718 q 157 736 169 736 l 47 736 q 26 727 35 736 q 17 706 17 718 l 17 47 m 72 956 l 72 786 l 132 786 l 132 956 l 72 956 m 149 769 l 56 769 l 56 972 l 149 972 l 149 769 z "},"ĉ":{"ha":219,"x_min":0,"x_max":203,"o":"m 0 706 q 14 739 0 725 q 47 753 28 753 l 157 753 q 190 739 176 753 q 203 706 203 725 l 203 385 l 110 385 l 110 660 l 93 660 l 93 93 l 110 93 l 110 368 l 203 368 l 203 47 q 190 14 203 28 q 157 0 176 0 l 47 0 q 14 14 28 0 q 0 47 0 28 l 0 706 m 17 47 q 26 26 17 35 q 47 17 35 17 l 157 17 q 178 26 169 17 q 186 47 186 35 l 186 351 l 126 351 l 126 76 l 76 76 l 76 676 l 126 676 l 126 401 l 186 401 l 186 706 q 178 727 186 718 q 157 736 169 736 l 47 736 q 26 727 35 736 q 17 706 17 718 l 17 47 m 189 904 q 203 871 203 890 l 203 769 l 110 769 l 110 851 l 101 860 l 93 851 l 93 769 l 0 769 l 0 871 q 14 904 0 888 l 68 958 q 101 972 82 972 q 135 958 121 972 l 189 904 m 186 871 q 178 892 186 883 l 122 947 q 101 956 114 956 q 81 947 89 956 l 25 892 q 17 871 17 883 l 17 786 l 76 786 l 76 858 l 101 883 l 126 858 l 126 786 l 186 786 l 186 871 z "},"ŭ":{"ha":219,"x_min":0,"x_max":203,"o":"m 93 93 l 110 93 l 110 753 l 203 753 l 203 47 q 190 14 203 28 q 157 0 176 0 l 47 0 q 14 14 28 0 q 0 47 0 28 l 0 753 l 93 753 l 93 93 m 76 76 l 76 736 l 17 736 l 17 47 q 26 26 17 35 q 47 17 35 17 l 157 17 q 178 26 169 17 q 186 47 186 35 l 186 736 l 126 736 l 126 76 l 76 76 m 46 768 q 13 782 26 768 q 0 815 0 796 l 0 972 l 93 972 l 93 861 l 110 861 l 110 972 l 203 972 l 203 815 q 190 782 203 796 q 157 768 176 768 l 46 768 m 17 815 q 26 794 17 803 q 46 785 35 785 l 157 785 q 177 794 168 785 q 186 815 186 803 l 186 956 l 126 956 l 126 844 l 76 844 l 76 956 l 17 956 l 17 815 z "},"ŝ":{"ha":219,"x_min":0,"x_max":203,"o":"m 46 0 q 13 14 26 0 q 0 47 0 28 l 0 313 l 93 313 l 93 93 l 110 93 l 110 329 l 46 329 q 13 343 26 329 q 0 376 0 357 l 0 706 q 13 739 0 725 q 46 753 26 753 l 157 753 q 190 739 176 753 q 203 706 203 725 l 203 439 l 110 439 l 110 660 l 93 660 l 93 422 l 157 422 q 190 409 176 422 q 203 376 203 396 l 203 47 q 190 14 203 28 q 157 0 176 0 l 46 0 m 17 47 q 26 26 17 35 q 46 17 35 17 l 157 17 q 177 26 168 17 q 186 47 186 35 l 186 376 q 177 397 186 389 q 157 406 168 406 l 76 406 l 76 676 l 126 676 l 126 456 l 186 456 l 186 706 q 177 727 186 718 q 157 736 168 736 l 46 736 q 26 727 35 736 q 17 706 17 718 l 17 376 q 26 355 17 364 q 46 346 35 346 l 126 346 l 126 76 l 76 76 l 76 296 l 17 296 l 17 47 m 189 904 q 203 871 203 890 l 203 769 l 110 769 l 110 851 l 101 860 l 93 851 l 93 769 l 0 769 l 0 871 q 14 904 0 888 l 68 958 q 101 972 82 972 q 135 958 121 972 l 189 904 m 186 871 q 178 892 186 883 l 122 947 q 101 956 114 956 q 81 947 89 956 l 25 892 q 17 871 17 883 l 17 786 l 76 786 l 76 858 l 101 883 l 126 858 l 126 786 l 186 786 l 186 871 z "},"ĝ":{"ha":219,"x_min":0,"x_max":203,"o":"m 126 78 l 76 78 l 76 676 l 126 676 l 126 78 m 110 660 l 93 660 l 93 94 l 110 94 l 110 660 m 93 -17 l 93 -126 l 110 -126 l 110 0 l 47 0 q 14 14 28 0 q 0 47 0 28 l 0 707 q 14 740 0 726 q 47 753 28 753 l 203 753 l 203 -172 q 190 -206 203 -192 q 157 -219 176 -219 l 47 -219 q 14 -206 28 -219 q 0 -172 0 -192 l 0 -17 l 93 -17 m 76 -143 l 76 -33 l 17 -33 l 17 -172 q 26 -194 17 -185 q 47 -203 35 -203 l 157 -203 q 178 -194 169 -203 q 186 -172 186 -185 l 186 736 l 47 736 q 26 728 35 736 q 17 707 17 719 l 17 47 q 26 26 17 35 q 47 17 35 17 l 126 17 l 126 -143 l 76 -143 m 189 904 q 203 871 203 890 l 203 769 l 110 769 l 110 851 l 101 860 l 93 851 l 93 769 l 0 769 l 0 871 q 14 904 0 888 l 68 958 q 101 972 82 972 q 135 958 121 972 l 189 904 m 186 871 q 178 892 186 883 l 122 947 q 101 956 114 956 q 81 947 89 956 l 25 892 q 17 871 17 883 l 17 786 l 76 786 l 76 858 l 101 883 l 126 858 l 126 786 l 186 786 l 186 871 z "},"ġ":{"ha":219,"x_min":0,"x_max":203,"o":"m 126 78 l 76 78 l 76 676 l 126 676 l 126 78 m 110 660 l 93 660 l 93 94 l 110 94 l 110 660 m 93 -17 l 93 -126 l 110 -126 l 110 0 l 47 0 q 14 14 28 0 q 0 47 0 28 l 0 707 q 14 740 0 726 q 47 753 28 753 l 203 753 l 203 -172 q 190 -206 203 -192 q 157 -219 176 -219 l 47 -219 q 14 -206 28 -219 q 0 -172 0 -192 l 0 -17 l 93 -17 m 76 -143 l 76 -33 l 17 -33 l 17 -172 q 26 -194 17 -185 q 47 -203 35 -203 l 157 -203 q 178 -194 169 -203 q 186 -172 186 -185 l 186 736 l 47 736 q 26 728 35 736 q 17 707 17 719 l 17 47 q 26 26 17 35 q 47 17 35 17 l 126 17 l 126 -143 l 76 -143 m 72 956 l 72 786 l 132 786 l 132 956 l 72 956 m 149 769 l 56 769 l 56 972 l 149 972 l 149 769 z "},"ũ":{"ha":219,"x_min":0,"x_max":203,"o":"m 93 93 l 110 93 l 110 753 l 203 753 l 203 47 q 190 14 203 28 q 157 0 176 0 l 47 0 q 14 14 28 0 q 0 47 0 28 l 0 753 l 93 753 l 93 93 m 76 76 l 76 736 l 17 736 l 17 47 q 26 26 17 35 q 47 17 35 17 l 157 17 q 178 26 169 17 q 186 47 186 35 l 186 736 l 126 736 l 126 76 l 76 76 m 110 972 l 203 972 l 203 871 q 189 838 203 851 q 156 824 175 824 l 93 824 l 93 769 l 0 769 l 0 871 q 13 903 0 890 q 46 917 26 917 l 110 917 l 110 972 m 126 900 l 46 900 q 26 892 35 900 q 17 871 17 883 l 17 786 l 76 786 l 76 840 l 156 840 q 177 849 168 840 q 186 871 186 858 l 186 956 l 126 956 l 126 900 z "},"¢":{"ha":329,"x_min":0,"x_max":313,"o":"m 76 76 l 76 676 l 126 676 l 126 76 l 76 76 m 93 93 l 110 93 l 110 660 l 93 660 l 93 93 m 0 706 q 13 739 0 725 q 46 753 26 753 l 110 753 l 110 863 l 203 863 l 203 753 l 267 753 q 299 739 286 753 q 313 706 313 725 l 313 385 l 219 385 l 219 660 l 203 660 l 203 93 l 219 93 l 219 368 l 313 368 l 313 46 q 299 13 313 26 q 267 0 286 0 l 203 0 l 203 -110 l 110 -110 l 110 0 l 46 0 q 13 13 26 0 q 0 46 0 26 l 0 706 m 46 736 q 26 727 35 736 q 17 706 17 718 l 17 46 q 26 26 17 35 q 46 17 35 17 l 126 17 l 126 -93 l 186 -93 l 186 17 l 267 17 q 288 26 279 17 q 296 46 296 35 l 296 351 l 236 351 l 236 76 l 186 76 l 186 676 l 236 676 l 236 401 l 296 401 l 296 706 q 288 727 296 718 q 267 736 279 736 l 186 736 l 186 846 l 126 846 l 126 736 l 46 736 z "},"&":{"ha":275,"x_min":0,"x_max":258,"o":"m 47 956 q 26 947 35 956 q 17 925 17 938 l 17 596 q 25 575 17 583 l 60 542 l 25 507 q 17 486 17 499 l 17 47 q 26 26 17 35 q 47 17 35 17 l 157 17 q 178 26 169 17 q 186 47 186 35 l 186 401 l 242 401 l 242 461 l 157 461 q 135 452 144 461 q 126 431 126 443 l 126 76 l 76 76 l 76 474 l 178 575 q 186 596 186 583 l 186 925 q 178 947 186 938 q 157 956 169 956 l 47 956 m 76 608 l 76 896 l 126 896 l 126 608 l 101 583 l 76 608 m 157 972 q 190 958 176 972 q 203 925 203 944 l 203 596 q 189 563 203 576 l 93 467 l 93 93 l 110 93 l 110 431 q 124 464 110 450 q 157 478 138 478 l 258 478 l 258 385 l 203 385 l 203 47 q 190 14 203 28 q 157 0 176 0 l 47 0 q 14 14 28 0 q 0 47 0 28 l 0 486 q 14 519 0 503 l 36 542 l 14 563 q 0 596 0 579 l 0 925 q 14 958 0 944 q 47 972 28 972 l 157 972 m 110 615 l 110 879 l 93 879 l 93 615 l 101 607 l 110 615 z "},"ş":{"ha":219,"x_min":0,"x_max":203,"o":"m 110 440 l 110 660 l 93 660 l 93 422 l 157 422 q 190 409 176 422 q 203 376 203 396 l 203 46 q 190 13 203 26 q 157 0 176 0 l 149 0 l 149 -17 l 157 -17 q 190 -31 176 -17 q 203 -64 203 -44 l 203 -174 q 190 -206 203 -193 q 157 -219 176 -219 l 56 -219 l 56 -126 l 110 -126 l 110 -110 l 101 -110 q 69 -97 82 -110 q 56 -64 56 -83 l 56 0 l 46 0 q 13 13 26 0 q 0 46 0 26 l 0 313 l 93 313 l 93 93 l 110 93 l 110 329 l 46 329 q 13 343 26 329 q 0 376 0 357 l 0 706 q 13 739 0 725 q 46 753 26 753 l 157 753 q 190 739 176 753 q 203 706 203 725 l 203 440 l 110 440 m 126 676 l 126 457 l 186 457 l 186 706 q 177 727 186 718 q 157 736 168 736 l 46 736 q 26 727 35 736 q 17 706 17 718 l 17 376 q 26 355 17 364 q 46 346 35 346 l 126 346 l 126 76 l 76 76 l 76 296 l 17 296 l 17 46 q 26 26 17 35 q 46 17 35 17 l 72 17 l 72 -64 q 81 -85 72 -76 q 101 -93 89 -93 l 126 -93 l 126 -143 l 72 -143 l 72 -203 l 157 -203 q 177 -194 168 -203 q 186 -174 186 -186 l 186 -64 q 177 -42 186 -51 q 157 -33 168 -33 l 132 -33 l 132 17 l 157 17 q 177 26 168 17 q 186 46 186 35 l 186 376 q 177 397 186 389 q 157 406 168 406 l 76 406 l 76 676 l 126 676 z "},"Ĵ":{"ha":219,"x_min":0,"x_max":203,"o":"m 47 0 q 14 13 28 0 q 0 46 0 26 l 0 476 l 93 476 l 93 93 l 110 93 l 110 753 l 203 753 l 203 46 q 190 13 203 26 q 157 0 176 0 l 47 0 m 17 46 q 26 25 17 33 q 47 17 35 17 l 157 17 q 178 25 169 17 q 186 46 186 33 l 186 736 l 126 736 l 126 76 l 76 76 l 76 460 l 17 460 l 17 46 m 189 904 q 203 871 203 890 l 203 769 l 110 769 l 110 851 l 101 860 l 93 851 l 93 769 l 0 769 l 0 871 q 14 904 0 888 l 68 958 q 101 972 82 972 q 135 958 121 972 l 189 904 m 186 871 q 178 892 186 883 l 122 947 q 101 956 114 956 q 81 947 89 956 l 25 892 q 17 871 17 883 l 17 786 l 76 786 l 76 858 l 101 883 l 126 858 l 126 786 l 186 786 l 186 871 z "},"ā":{"ha":219,"x_min":0,"x_max":203,"o":"m 126 347 l 126 78 l 76 78 l 76 347 l 126 347 m 110 331 l 93 331 l 93 94 l 110 94 l 110 331 m 0 707 q 14 740 0 726 q 47 753 28 753 l 157 753 q 190 740 176 753 q 203 707 203 726 l 203 0 l 47 0 q 14 14 28 0 q 0 47 0 28 l 0 376 q 14 410 0 396 q 47 424 28 424 l 110 424 l 110 660 l 93 660 l 93 440 l 0 440 l 0 707 m 17 457 l 76 457 l 76 676 l 126 676 l 126 407 l 47 407 q 26 398 35 407 q 17 376 17 389 l 17 47 q 26 26 17 35 q 47 17 35 17 l 186 17 l 186 707 q 178 728 186 719 q 157 736 169 736 l 47 736 q 26 728 35 736 q 17 707 17 719 l 17 457 m 17 846 l 17 786 l 186 786 l 186 846 l 17 846 m 203 769 l 0 769 l 0 863 l 203 863 l 203 769 z "},"˛":{"ha":165,"x_min":0,"x_max":149,"o":"m 149 -110 l 46 -110 q 13 -97 26 -110 q 0 -64 0 -83 l 0 93 l 93 93 l 93 -17 l 149 -17 l 149 -110 m 132 -33 l 76 -33 l 76 76 l 17 76 l 17 -64 q 26 -84 17 -75 q 46 -93 35 -93 l 132 -93 l 132 -33 z "},"ą":{"ha":219,"x_min":0,"x_max":258,"o":"m 110 422 l 110 660 l 93 660 l 93 440 l 0 440 l 0 706 q 14 739 0 725 q 47 753 28 753 l 157 753 q 190 739 176 753 q 203 706 203 725 l 203 -17 l 258 -17 l 258 -110 l 157 -110 q 124 -97 138 -110 q 110 -64 110 -83 l 110 0 l 47 0 q 14 14 28 0 q 0 47 0 28 l 0 376 q 14 409 0 396 q 47 422 28 422 l 110 422 m 126 676 l 126 406 l 47 406 q 26 397 35 406 q 17 376 17 389 l 17 47 q 26 26 17 35 q 47 17 35 17 l 126 17 l 126 -64 q 135 -84 126 -75 q 157 -93 144 -93 l 242 -93 l 242 -33 l 186 -33 l 186 706 q 178 727 186 718 q 157 736 169 736 l 47 736 q 26 727 35 736 q 17 706 17 718 l 17 457 l 76 457 l 76 676 l 126 676 m 126 346 l 126 76 l 76 76 l 76 346 l 126 346 m 110 329 l 93 329 l 93 93 l 110 93 l 110 329 z "},"Ą":{"ha":219,"x_min":0,"x_max":258,"o":"m 126 896 l 126 517 l 76 517 l 76 896 l 126 896 m 110 879 l 93 879 l 93 533 l 110 533 l 110 879 m 203 -17 l 258 -17 l 258 -110 l 157 -110 q 124 -97 138 -110 q 110 -64 110 -83 l 110 440 l 93 440 l 93 0 l 0 0 l 0 926 q 13 959 0 946 q 46 972 26 972 l 157 972 q 190 959 176 972 q 203 926 203 946 l 203 -17 m 186 -33 l 186 926 q 177 947 186 938 q 157 956 168 956 l 46 956 q 26 947 35 956 q 17 926 17 938 l 17 17 l 76 17 l 76 457 l 126 457 l 126 -64 q 135 -84 126 -75 q 157 -93 144 -93 l 242 -93 l 242 -33 l 186 -33 z "},"Č":{"ha":219,"x_min":0,"x_max":203,"o":"m 135 783 q 101 769 121 769 q 68 783 82 769 l 14 838 q 0 871 0 854 l 0 972 l 93 972 l 93 890 l 101 882 l 110 890 l 110 972 l 203 972 l 203 871 q 189 838 203 851 l 135 783 m 186 956 l 126 956 l 126 883 l 101 858 l 76 883 l 76 956 l 17 956 l 17 871 q 25 850 17 858 l 81 794 q 101 786 89 786 q 122 794 114 786 l 178 850 q 186 871 186 858 l 186 956 m 0 706 q 14 739 0 725 q 47 753 28 753 l 157 753 q 190 739 176 753 q 203 706 203 725 l 203 385 l 110 385 l 110 660 l 93 660 l 93 93 l 110 93 l 110 368 l 203 368 l 203 47 q 190 14 203 28 q 157 0 176 0 l 47 0 q 14 14 28 0 q 0 47 0 28 l 0 706 m 17 47 q 26 26 17 35 q 47 17 35 17 l 157 17 q 178 26 169 17 q 186 47 186 35 l 186 351 l 126 351 l 126 76 l 76 76 l 76 676 l 126 676 l 126 401 l 186 401 l 186 706 q 178 727 186 718 q 157 736 169 736 l 47 736 q 26 727 35 736 q 17 706 17 718 l 17 47 z "},"Ć":{"ha":219,"x_min":0,"x_max":203,"o":"m 203 972 l 203 815 q 189 783 203 796 q 156 769 175 769 l 0 769 l 0 863 l 110 863 l 110 972 l 203 972 m 17 846 l 17 786 l 156 786 q 177 794 168 786 q 186 815 186 803 l 186 956 l 126 956 l 126 846 l 17 846 m 0 706 q 14 739 0 725 q 47 753 28 753 l 157 753 q 190 739 176 753 q 203 706 203 725 l 203 385 l 110 385 l 110 660 l 93 660 l 93 93 l 110 93 l 110 368 l 203 368 l 203 47 q 190 14 203 28 q 157 0 176 0 l 47 0 q 14 14 28 0 q 0 47 0 28 l 0 706 m 17 47 q 26 26 17 35 q 47 17 35 17 l 157 17 q 178 26 169 17 q 186 47 186 35 l 186 351 l 126 351 l 126 76 l 76 76 l 76 676 l 126 676 l 126 401 l 186 401 l 186 706 q 178 727 186 718 q 157 736 169 736 l 47 736 q 26 727 35 736 q 17 706 17 718 l 17 47 z "},"Ę":{"ha":219,"x_min":0,"x_max":203,"o":"m 0 972 l 203 972 l 203 550 l 110 550 l 110 879 l 93 879 l 93 532 l 203 532 l 203 439 l 93 439 l 93 93 l 110 93 l 110 422 l 203 422 l 203 0 l 149 0 l 149 -17 l 203 -17 l 203 -110 l 101 -110 q 69 -97 82 -110 q 56 -64 56 -83 l 56 0 l 0 0 l 0 972 m 17 17 l 56 17 l 72 17 l 72 0 l 72 -64 q 81 -85 72 -76 q 101 -93 89 -93 l 186 -93 l 186 -33 l 132 -33 l 132 17 l 186 17 l 186 406 l 126 406 l 126 76 l 76 76 l 76 456 l 186 456 l 186 515 l 76 515 l 76 896 l 126 896 l 126 879 l 126 567 l 186 567 l 186 956 l 17 956 l 17 17 z "},"ę":{"ha":219,"x_min":0,"x_max":203,"o":"m 76 406 l 76 676 l 126 676 l 126 406 l 76 406 m 93 422 l 110 422 l 110 660 l 93 660 l 93 422 m 101 -110 q 69 -97 82 -110 q 56 -64 56 -83 l 56 0 l 47 0 q 14 13 28 0 q 0 46 0 26 l 0 706 q 14 739 0 725 q 47 753 28 753 l 157 753 q 190 739 176 753 q 203 706 203 725 l 203 329 l 93 329 l 93 93 l 110 93 l 110 313 l 203 313 l 203 46 q 190 13 203 26 q 157 0 176 0 l 149 0 l 149 -17 l 203 -17 l 203 -110 l 101 -110 m 72 -64 q 81 -85 72 -76 q 101 -93 89 -93 l 186 -93 l 186 -33 l 132 -33 l 132 17 l 157 17 q 178 26 169 17 q 186 46 186 35 l 186 296 l 126 296 l 126 76 l 76 76 l 76 346 l 186 346 l 186 706 q 178 727 186 718 q 157 736 169 736 l 47 736 q 26 727 35 736 q 17 706 17 718 l 17 46 q 26 26 17 35 q 47 17 35 17 l 72 17 l 72 -64 z "},"ľ":{"ha":219,"x_min":0,"x_max":203,"o":"m 93 0 l 0 0 l 0 972 l 93 972 l 93 0 m 76 956 l 17 956 l 17 17 l 76 17 l 76 956 m 126 956 l 126 786 l 186 786 l 186 956 l 126 956 m 203 769 l 110 769 l 110 972 l 203 972 l 203 769 z "},"ť":{"ha":219,"x_min":0,"x_max":203,"o":"m 93 972 l 93 753 l 149 753 l 149 660 l 93 660 l 93 0 l 0 0 l 0 972 l 93 972 m 76 736 l 76 956 l 17 956 l 17 17 l 76 17 l 76 676 l 132 676 l 132 736 l 76 736 m 126 956 l 126 786 l 186 786 l 186 956 l 126 956 m 203 769 l 110 769 l 110 972 l 203 972 l 203 769 z "},"ď":{"ha":329,"x_min":0,"x_max":313,"o":"m 126 676 l 126 76 l 76 76 l 76 676 l 126 676 m 93 93 l 110 93 l 110 660 l 93 660 l 93 93 m 203 972 l 203 0 l 46 0 q 13 14 26 0 q 0 47 0 28 l 0 706 q 13 739 0 725 q 46 753 26 753 l 110 753 l 110 972 l 203 972 m 46 736 q 25 727 33 736 q 17 706 17 718 l 17 47 q 25 26 17 35 q 46 17 33 17 l 186 17 l 186 956 l 126 956 l 126 736 l 46 736 m 236 956 l 236 786 l 296 786 l 296 956 l 236 956 m 313 769 l 219 769 l 219 972 l 313 972 l 313 769 z "},"Ľ":{"ha":219,"x_min":0,"x_max":203,"o":"m 17 956 l 17 17 l 186 17 l 186 461 l 126 461 l 126 76 l 76 76 l 76 956 l 17 956 m 93 93 l 110 93 l 110 478 l 203 478 l 203 0 l 0 0 l 0 972 l 93 972 l 93 93 m 126 956 l 126 786 l 186 786 l 186 956 l 126 956 m 203 769 l 110 769 l 110 972 l 203 972 l 203 769 z "},"Ĺ":{"ha":219,"x_min":0,"x_max":203,"o":"m 76 736 l 76 76 l 126 76 l 126 461 l 186 461 l 186 17 l 17 17 l 17 736 l 76 736 m 93 753 l 0 753 l 0 0 l 203 0 l 203 478 l 110 478 l 110 93 l 93 93 l 93 753 m 203 972 l 203 815 q 189 783 203 796 q 156 769 175 769 l 0 769 l 0 863 l 110 863 l 110 972 l 203 972 m 17 846 l 17 786 l 156 786 q 177 794 168 786 q 186 815 186 803 l 186 956 l 126 956 l 126 846 l 17 846 z "},"ĺ":{"ha":219,"x_min":0,"x_max":203,"o":"m 149 863 l 56 863 l 56 0 l 149 0 l 149 863 m 132 17 l 72 17 l 72 846 l 132 846 l 132 17 m 203 1082 l 203 925 q 189 892 203 906 q 156 879 175 879 l 0 879 l 0 972 l 110 972 l 110 1082 l 203 1082 m 17 956 l 17 896 l 156 896 q 177 904 168 896 q 186 925 186 913 l 186 1065 l 126 1065 l 126 956 l 17 956 z "},"Ė":{"ha":219,"x_min":0,"x_max":203,"o":"m 17 736 l 17 17 l 186 17 l 186 296 l 126 296 l 126 76 l 76 76 l 76 346 l 186 346 l 186 407 l 76 407 l 76 676 l 126 676 l 126 457 l 186 457 l 186 736 l 17 736 m 203 440 l 110 440 l 110 660 l 93 660 l 93 424 l 203 424 l 203 329 l 93 329 l 93 93 l 110 93 l 110 313 l 203 313 l 203 0 l 0 0 l 0 753 l 203 753 l 203 440 m 72 956 l 72 786 l 132 786 l 132 956 l 72 956 m 149 769 l 56 769 l 56 972 l 149 972 l 149 769 z "},"Ņ":{"ha":329,"x_min":0,"x_max":313,"o":"m 126 -33 l 126 -143 l 72 -143 l 72 -203 l 157 -203 q 178 -194 169 -203 q 186 -172 186 -185 l 186 -33 l 126 -33 m 203 -172 q 190 -206 203 -192 q 157 -219 176 -219 l 56 -219 l 56 -126 l 110 -126 l 110 -17 l 203 -17 l 203 -172 m 236 956 l 236 93 l 236 76 l 186 76 l 186 925 q 178 947 186 938 q 157 956 169 956 l 17 956 l 17 17 l 78 17 l 78 896 l 128 896 l 128 47 q 136 26 128 35 q 157 17 144 17 l 296 17 l 296 956 l 236 956 m 313 0 l 157 0 q 124 14 138 0 q 111 47 111 28 l 111 879 l 94 879 l 94 0 l 0 0 l 0 972 l 157 972 q 190 958 176 972 q 203 925 203 944 l 203 93 l 219 93 l 219 972 l 313 972 l 313 0 z "},"ņ":{"ha":219,"x_min":0,"x_max":203,"o":"m 71 -33 l 71 -143 l 17 -143 l 17 -203 l 101 -203 q 122 -194 114 -203 q 131 -172 131 -185 l 131 -33 l 71 -33 m 147 -172 q 134 -206 147 -192 q 101 -219 121 -219 l 0 -219 l 0 -126 l 54 -126 l 54 -17 l 147 -17 l 147 -172 m 157 753 q 190 739 176 753 q 203 706 203 725 l 203 0 l 110 0 l 110 660 l 93 660 l 93 0 l 0 0 l 0 753 l 157 753 m 186 706 q 178 727 186 718 q 157 736 169 736 l 17 736 l 17 17 l 76 17 l 76 676 l 126 676 l 126 17 l 186 17 l 186 706 z "},"Ų":{"ha":219,"x_min":0,"x_max":203,"o":"m 203 -110 l 101 -110 q 69 -97 82 -110 q 56 -64 56 -83 l 56 0 l 47 0 q 14 13 28 0 q 0 46 0 26 l 0 972 l 93 972 l 93 93 l 110 93 l 110 972 l 203 972 l 203 46 q 190 13 203 26 q 157 0 176 0 l 149 0 l 149 -17 l 203 -17 l 203 -110 m 186 -33 l 132 -33 l 132 17 l 157 17 q 178 26 169 17 q 186 46 186 35 l 186 956 l 126 956 l 126 76 l 76 76 l 76 956 l 17 956 l 17 46 q 26 26 17 35 q 47 17 35 17 l 72 17 l 72 -64 q 81 -85 72 -76 q 101 -93 90 -93 l 186 -93 l 186 -33 z "},"ų":{"ha":219,"x_min":0,"x_max":258,"o":"m 156 -110 q 123 -97 136 -110 q 110 -64 110 -83 l 110 0 l 46 0 q 13 13 26 0 q 0 46 0 26 l 0 753 l 93 753 l 93 93 l 110 93 l 110 753 l 203 753 l 203 -17 l 258 -17 l 258 -110 l 156 -110 m 126 -64 q 135 -85 126 -76 q 156 -93 143 -93 l 242 -93 l 242 -33 l 186 -33 l 186 736 l 126 736 l 126 76 l 76 76 l 76 736 l 17 736 l 17 46 q 25 26 17 35 q 46 17 33 17 l 110 17 l 126 17 l 126 0 l 126 -64 z "},"Ļ":{"ha":219,"x_min":0,"x_max":203,"o":"m 71 -33 l 71 -143 l 17 -143 l 17 -203 l 101 -203 q 122 -194 114 -203 q 131 -172 131 -185 l 131 -33 l 71 -33 m 147 -172 q 134 -206 147 -192 q 101 -219 121 -219 l 0 -219 l 0 -126 l 54 -126 l 54 -17 l 147 -17 l 147 -172 m 17 956 l 17 17 l 186 17 l 186 461 l 126 461 l 126 76 l 76 76 l 76 956 l 17 956 m 93 93 l 110 93 l 110 478 l 203 478 l 203 0 l 0 0 l 0 972 l 93 972 l 93 93 z "},"ļ":{"ha":110,"x_min":-54,"x_max":93,"o":"m 17 -33 l 17 -143 l -37 -143 l -37 -203 l 47 -203 q 68 -194 60 -203 q 76 -172 76 -185 l 76 -33 l 17 -33 m 93 -172 q 80 -206 93 -192 q 47 -219 67 -219 l -54 -219 l -54 -126 l 0 -126 l 0 -17 l 93 -17 l 93 -172 m 93 0 l 0 0 l 0 972 l 93 972 l 93 0 m 76 956 l 17 956 l 17 17 l 76 17 l 76 956 z "},"ģ":{"ha":219,"x_min":0,"x_max":203,"o":"m 131 786 l 131 896 l 186 896 l 186 956 l 100 956 q 79 947 88 956 q 71 925 71 938 l 71 786 l 131 786 m 54 925 q 67 958 54 944 q 100 972 81 972 l 203 972 l 203 879 l 147 879 l 147 769 l 54 769 l 54 925 m 126 78 l 76 78 l 76 676 l 126 676 l 126 78 m 110 660 l 93 660 l 93 94 l 110 94 l 110 660 m 93 -17 l 93 -126 l 110 -126 l 110 0 l 47 0 q 14 14 28 0 q 0 47 0 28 l 0 707 q 14 740 0 726 q 47 753 28 753 l 203 753 l 203 -172 q 190 -206 203 -192 q 157 -219 176 -219 l 47 -219 q 14 -206 28 -219 q 0 -172 0 -192 l 0 -17 l 93 -17 m 76 -143 l 76 -33 l 17 -33 l 17 -172 q 26 -194 17 -185 q 47 -203 35 -203 l 157 -203 q 178 -194 169 -203 q 186 -172 186 -185 l 186 736 l 47 736 q 26 728 35 736 q 17 707 17 719 l 17 47 q 26 26 17 35 q 47 17 35 17 l 126 17 l 126 -143 l 76 -143 z "},"Į":{"ha":329,"x_min":0,"x_max":313,"o":"m 93 478 l 93 93 l 110 93 l 110 879 l 93 879 l 93 494 l 0 494 l 0 972 l 313 972 l 313 494 l 219 494 l 219 879 l 203 879 l 203 93 l 219 93 l 219 478 l 313 478 l 313 0 l 203 0 l 203 -17 l 258 -17 l 258 -110 l 157 -110 q 124 -97 138 -110 q 110 -64 110 -83 l 110 0 l 0 0 l 0 478 l 93 478 m 76 76 l 76 461 l 17 461 l 17 17 l 126 17 l 126 -64 q 135 -84 126 -75 q 157 -93 144 -93 l 242 -93 l 242 -33 l 186 -33 l 186 17 l 296 17 l 296 461 l 236 461 l 236 76 l 186 76 l 186 896 l 236 896 l 236 511 l 296 511 l 296 956 l 17 956 l 17 511 l 76 511 l 76 896 l 126 896 l 126 76 l 76 76 z "},"į":{"ha":110,"x_min":0,"x_max":149,"o":"m 149 -110 l 47 -110 q 14 -97 28 -110 q 0 -64 0 -83 l 0 753 l 93 753 l 93 -17 l 149 -17 l 149 -110 m 132 -33 l 76 -33 l 76 736 l 17 736 l 17 -64 q 26 -84 17 -75 q 47 -93 35 -93 l 132 -93 l 132 -33 m 93 769 l 0 769 l 0 972 l 93 972 l 93 769 m 76 956 l 17 956 l 17 786 l 76 786 l 76 956 z "},"Ģ":{"ha":275,"x_min":0,"x_max":258,"o":"m 71 -33 l 71 -143 l 17 -143 l 17 -203 l 101 -203 q 122 -194 114 -203 q 131 -172 131 -185 l 131 -33 l 71 -33 m 147 -172 q 134 -206 147 -192 q 101 -219 121 -219 l 0 -219 l 0 -126 l 54 -126 l 54 -17 l 147 -17 l 147 -172 m 47 956 q 25 947 33 956 q 17 925 17 938 l 17 47 q 25 26 17 35 q 47 17 33 17 l 186 17 l 186 401 l 242 401 l 242 461 l 126 461 l 126 76 l 76 76 l 76 896 l 126 896 l 126 511 l 186 511 l 186 925 q 177 947 186 938 q 156 956 168 956 l 47 956 m 156 972 q 189 958 175 972 q 203 925 203 944 l 203 494 l 110 494 l 110 879 l 93 879 l 93 93 l 110 93 l 110 478 l 258 478 l 258 385 l 203 385 l 203 0 l 47 0 q 14 14 28 0 q 0 47 0 28 l 0 925 q 14 958 0 944 q 47 972 28 972 l 156 972 z "},"Ŗ":{"ha":219,"x_min":0,"x_max":203,"o":"m 71 -33 l 71 -143 l 17 -143 l 17 -203 l 101 -203 q 122 -194 114 -203 q 131 -172 131 -185 l 131 -33 l 71 -33 m 147 -172 q 134 -206 147 -192 q 101 -219 121 -219 l 0 -219 l 0 -126 l 54 -126 l 54 -17 l 147 -17 l 147 -172 m 126 896 l 126 571 l 76 571 l 76 896 l 126 896 m 110 879 l 93 879 l 93 588 l 110 588 l 110 879 m 157 972 q 190 958 176 972 q 203 925 203 944 l 203 542 q 190 508 203 522 q 157 494 176 494 l 93 494 l 93 478 l 157 478 q 190 464 176 478 q 203 431 203 450 l 203 0 l 110 0 l 110 385 l 93 385 l 93 0 l 0 0 l 0 972 l 157 972 m 186 925 q 178 947 186 938 q 157 956 169 956 l 17 956 l 17 17 l 76 17 l 76 401 l 126 401 l 126 17 l 186 17 l 186 431 q 178 452 186 443 q 157 461 169 461 l 93 461 l 76 461 l 76 511 l 157 511 q 178 520 169 511 q 186 542 186 529 l 186 925 z "},"ŗ":{"ha":219,"x_min":-54,"x_max":203,"o":"m 17 -33 l 17 -143 l -37 -143 l -37 -203 l 47 -203 q 68 -194 60 -203 q 76 -172 76 -185 l 76 -33 l 17 -33 m 93 -172 q 80 -206 93 -192 q 47 -219 67 -219 l -54 -219 l -54 -126 l 0 -126 l 0 -17 l 93 -17 l 93 -172 m 157 753 q 190 739 176 753 q 203 706 203 725 l 203 439 l 110 439 l 110 660 l 93 660 l 93 0 l 0 0 l 0 753 l 157 753 m 186 706 q 178 727 186 718 q 157 736 169 736 l 17 736 l 17 17 l 76 17 l 76 676 l 126 676 l 126 456 l 186 456 l 186 706 z "},"ķ":{"ha":219,"x_min":0,"x_max":203,"o":"m 71 -33 l 71 -143 l 17 -143 l 17 -203 l 101 -203 q 122 -194 114 -203 q 131 -172 131 -185 l 131 -33 l 71 -33 m 147 -172 q 134 -206 147 -192 q 101 -219 121 -219 l 0 -219 l 0 -126 l 54 -126 l 54 -17 l 147 -17 l 147 -172 m 94 0 l 0 0 l 0 972 l 94 972 l 94 478 l 111 478 l 111 753 l 203 753 l 203 431 q 190 398 203 411 q 157 385 176 385 l 94 385 l 94 368 l 157 368 q 190 354 176 368 q 203 321 203 340 l 203 0 l 111 0 l 111 275 l 94 275 l 94 0 m 78 292 l 128 292 l 128 17 l 188 17 l 188 321 q 178 342 188 333 q 157 351 169 351 l 78 351 l 78 401 l 157 401 q 178 410 169 401 q 188 431 188 419 l 188 736 l 128 736 l 128 461 l 78 461 l 78 956 l 17 956 l 17 17 l 78 17 l 78 292 z "},"ē":{"ha":219,"x_min":0,"x_max":203,"o":"m 76 406 l 76 676 l 126 676 l 126 406 l 76 406 m 93 422 l 110 422 l 110 660 l 93 660 l 93 422 m 0 706 q 14 739 0 725 q 47 753 28 753 l 157 753 q 190 739 176 753 q 203 706 203 725 l 203 329 l 93 329 l 93 93 l 110 93 l 110 313 l 203 313 l 203 47 q 190 14 203 28 q 157 0 176 0 l 47 0 q 14 14 28 0 q 0 47 0 28 l 0 706 m 17 47 q 26 26 17 35 q 47 17 35 17 l 157 17 q 178 26 169 17 q 186 47 186 35 l 186 296 l 126 296 l 126 76 l 76 76 l 76 346 l 186 346 l 186 706 q 178 727 186 718 q 157 736 169 736 l 47 736 q 26 727 35 736 q 17 706 17 718 l 17 47 m 17 846 l 17 786 l 186 786 l 186 846 l 17 846 m 203 769 l 0 769 l 0 863 l 203 863 l 203 769 z "},"ī":{"ha":219,"x_min":0,"x_max":203,"o":"m 147 0 l 54 0 l 54 753 l 147 753 l 147 0 m 131 736 l 71 736 l 71 17 l 131 17 l 131 736 m 17 846 l 17 786 l 186 786 l 186 846 l 17 846 m 203 769 l 0 769 l 0 863 l 203 863 l 203 769 z "},"ō":{"ha":219,"x_min":0,"x_max":203,"o":"m 156 753 q 189 739 175 753 q 203 706 203 725 l 203 47 q 189 14 203 28 q 156 0 175 0 l 46 0 q 13 14 26 0 q 0 47 0 28 l 0 706 q 13 739 0 725 q 46 753 26 753 l 156 753 m 186 706 q 177 727 186 718 q 156 736 168 736 l 46 736 q 25 727 33 736 q 17 706 17 718 l 17 47 q 25 26 17 35 q 46 17 33 17 l 156 17 q 177 26 168 17 q 186 47 186 35 l 186 706 m 126 676 l 126 76 l 75 76 l 75 676 l 126 676 m 110 660 l 92 660 l 92 93 l 110 93 l 110 660 m 17 846 l 17 786 l 186 786 l 186 846 l 17 846 m 203 769 l 0 769 l 0 863 l 203 863 l 203 769 z "},"ū":{"ha":219,"x_min":0,"x_max":203,"o":"m 93 93 l 110 93 l 110 753 l 203 753 l 203 47 q 190 14 203 28 q 157 0 176 0 l 47 0 q 14 14 28 0 q 0 47 0 28 l 0 753 l 93 753 l 93 93 m 76 76 l 76 736 l 17 736 l 17 47 q 26 26 17 35 q 47 17 35 17 l 157 17 q 178 26 169 17 q 186 47 186 35 l 186 736 l 126 736 l 126 76 l 76 76 m 17 846 l 17 786 l 186 786 l 186 846 l 17 846 m 203 769 l 0 769 l 0 863 l 203 863 l 203 769 z "},"Ź":{"ha":219,"x_min":0,"x_max":203,"o":"m 203 972 l 203 815 q 189 783 203 796 q 156 769 175 769 l 0 769 l 0 863 l 110 863 l 110 972 l 203 972 m 17 846 l 17 786 l 156 786 q 177 794 168 786 q 186 815 186 803 l 186 956 l 126 956 l 126 846 l 17 846 m 110 450 l 110 660 l 93 660 l 93 494 l 0 494 l 0 753 l 203 753 l 203 431 q 190 399 203 411 l 93 301 l 93 93 l 110 93 l 110 258 l 203 258 l 203 0 l 0 0 l 0 321 q 14 354 0 340 l 110 450 m 126 676 l 126 443 l 26 343 q 17 321 17 333 l 17 17 l 188 17 l 188 242 l 126 242 l 126 76 l 76 76 l 76 308 l 178 410 q 188 431 188 419 l 188 736 l 17 736 l 17 511 l 76 511 l 76 676 l 126 676 z "},"Ž":{"ha":219,"x_min":0,"x_max":203,"o":"m 135 783 q 101 769 121 769 q 68 783 82 769 l 14 838 q 0 871 0 854 l 0 972 l 93 972 l 93 890 l 101 882 l 110 890 l 110 972 l 203 972 l 203 871 q 189 838 203 851 l 135 783 m 186 956 l 126 956 l 126 883 l 101 858 l 76 883 l 76 956 l 17 956 l 17 871 q 25 850 17 858 l 81 794 q 101 786 89 786 q 122 794 114 786 l 178 850 q 186 871 186 858 l 186 956 m 110 450 l 110 660 l 93 660 l 93 494 l 0 494 l 0 753 l 203 753 l 203 431 q 190 399 203 411 l 93 301 l 93 93 l 110 93 l 110 258 l 203 258 l 203 0 l 0 0 l 0 321 q 14 354 0 340 l 110 450 m 126 676 l 126 443 l 26 343 q 17 321 17 333 l 17 17 l 188 17 l 188 242 l 126 242 l 126 76 l 76 76 l 76 308 l 178 410 q 188 431 188 419 l 188 736 l 17 736 l 17 511 l 76 511 l 76 676 l 126 676 z "},"Ż":{"ha":219,"x_min":0,"x_max":203,"o":"m 72 956 l 72 786 l 132 786 l 132 956 l 72 956 m 149 769 l 56 769 l 56 972 l 149 972 l 149 769 m 110 450 l 110 660 l 93 660 l 93 494 l 0 494 l 0 753 l 203 753 l 203 431 q 190 399 203 411 l 93 301 l 93 93 l 110 93 l 110 258 l 203 258 l 203 0 l 0 0 l 0 321 q 14 354 0 340 l 110 450 m 126 676 l 126 443 l 26 343 q 17 321 17 333 l 17 17 l 188 17 l 188 242 l 126 242 l 126 76 l 76 76 l 76 308 l 178 410 q 188 431 188 419 l 188 736 l 17 736 l 17 511 l 76 511 l 76 676 l 126 676 z "},"Š":{"ha":219,"x_min":0,"x_max":203,"o":"m 135 783 q 101 769 121 769 q 68 783 82 769 l 14 838 q 0 871 0 854 l 0 972 l 93 972 l 93 890 l 101 882 l 110 890 l 110 972 l 203 972 l 203 871 q 189 838 203 851 l 135 783 m 186 956 l 126 956 l 126 883 l 101 858 l 76 883 l 76 956 l 17 956 l 17 871 q 25 850 17 858 l 81 794 q 101 786 89 786 q 122 794 114 786 l 178 850 q 186 871 186 858 l 186 956 m 46 0 q 13 14 26 0 q 0 47 0 28 l 0 313 l 93 313 l 93 93 l 110 93 l 110 329 l 46 329 q 13 343 26 329 q 0 376 0 357 l 0 706 q 13 739 0 725 q 46 753 26 753 l 157 753 q 190 739 176 753 q 203 706 203 725 l 203 439 l 110 439 l 110 660 l 93 660 l 93 422 l 157 422 q 190 409 176 422 q 203 376 203 396 l 203 47 q 190 14 203 28 q 157 0 176 0 l 46 0 m 17 47 q 26 26 17 35 q 46 17 35 17 l 157 17 q 177 26 168 17 q 186 47 186 35 l 186 376 q 177 397 186 389 q 157 406 168 406 l 76 406 l 76 676 l 126 676 l 126 456 l 186 456 l 186 706 q 177 727 186 718 q 157 736 168 736 l 46 736 q 26 727 35 736 q 17 706 17 718 l 17 376 q 26 355 17 364 q 46 346 35 346 l 126 346 l 126 76 l 76 76 l 76 296 l 17 296 l 17 47 z "},"Ś":{"ha":219,"x_min":0,"x_max":203,"o":"m 203 972 l 203 815 q 189 783 203 796 q 156 769 175 769 l 0 769 l 0 863 l 110 863 l 110 972 l 203 972 m 17 846 l 17 786 l 156 786 q 177 794 168 786 q 186 815 186 803 l 186 956 l 126 956 l 126 846 l 17 846 m 46 0 q 13 14 26 0 q 0 47 0 28 l 0 313 l 93 313 l 93 93 l 110 93 l 110 329 l 46 329 q 13 343 26 329 q 0 376 0 357 l 0 706 q 13 739 0 725 q 46 753 26 753 l 157 753 q 190 739 176 753 q 203 706 203 725 l 203 439 l 110 439 l 110 660 l 93 660 l 93 422 l 157 422 q 190 409 176 422 q 203 376 203 396 l 203 47 q 190 14 203 28 q 157 0 176 0 l 46 0 m 17 47 q 26 26 17 35 q 46 17 35 17 l 157 17 q 177 26 168 17 q 186 47 186 35 l 186 376 q 177 397 186 389 q 157 406 168 406 l 76 406 l 76 676 l 126 676 l 126 456 l 186 456 l 186 706 q 177 727 186 718 q 157 736 168 736 l 46 736 q 26 727 35 736 q 17 706 17 718 l 17 376 q 26 355 17 364 q 46 346 35 346 l 126 346 l 126 76 l 76 76 l 76 296 l 17 296 l 17 47 z "},"Ŝ":{"ha":219,"x_min":0,"x_max":203,"o":"m 189 904 q 203 871 203 890 l 203 769 l 110 769 l 110 851 l 101 860 l 93 851 l 93 769 l 0 769 l 0 871 q 14 904 0 888 l 68 958 q 101 972 82 972 q 135 958 121 972 l 189 904 m 186 871 q 178 892 186 883 l 122 947 q 101 956 114 956 q 81 947 89 956 l 25 892 q 17 871 17 883 l 17 786 l 76 786 l 76 858 l 101 883 l 126 858 l 126 786 l 186 786 l 186 871 m 46 0 q 13 14 26 0 q 0 47 0 28 l 0 313 l 93 313 l 93 93 l 110 93 l 110 329 l 46 329 q 13 343 26 329 q 0 376 0 357 l 0 706 q 13 739 0 725 q 46 753 26 753 l 157 753 q 190 739 176 753 q 203 706 203 725 l 203 439 l 110 439 l 110 660 l 93 660 l 93 422 l 157 422 q 190 409 176 422 q 203 376 203 396 l 203 47 q 190 14 203 28 q 157 0 176 0 l 46 0 m 17 47 q 26 26 17 35 q 46 17 35 17 l 157 17 q 177 26 168 17 q 186 47 186 35 l 186 376 q 177 397 186 389 q 157 406 168 406 l 76 406 l 76 676 l 126 676 l 126 456 l 186 456 l 186 706 q 177 727 186 718 q 157 736 168 736 l 46 736 q 26 727 35 736 q 17 706 17 718 l 17 376 q 26 355 17 364 q 46 346 35 346 l 126 346 l 126 76 l 76 76 l 76 296 l 17 296 l 17 47 z "},"Ď":{"ha":329,"x_min":0,"x_max":313,"o":"m 17 736 l 17 401 l 76 401 l 76 676 l 126 676 l 126 76 l 76 76 l 76 351 l 17 351 l 17 17 l 267 17 q 288 26 279 17 q 296 47 296 35 l 296 706 q 288 727 296 718 q 267 736 279 736 l 17 736 m 186 676 l 236 676 l 236 76 l 186 76 l 186 676 m 267 753 q 299 739 286 753 q 313 706 313 725 l 313 47 q 299 14 313 28 q 267 0 286 0 l 0 0 l 0 368 l 93 368 l 93 93 l 110 93 l 110 660 l 93 660 l 93 385 l 0 385 l 0 753 l 267 753 m 219 93 l 219 660 l 203 660 l 203 93 l 219 93 m 189 783 q 156 769 175 769 q 122 783 136 769 l 68 838 q 54 871 54 854 l 54 972 l 147 972 l 147 890 l 156 882 l 164 890 l 164 972 l 257 972 l 257 871 q 243 838 257 851 l 189 783 m 240 956 l 181 956 l 181 883 l 156 858 l 131 883 l 131 956 l 71 956 l 71 871 q 79 850 71 858 l 135 794 q 156 786 143 786 q 176 794 168 786 l 232 850 q 240 871 240 858 l 240 956 z "},"Đ":{"ha":329,"x_min":0,"x_max":313,"o":"m 236 896 l 236 515 l 186 515 l 186 896 l 236 896 m 219 879 l 203 879 l 203 532 l 219 532 l 219 879 m 236 456 l 236 76 l 186 76 l 186 456 l 236 456 m 219 439 l 203 439 l 203 93 l 219 93 l 219 439 m 313 46 q 299 13 313 26 q 267 0 286 0 l 0 0 l 0 422 l 93 422 l 93 93 l 110 93 l 110 439 l 0 439 l 0 532 l 110 532 l 110 879 l 93 879 l 93 550 l 0 550 l 0 972 l 267 972 q 299 958 286 972 q 313 925 313 944 l 313 46 m 296 925 q 288 947 296 938 q 267 956 279 956 l 17 956 l 17 567 l 76 567 l 76 896 l 126 896 l 126 515 l 17 515 l 17 456 l 126 456 l 126 76 l 76 76 l 76 406 l 17 406 l 17 17 l 267 17 q 288 26 279 17 q 296 46 296 35 l 296 925 z "},"đ":{"ha":275,"x_min":0,"x_max":258,"o":"m 203 0 l 46 0 q 13 13 26 0 q 0 46 0 26 l 0 706 q 13 739 0 725 q 46 753 26 753 l 110 753 l 110 769 l 56 769 l 56 863 l 110 863 l 110 972 l 203 972 l 203 863 l 258 863 l 258 769 l 203 769 l 203 0 m 186 786 l 242 786 l 242 846 l 186 846 l 186 956 l 126 956 l 126 846 l 72 846 l 72 786 l 126 786 l 126 736 l 46 736 q 26 727 35 736 q 17 706 17 718 l 17 46 q 26 26 17 35 q 46 17 35 17 l 186 17 l 186 786 m 126 676 l 126 76 l 76 76 l 76 676 l 126 676 m 110 660 l 93 660 l 93 93 l 110 93 l 110 660 z "},"ţ":{"ha":165,"x_min":-54,"x_max":149,"o":"m 17 -33 l 17 -143 l -37 -143 l -37 -203 l 47 -203 q 68 -194 60 -203 q 76 -172 76 -185 l 76 -33 l 17 -33 m 93 -172 q 80 -206 93 -192 q 47 -219 67 -219 l -54 -219 l -54 -126 l 0 -126 l 0 -17 l 93 -17 l 93 -172 m 93 972 l 93 753 l 149 753 l 149 660 l 93 660 l 93 0 l 0 0 l 0 972 l 93 972 m 76 736 l 76 956 l 17 956 l 17 17 l 76 17 l 76 676 l 132 676 l 132 736 l 76 736 z "},"Ţ":{"ha":329,"x_min":0,"x_max":313,"o":"m 126 -33 l 126 -143 l 72 -143 l 72 -203 l 157 -203 q 178 -194 169 -203 q 186 -172 186 -185 l 186 -33 l 126 -33 m 203 -172 q 190 -206 203 -192 q 157 -219 176 -219 l 56 -219 l 56 -126 l 110 -126 l 110 -17 l 203 -17 l 203 -172 m 93 494 l 0 494 l 0 972 l 313 972 l 313 494 l 219 494 l 219 879 l 203 879 l 203 0 l 110 0 l 110 879 l 93 879 l 93 494 m 76 896 l 126 896 l 126 17 l 186 17 l 186 896 l 236 896 l 236 511 l 296 511 l 296 956 l 17 956 l 17 511 l 76 511 l 76 896 z "},"Ŕ":{"ha":219,"x_min":0,"x_max":203,"o":"m 76 676 l 76 461 l 126 461 l 126 676 l 76 676 m 110 478 l 93 478 l 93 660 l 110 660 l 110 478 m 157 753 l 0 753 l 0 0 l 93 0 l 93 275 l 110 275 l 110 0 l 203 0 l 203 321 q 190 354 203 340 q 157 368 176 368 l 93 368 l 93 385 l 157 385 q 190 399 176 385 q 203 432 203 413 l 203 706 q 190 739 203 725 q 157 753 176 753 m 186 432 q 178 410 186 419 q 157 401 169 401 l 76 401 l 76 351 l 93 351 l 157 351 q 178 342 169 351 q 186 321 186 333 l 186 17 l 126 17 l 126 292 l 76 292 l 76 17 l 17 17 l 17 736 l 157 736 q 178 727 169 736 q 186 706 186 718 l 186 432 m 203 972 l 203 815 q 189 783 203 796 q 156 769 175 769 l 0 769 l 0 863 l 110 863 l 110 972 l 203 972 m 17 846 l 17 786 l 156 786 q 177 794 168 786 q 186 815 186 803 l 186 956 l 126 956 l 126 846 l 17 846 z "},"Ř":{"ha":219,"x_min":0,"x_max":203,"o":"m 126 676 l 126 461 l 76 461 l 76 676 l 126 676 m 110 660 l 93 660 l 93 478 l 110 478 l 110 660 m 157 753 q 190 739 176 753 q 203 706 203 725 l 203 432 q 190 399 203 413 q 157 385 176 385 l 93 385 l 93 368 l 157 368 q 190 354 176 368 q 203 321 203 340 l 203 0 l 110 0 l 110 275 l 93 275 l 93 0 l 0 0 l 0 753 l 157 753 m 186 706 q 178 727 186 718 q 157 736 169 736 l 17 736 l 17 17 l 76 17 l 76 292 l 126 292 l 126 17 l 186 17 l 186 321 q 178 342 186 333 q 157 351 169 351 l 93 351 l 76 351 l 76 401 l 157 401 q 178 410 169 401 q 186 432 186 419 l 186 706 m 135 783 q 101 769 121 769 q 68 783 82 769 l 14 838 q 0 871 0 854 l 0 972 l 93 972 l 93 890 l 101 882 l 110 890 l 110 972 l 203 972 l 203 871 q 189 838 203 851 l 135 783 m 186 956 l 126 956 l 126 883 l 101 858 l 76 883 l 76 956 l 17 956 l 17 871 q 25 850 17 858 l 81 794 q 101 786 89 786 q 122 794 114 786 l 178 850 q 186 871 186 858 l 186 956 z "},"ŧ":{"ha":219,"x_min":0,"x_max":203,"o":"m 149 660 l 149 643 l 203 643 l 203 550 l 149 550 l 149 0 l 56 0 l 56 550 l 0 550 l 0 643 l 56 643 l 56 972 l 149 972 l 149 753 l 203 753 l 203 660 l 149 660 m 132 626 l 132 676 l 186 676 l 186 736 l 132 736 l 132 956 l 72 956 l 72 626 l 56 626 l 17 626 l 17 567 l 72 567 l 72 17 l 132 17 l 132 567 l 186 567 l 186 626 l 132 626 z "},"Ŧ":{"ha":329,"x_min":0,"x_max":313,"o":"m 219 550 l 219 879 l 203 879 l 203 533 l 313 533 l 313 440 l 203 440 l 203 0 l 110 0 l 110 440 l 0 440 l 0 533 l 110 533 l 110 879 l 93 879 l 93 550 l 0 550 l 0 972 l 313 972 l 313 550 l 219 550 m 236 896 l 236 567 l 296 567 l 296 956 l 17 956 l 17 567 l 76 567 l 76 896 l 126 896 l 126 517 l 17 517 l 17 457 l 126 457 l 126 17 l 186 17 l 186 457 l 296 457 l 296 517 l 186 517 l 186 896 l 236 896 z "},"ĩ":{"ha":219,"x_min":0,"x_max":203,"o":"m 149 0 l 56 0 l 56 753 l 149 753 l 149 0 m 132 736 l 72 736 l 72 17 l 132 17 l 132 736 m 110 972 l 203 972 l 203 871 q 189 838 203 851 q 156 824 175 824 l 93 824 l 93 769 l 0 769 l 0 871 q 13 903 0 890 q 46 917 26 917 l 110 917 l 110 972 m 126 900 l 46 900 q 26 892 35 900 q 17 871 17 883 l 17 786 l 76 786 l 76 840 l 156 840 q 177 849 168 840 q 186 871 186 858 l 186 956 l 126 956 l 126 900 z "},"Ð":{"ha":329,"x_min":0,"x_max":313,"o":"m 236 896 l 236 515 l 186 515 l 186 896 l 236 896 m 219 879 l 203 879 l 203 532 l 219 532 l 219 879 m 236 456 l 236 76 l 186 76 l 186 456 l 236 456 m 219 439 l 203 439 l 203 93 l 219 93 l 219 439 m 313 46 q 299 13 313 26 q 267 0 286 0 l 0 0 l 0 422 l 93 422 l 93 93 l 110 93 l 110 439 l 0 439 l 0 532 l 110 532 l 110 879 l 93 879 l 93 550 l 0 550 l 0 972 l 267 972 q 299 958 286 972 q 313 925 313 944 l 313 46 m 296 925 q 288 947 296 938 q 267 956 279 956 l 17 956 l 17 567 l 76 567 l 76 896 l 126 896 l 126 515 l 17 515 l 17 456 l 126 456 l 126 76 l 76 76 l 76 406 l 17 406 l 17 17 l 267 17 q 288 26 279 17 q 296 46 296 35 l 296 925 z "},"ð":{"ha":275,"x_min":0,"x_max":258,"o":"m 203 0 l 46 0 q 13 13 26 0 q 0 46 0 26 l 0 706 q 13 739 0 725 q 46 753 26 753 l 110 753 l 110 769 l 56 769 l 56 863 l 110 863 l 110 972 l 203 972 l 203 863 l 258 863 l 258 769 l 203 769 l 203 0 m 186 786 l 242 786 l 242 846 l 186 846 l 186 956 l 126 956 l 126 846 l 72 846 l 72 786 l 126 786 l 126 736 l 46 736 q 26 727 35 736 q 17 706 17 718 l 17 46 q 26 26 17 35 q 46 17 35 17 l 186 17 l 186 786 m 126 676 l 126 76 l 76 76 l 76 676 l 126 676 m 110 660 l 93 660 l 93 93 l 110 93 l 110 660 z "},"ﬁ":{"ha":329,"x_min":0,"x_max":313,"o":"m 313 769 l 219 769 l 219 972 l 313 972 l 313 769 m 296 956 l 236 956 l 236 786 l 296 786 l 296 956 m 219 0 l 219 550 l 93 550 l 93 0 l 0 0 l 0 925 q 13 958 0 944 q 46 972 26 972 l 157 972 q 190 958 176 972 q 203 925 203 944 l 203 660 l 110 660 l 110 879 l 93 879 l 93 643 l 219 643 l 219 753 l 313 753 l 313 0 l 219 0 m 236 567 l 236 17 l 296 17 l 296 736 l 236 736 l 236 626 l 76 626 l 76 896 l 126 896 l 126 676 l 186 676 l 186 925 q 177 947 186 938 q 157 956 168 956 l 46 956 q 26 947 35 956 q 17 925 17 938 l 17 17 l 76 17 l 76 567 l 236 567 z "},"ﬂ":{"ha":329,"x_min":0,"x_max":313,"o":"m 157 972 q 190 958 176 972 q 203 925 203 944 l 203 660 l 110 660 l 110 879 l 93 879 l 93 643 l 203 643 l 203 550 l 93 550 l 93 0 l 0 0 l 0 925 q 14 958 0 944 q 47 972 28 972 l 157 972 m 186 925 q 178 947 186 938 q 157 956 169 956 l 47 956 q 26 947 35 956 q 17 925 17 938 l 17 17 l 76 17 l 76 567 l 186 567 l 186 626 l 76 626 l 76 896 l 126 896 l 126 676 l 186 676 l 186 925 m 313 0 l 219 0 l 219 972 l 313 972 l 313 0 m 296 956 l 236 956 l 236 17 l 296 17 l 296 956 z "},"Ț":{"ha":329,"x_min":0,"x_max":313,"o":"m 126 -33 l 126 -143 l 72 -143 l 72 -203 l 157 -203 q 178 -194 169 -203 q 186 -172 186 -185 l 186 -33 l 126 -33 m 203 -172 q 190 -206 203 -192 q 157 -219 176 -219 l 56 -219 l 56 -126 l 110 -126 l 110 -17 l 203 -17 l 203 -172 m 93 494 l 0 494 l 0 972 l 313 972 l 313 494 l 219 494 l 219 879 l 203 879 l 203 0 l 110 0 l 110 879 l 93 879 l 93 494 m 76 896 l 126 896 l 126 17 l 186 17 l 186 896 l 236 896 l 236 511 l 296 511 l 296 956 l 17 956 l 17 511 l 76 511 l 76 896 z "},"ț":{"ha":165,"x_min":-54,"x_max":149,"o":"m 17 -33 l 17 -143 l -37 -143 l -37 -203 l 47 -203 q 68 -194 60 -203 q 76 -172 76 -185 l 76 -33 l 17 -33 m 93 -172 q 80 -206 93 -192 q 47 -219 67 -219 l -54 -219 l -54 -126 l 0 -126 l 0 -17 l 93 -17 l 93 -172 m 93 972 l 93 753 l 149 753 l 149 660 l 93 660 l 93 0 l 0 0 l 0 972 l 93 972 m 76 736 l 76 956 l 17 956 l 17 17 l 76 17 l 76 676 l 132 676 l 132 736 l 76 736 z "},"Ș":{"ha":219,"x_min":0,"x_max":203,"o":"m 71 -33 l 71 -143 l 17 -143 l 17 -203 l 101 -203 q 122 -194 114 -203 q 131 -172 131 -185 l 131 -33 l 71 -33 m 147 -172 q 134 -206 147 -192 q 101 -219 121 -219 l 0 -219 l 0 -126 l 54 -126 l 54 -17 l 147 -17 l 147 -172 m 47 0 q 14 14 28 0 q 0 47 0 28 l 0 422 l 93 422 l 93 93 l 110 93 l 110 439 l 47 439 q 14 453 28 439 q 0 486 0 467 l 0 925 q 14 958 0 944 q 47 972 28 972 l 157 972 q 190 958 176 972 q 203 925 203 944 l 203 550 l 110 550 l 110 879 l 93 879 l 93 533 l 157 533 q 190 519 176 533 q 203 486 203 506 l 203 47 q 190 14 203 28 q 157 0 176 0 l 47 0 m 17 47 q 26 26 17 35 q 47 17 35 17 l 157 17 q 178 26 169 17 q 186 47 186 35 l 186 486 q 178 508 186 499 q 157 517 169 517 l 76 517 l 76 896 l 126 896 l 126 567 l 186 567 l 186 925 q 178 947 186 938 q 157 956 169 956 l 47 956 q 26 947 35 956 q 17 925 17 938 l 17 486 q 26 465 17 474 q 47 456 35 456 l 126 456 l 126 76 l 76 76 l 76 406 l 17 406 l 17 47 z "},"ș":{"ha":219,"x_min":0,"x_max":203,"o":"m 71 -33 l 71 -143 l 17 -143 l 17 -203 l 101 -203 q 122 -194 114 -203 q 131 -172 131 -185 l 131 -33 l 71 -33 m 147 -172 q 134 -206 147 -192 q 101 -219 121 -219 l 0 -219 l 0 -126 l 54 -126 l 54 -17 l 147 -17 l 147 -172 m 46 0 q 13 14 26 0 q 0 47 0 28 l 0 313 l 93 313 l 93 93 l 110 93 l 110 329 l 46 329 q 13 343 26 329 q 0 376 0 357 l 0 706 q 13 739 0 725 q 46 753 26 753 l 157 753 q 190 739 176 753 q 203 706 203 725 l 203 439 l 110 439 l 110 660 l 93 660 l 93 422 l 157 422 q 190 409 176 422 q 203 376 203 396 l 203 47 q 190 14 203 28 q 157 0 176 0 l 46 0 m 17 47 q 26 26 17 35 q 46 17 35 17 l 157 17 q 177 26 168 17 q 186 47 186 35 l 186 376 q 177 397 186 389 q 157 406 168 406 l 76 406 l 76 676 l 126 676 l 126 456 l 186 456 l 186 706 q 177 727 186 718 q 157 736 168 736 l 46 736 q 26 727 35 736 q 17 706 17 718 l 17 376 q 26 355 17 364 q 46 346 35 346 l 126 346 l 126 76 l 76 76 l 76 296 l 17 296 l 17 47 z "},"Ē":{"ha":219,"x_min":0,"x_max":203,"o":"m 17 844 l 17 17 l 186 17 l 186 349 l 126 349 l 126 76 l 76 76 l 76 399 l 186 399 l 186 460 l 76 460 l 76 785 l 126 785 l 126 510 l 186 510 l 186 844 l 17 844 m 203 493 l 110 493 l 110 768 l 93 768 l 93 476 l 203 476 l 203 382 l 93 382 l 93 93 l 110 93 l 110 365 l 203 365 l 203 0 l 0 0 l 0 861 l 203 861 l 203 493 m 17 956 l 17 896 l 186 896 l 186 956 l 17 956 m 203 879 l 0 879 l 0 972 l 203 972 l 203 879 z "},"Ō":{"ha":219,"x_min":0,"x_max":203,"o":"m 156 863 q 189 849 175 863 q 203 815 203 835 l 203 47 q 189 14 203 28 q 156 0 175 0 l 46 0 q 13 14 26 0 q 0 47 0 28 l 0 815 q 13 849 0 835 q 46 863 26 863 l 156 863 m 186 815 q 177 837 186 828 q 156 846 168 846 l 46 846 q 25 837 33 846 q 17 815 17 828 l 17 47 q 25 26 17 35 q 46 17 33 17 l 156 17 q 177 26 168 17 q 186 47 186 35 l 186 815 m 126 786 l 126 76 l 75 76 l 75 786 l 126 786 m 110 769 l 92 769 l 92 93 l 110 93 l 110 769 m 17 956 l 17 896 l 186 896 l 186 956 l 17 956 m 203 879 l 0 879 l 0 972 l 203 972 l 203 879 z "},"%":{"ha":329,"x_min":0,"x_max":313,"o":"m 236 956 l 236 515 l 47 515 q 26 506 35 515 q 17 486 17 497 l 17 17 l 76 17 l 76 456 l 267 456 q 288 465 279 456 q 296 486 296 474 l 296 956 l 236 956 m 47 956 q 26 947 35 956 q 17 925 17 938 l 17 596 q 26 574 17 583 q 47 565 35 565 l 157 565 q 178 574 169 565 q 186 596 186 583 l 186 925 q 178 947 186 938 q 157 956 169 956 l 47 956 m 76 894 l 126 894 l 126 625 l 76 625 l 76 894 m 157 406 q 135 397 144 406 q 126 375 126 388 l 126 46 q 135 25 126 33 q 157 17 144 17 l 267 17 q 288 25 279 17 q 296 46 296 33 l 296 375 q 288 397 296 388 q 267 406 279 406 l 157 406 m 186 346 l 236 346 l 236 75 l 186 75 l 186 346 m 313 486 q 299 453 313 467 q 267 439 286 439 l 93 439 l 93 0 l 0 0 l 0 486 q 14 519 0 506 q 47 532 28 532 l 219 532 l 219 972 l 313 972 l 313 486 m 157 972 q 190 958 176 972 q 203 925 203 944 l 203 596 q 190 563 203 576 q 157 549 176 549 l 47 549 q 14 563 28 549 q 0 596 0 576 l 0 925 q 14 958 0 944 q 47 972 28 972 l 157 972 m 110 642 l 110 878 l 93 878 l 93 642 l 110 642 m 267 422 q 299 408 286 422 q 313 375 313 394 l 313 46 q 299 13 313 26 q 267 0 286 0 l 157 0 q 124 13 138 0 q 110 46 110 26 l 110 375 q 124 408 110 394 q 157 422 138 422 l 267 422 m 219 92 l 219 329 l 203 329 l 203 92 l 219 92 z "},"*":{"ha":329,"x_min":0,"x_max":313,"o":"m 126 956 l 126 847 l 17 847 l 17 786 l 126 786 l 126 676 l 186 676 l 186 786 l 296 786 l 296 847 l 186 847 l 186 956 l 126 956 m 203 863 l 313 863 l 313 769 l 203 769 l 203 660 l 110 660 l 110 769 l 0 769 l 0 863 l 110 863 l 110 972 l 203 972 l 203 863 z "},"<":{"ha":275,"x_min":0,"x_max":258,"o":"m 157 515 q 135 507 143 515 l 25 397 q 17 376 17 389 q 25 354 17 363 l 135 244 q 157 236 143 236 l 242 236 l 242 296 l 169 296 l 89 376 l 169 456 l 242 456 l 242 515 l 157 515 m 258 439 l 176 439 l 113 376 l 176 313 l 258 313 l 258 219 l 157 219 q 124 233 136 219 l 14 343 q 0 376 0 357 q 14 408 0 394 l 124 518 q 157 532 136 532 l 258 532 l 258 439 z "},">":{"ha":275,"x_min":0,"x_max":258,"o":"m 17 515 l 17 456 l 89 456 l 169 376 l 89 296 l 17 296 l 17 236 l 101 236 q 124 244 115 236 l 233 354 q 242 376 242 363 q 233 397 242 389 l 124 507 q 101 515 115 515 l 17 515 m 0 532 l 101 532 q 135 518 122 532 l 244 408 q 258 376 258 394 q 244 343 258 357 l 135 233 q 101 219 122 219 l 0 219 l 0 313 l 82 313 l 146 376 l 82 439 l 0 439 l 0 532 z "},"¤":{"ha":329,"x_min":0,"x_max":313,"o":"m 182 676 l 182 297 l 132 297 l 132 676 l 182 676 m 165 660 l 149 660 l 149 314 l 165 314 l 165 660 m 203 863 l 203 753 l 211 753 q 244 740 231 753 q 258 707 258 726 l 258 533 l 313 533 l 313 440 l 258 440 l 258 267 q 244 234 258 247 q 211 221 231 221 l 203 221 l 203 111 l 110 111 l 110 221 l 101 221 q 69 234 82 221 q 56 267 56 247 l 56 440 l 0 440 l 0 533 l 56 533 l 56 707 q 69 740 56 726 q 101 753 82 753 l 110 753 l 110 863 l 203 863 m 186 736 l 186 846 l 126 846 l 126 736 l 101 736 q 81 728 89 736 q 72 707 72 719 l 72 517 l 17 517 l 17 457 l 72 457 l 72 267 q 81 246 72 254 q 101 238 89 238 l 126 238 l 126 128 l 186 128 l 186 238 l 211 238 q 233 246 224 238 q 242 267 242 254 l 242 457 l 296 457 l 296 517 l 242 517 l 242 707 q 233 728 242 719 q 211 736 224 736 l 186 736 z "},"¦":{"ha":110,"x_min":0,"x_max":93,"o":"m 93 549 l 0 549 l 0 1081 l 93 1081 l 93 549 m 76 1064 l 17 1064 l 17 565 l 76 565 l 76 1064 m 0 421 l 93 421 l 93 -111 l 0 -111 l 0 421 m 17 -94 l 76 -94 l 76 404 l 17 404 l 17 -94 z "},"ª":{"ha":219,"x_min":0,"x_max":203,"o":"m 126 732 l 126 629 l 76 629 l 76 732 l 126 732 m 110 715 l 93 715 l 93 646 l 110 646 l 110 715 m 0 926 q 14 959 0 946 q 47 972 28 972 l 157 972 q 190 959 176 972 q 203 926 203 946 l 203 551 l 47 551 q 14 565 28 551 q 0 599 0 579 l 0 761 q 14 794 0 781 q 47 808 28 808 l 110 808 l 110 879 l 93 879 l 93 826 l 0 826 l 0 926 m 17 843 l 76 843 l 76 896 l 126 896 l 126 792 l 47 792 q 26 783 35 792 q 17 761 17 774 l 17 599 q 26 577 17 586 q 47 568 35 568 l 186 568 l 186 926 q 178 947 186 939 q 157 956 169 956 l 47 956 q 26 947 35 956 q 17 926 17 939 l 17 843 z "},"«":{"ha":329,"x_min":0,"x_max":313,"o":"m 165 488 q 178 520 165 507 q 211 533 192 533 l 313 533 l 313 442 l 258 442 l 258 314 l 313 314 l 313 221 l 211 221 q 178 235 192 221 q 165 268 165 249 l 165 488 m 296 517 l 211 517 q 190 508 199 517 q 182 488 182 500 l 182 268 q 190 247 182 256 q 211 238 199 238 l 296 238 l 296 297 l 242 297 l 242 458 l 258 458 l 296 458 l 296 517 m 93 442 l 93 314 l 149 314 l 149 221 l 46 221 q 13 235 26 221 q 0 268 0 249 l 0 488 q 13 520 0 507 q 46 533 26 533 l 149 533 l 149 442 l 93 442 m 76 297 l 76 458 l 132 458 l 132 517 l 46 517 q 26 508 35 517 q 17 488 17 500 l 17 268 q 26 247 17 256 q 46 238 35 238 l 132 238 l 132 297 l 76 297 z "},"¬":{"ha":329,"x_min":0,"x_max":313,"o":"m 0 424 l 313 424 l 313 221 l 219 221 l 219 331 l 0 331 l 0 424 m 17 347 l 236 347 l 236 238 l 296 238 l 296 407 l 17 407 l 17 347 z "},"±":{"ha":329,"x_min":0,"x_max":313,"o":"m 126 571 l 126 463 l 17 463 l 17 401 l 126 401 l 126 292 l 186 292 l 186 401 l 296 401 l 296 463 l 186 463 l 186 571 l 126 571 m 203 478 l 313 478 l 313 385 l 203 385 l 203 275 l 110 275 l 110 385 l 0 385 l 0 478 l 110 478 l 110 588 l 203 588 l 203 478 m 17 242 l 17 182 l 296 182 l 296 242 l 17 242 m 313 165 l 0 165 l 0 258 l 313 258 l 313 165 z "},"»":{"ha":329,"x_min":0,"x_max":313,"o":"m 147 488 q 134 520 147 507 q 101 533 121 533 l 0 533 l 0 442 l 54 442 l 54 314 l 0 314 l 0 221 l 101 221 q 134 235 121 221 q 147 268 147 249 l 147 488 m 17 517 l 101 517 q 122 508 114 517 q 131 488 131 500 l 131 268 q 122 247 131 256 q 101 238 114 238 l 17 238 l 17 297 l 71 297 l 71 458 l 54 458 l 17 458 l 17 517 m 219 442 l 219 314 l 164 314 l 164 221 l 267 221 q 299 235 286 221 q 313 268 313 249 l 313 488 q 299 520 313 507 q 267 533 286 533 l 164 533 l 164 442 l 219 442 m 236 297 l 236 458 l 181 458 l 181 517 l 267 517 q 287 508 278 517 q 296 488 296 500 l 296 268 q 287 247 296 256 q 267 238 278 238 l 181 238 l 181 297 l 236 297 z "},"¯":{"ha":219,"x_min":0,"x_max":203,"o":"m 17 846 l 17 786 l 186 786 l 186 846 l 17 846 m 203 769 l 0 769 l 0 863 l 203 863 l 203 769 z "},"Þ":{"ha":219,"x_min":0,"x_max":203,"o":"m 0 972 l 93 972 l 93 863 l 157 863 q 190 849 176 863 q 203 815 203 835 l 203 157 q 190 124 203 138 q 157 110 176 110 l 93 110 l 93 0 l 0 0 l 0 972 m 17 17 l 76 17 l 76 126 l 157 126 q 177 135 168 126 q 186 157 186 144 l 186 815 q 177 837 186 828 q 157 846 168 846 l 76 846 l 76 956 l 17 956 l 17 17 m 76 186 l 76 786 l 126 786 l 126 186 l 76 186 m 93 203 l 110 203 l 110 769 l 93 769 l 93 203 z "},"þ":{"ha":219,"x_min":0,"x_max":203,"o":"m 0 972 l 93 972 l 93 753 l 157 753 q 190 739 176 753 q 203 706 203 725 l 203 47 q 190 14 203 28 q 157 0 176 0 l 93 0 l 93 -219 l 0 -219 l 0 972 m 17 -203 l 76 -203 l 76 17 l 157 17 q 177 26 168 17 q 186 47 186 35 l 186 706 q 177 727 186 718 q 157 736 168 736 l 76 736 l 76 956 l 17 956 l 17 -203 m 76 76 l 76 676 l 126 676 l 126 76 l 76 76 m 93 93 l 110 93 l 110 660 l 93 660 l 93 93 z "},"Ĉ":{"ha":219,"x_min":0,"x_max":203,"o":"m 189 904 q 203 871 203 890 l 203 769 l 110 769 l 110 851 l 101 860 l 93 851 l 93 769 l 0 769 l 0 871 q 14 904 0 888 l 68 958 q 101 972 82 972 q 135 958 121 972 l 189 904 m 186 871 q 178 892 186 883 l 122 947 q 101 956 114 956 q 81 947 89 956 l 25 892 q 17 871 17 883 l 17 786 l 76 786 l 76 858 l 101 883 l 126 858 l 126 786 l 186 786 l 186 871 m 0 706 q 14 739 0 725 q 47 753 28 753 l 157 753 q 190 739 176 753 q 203 706 203 725 l 203 385 l 110 385 l 110 660 l 93 660 l 93 93 l 110 93 l 110 368 l 203 368 l 203 47 q 190 14 203 28 q 157 0 176 0 l 47 0 q 14 14 28 0 q 0 47 0 28 l 0 706 m 17 47 q 26 26 17 35 q 47 17 35 17 l 157 17 q 178 26 169 17 q 186 47 186 35 l 186 351 l 126 351 l 126 76 l 76 76 l 76 676 l 126 676 l 126 401 l 186 401 l 186 706 q 178 727 186 718 q 157 736 169 736 l 47 736 q 26 727 35 736 q 17 706 17 718 l 17 47 z "},"Ċ":{"ha":219,"x_min":0,"x_max":203,"o":"m 72 956 l 72 786 l 132 786 l 132 956 l 72 956 m 149 769 l 56 769 l 56 972 l 149 972 l 149 769 m 0 706 q 14 739 0 725 q 47 753 28 753 l 157 753 q 190 739 176 753 q 203 706 203 725 l 203 385 l 110 385 l 110 660 l 93 660 l 93 93 l 110 93 l 110 368 l 203 368 l 203 47 q 190 14 203 28 q 157 0 176 0 l 47 0 q 14 14 28 0 q 0 47 0 28 l 0 706 m 17 47 q 26 26 17 35 q 47 17 35 17 l 157 17 q 178 26 169 17 q 186 47 186 35 l 186 351 l 126 351 l 126 76 l 76 76 l 76 676 l 126 676 l 126 401 l 186 401 l 186 706 q 178 727 186 718 q 157 736 169 736 l 47 736 q 26 727 35 736 q 17 706 17 718 l 17 47 z "},"ĕ":{"ha":219,"x_min":0,"x_max":203,"o":"m 76 406 l 76 676 l 126 676 l 126 406 l 76 406 m 93 422 l 110 422 l 110 660 l 93 660 l 93 422 m 0 706 q 14 739 0 725 q 47 753 28 753 l 157 753 q 190 739 176 753 q 203 706 203 725 l 203 329 l 93 329 l 93 93 l 110 93 l 110 313 l 203 313 l 203 47 q 190 14 203 28 q 157 0 176 0 l 47 0 q 14 14 28 0 q 0 47 0 28 l 0 706 m 17 47 q 26 26 17 35 q 47 17 35 17 l 157 17 q 178 26 169 17 q 186 47 186 35 l 186 296 l 126 296 l 126 76 l 76 76 l 76 346 l 186 346 l 186 706 q 178 727 186 718 q 157 736 169 736 l 47 736 q 26 727 35 736 q 17 706 17 718 l 17 47 m 46 768 q 13 782 26 768 q 0 815 0 796 l 0 972 l 93 972 l 93 861 l 110 861 l 110 972 l 203 972 l 203 815 q 190 782 203 796 q 157 768 176 768 l 46 768 m 17 815 q 26 794 17 803 q 46 785 35 785 l 157 785 q 177 794 168 785 q 186 815 186 803 l 186 956 l 126 956 l 126 844 l 76 844 l 76 956 l 17 956 l 17 815 z "},"Ĕ":{"ha":219,"x_min":0,"x_max":203,"o":"m 17 736 l 17 17 l 186 17 l 186 296 l 126 296 l 126 76 l 76 76 l 76 346 l 186 346 l 186 407 l 76 407 l 76 676 l 126 676 l 126 457 l 186 457 l 186 736 l 17 736 m 203 440 l 110 440 l 110 660 l 93 660 l 93 424 l 203 424 l 203 329 l 93 329 l 93 93 l 110 93 l 110 313 l 203 313 l 203 0 l 0 0 l 0 753 l 203 753 l 203 440 m 46 768 q 13 782 26 768 q 0 815 0 796 l 0 972 l 93 972 l 93 861 l 110 861 l 110 972 l 203 972 l 203 815 q 190 782 203 796 q 157 768 176 768 l 46 768 m 17 815 q 26 794 17 803 q 46 785 35 785 l 157 785 q 177 794 168 785 q 186 815 186 803 l 186 956 l 126 956 l 126 844 l 76 844 l 76 956 l 17 956 l 17 815 z "},"Ĝ":{"ha":275,"x_min":0,"x_max":258,"o":"m 47 736 q 25 727 33 736 q 17 706 17 718 l 17 47 q 25 26 17 35 q 47 17 33 17 l 186 17 l 186 292 l 242 292 l 242 351 l 126 351 l 126 76 l 76 76 l 76 676 l 126 676 l 126 401 l 186 401 l 186 706 q 177 727 186 718 q 156 736 168 736 l 47 736 m 156 753 q 189 739 175 753 q 203 706 203 725 l 203 385 l 110 385 l 110 660 l 93 660 l 93 93 l 110 93 l 110 368 l 258 368 l 258 275 l 203 275 l 203 0 l 47 0 q 14 14 28 0 q 0 47 0 28 l 0 706 q 14 739 0 725 q 47 753 28 753 l 156 753 m 189 904 q 203 871 203 890 l 203 769 l 110 769 l 110 851 l 101 860 l 93 851 l 93 769 l 0 769 l 0 871 q 14 904 0 888 l 68 958 q 101 972 82 972 q 135 958 121 972 l 189 904 m 186 871 q 178 892 186 883 l 122 947 q 101 956 114 956 q 81 947 89 956 l 25 892 q 17 871 17 883 l 17 786 l 76 786 l 76 858 l 101 883 l 126 858 l 126 786 l 186 786 l 186 871 z "},"Ğ":{"ha":275,"x_min":0,"x_max":258,"o":"m 47 736 q 25 727 33 736 q 17 706 17 718 l 17 47 q 25 26 17 35 q 47 17 33 17 l 186 17 l 186 292 l 242 292 l 242 351 l 126 351 l 126 76 l 76 76 l 76 676 l 126 676 l 126 401 l 186 401 l 186 706 q 177 727 186 718 q 156 736 168 736 l 47 736 m 156 753 q 189 739 175 753 q 203 706 203 725 l 203 385 l 110 385 l 110 660 l 93 660 l 93 93 l 110 93 l 110 368 l 258 368 l 258 275 l 203 275 l 203 0 l 47 0 q 14 14 28 0 q 0 47 0 28 l 0 706 q 14 739 0 725 q 47 753 28 753 l 156 753 m 46 768 q 13 782 26 768 q 0 815 0 796 l 0 972 l 93 972 l 93 861 l 110 861 l 110 972 l 203 972 l 203 815 q 190 782 203 796 q 157 768 176 768 l 46 768 m 17 815 q 26 794 17 803 q 46 785 35 785 l 157 785 q 177 794 168 785 q 186 815 186 803 l 186 956 l 126 956 l 126 844 l 76 844 l 76 956 l 17 956 l 17 815 z "},"Ġ":{"ha":275,"x_min":0,"x_max":258,"o":"m 47 736 q 25 727 33 736 q 17 706 17 718 l 17 47 q 25 26 17 35 q 47 17 33 17 l 186 17 l 186 292 l 242 292 l 242 351 l 126 351 l 126 76 l 76 76 l 76 676 l 126 676 l 126 401 l 186 401 l 186 706 q 177 727 186 718 q 156 736 168 736 l 47 736 m 156 753 q 189 739 175 753 q 203 706 203 725 l 203 385 l 110 385 l 110 660 l 93 660 l 93 93 l 110 93 l 110 368 l 258 368 l 258 275 l 203 275 l 203 0 l 47 0 q 14 14 28 0 q 0 47 0 28 l 0 706 q 14 739 0 725 q 47 753 28 753 l 156 753 m 72 956 l 72 786 l 132 786 l 132 956 l 72 956 m 149 769 l 56 769 l 56 972 l 149 972 l 149 769 z "},"Ĥ":{"ha":219,"x_min":0,"x_max":203,"o":"m 126 736 l 126 407 l 76 407 l 76 736 l 17 736 l 17 17 l 76 17 l 76 346 l 126 346 l 126 17 l 186 17 l 186 736 l 126 736 m 203 0 l 110 0 l 110 329 l 93 329 l 93 0 l 0 0 l 0 753 l 93 753 l 93 424 l 110 424 l 110 753 l 203 753 l 203 0 m 189 904 q 203 871 203 890 l 203 769 l 110 769 l 110 851 l 101 860 l 93 851 l 93 769 l 0 769 l 0 871 q 14 904 0 888 l 68 958 q 101 972 82 972 q 135 958 121 972 l 189 904 m 186 871 q 178 892 186 883 l 122 947 q 101 956 114 956 q 81 947 89 956 l 25 892 q 17 871 17 883 l 17 786 l 76 786 l 76 858 l 101 883 l 126 858 l 126 786 l 186 786 l 186 871 z "},"ĥ":{"ha":219,"x_min":0,"x_max":203,"o":"m 93 753 l 93 644 l 157 644 q 190 631 176 644 q 203 597 203 617 l 203 0 l 110 0 l 110 551 l 93 551 l 93 0 l 0 0 l 0 753 l 93 753 m 76 628 l 76 736 l 17 736 l 17 17 l 76 17 l 76 568 l 126 568 l 126 17 l 186 17 l 186 597 q 178 619 186 610 q 157 628 169 628 l 76 628 m 189 904 q 203 871 203 890 l 203 769 l 110 769 l 110 851 l 101 860 l 93 851 l 93 769 l 0 769 l 0 871 q 14 904 0 888 l 68 958 q 101 972 82 972 q 135 958 121 972 l 189 904 m 186 871 q 178 892 186 883 l 122 947 q 101 956 114 956 q 81 947 89 956 l 25 892 q 17 871 17 883 l 17 786 l 76 786 l 76 858 l 101 883 l 126 858 l 126 786 l 186 786 l 186 871 z "},"Ħ":{"ha":329,"x_min":0,"x_max":313,"o":"m 313 660 l 258 660 l 258 0 l 165 0 l 165 439 l 149 439 l 149 0 l 56 0 l 56 660 l 0 660 l 0 753 l 56 753 l 56 972 l 149 972 l 149 753 l 165 753 l 165 972 l 258 972 l 258 753 l 313 753 l 313 660 m 296 736 l 242 736 l 242 956 l 182 956 l 182 736 l 132 736 l 132 956 l 72 956 l 72 736 l 17 736 l 17 676 l 72 676 l 72 17 l 132 17 l 132 456 l 182 456 l 182 17 l 242 17 l 242 676 l 296 676 l 296 736 m 182 676 l 182 515 l 132 515 l 132 676 l 182 676 m 165 660 l 149 660 l 149 532 l 165 532 l 165 660 z "},"ħ":{"ha":275,"x_min":0,"x_max":258,"o":"m 149 769 l 149 753 l 213 753 q 245 739 232 753 q 258 706 258 725 l 258 0 l 165 0 l 165 660 l 149 660 l 149 0 l 56 0 l 56 769 l 0 769 l 0 863 l 56 863 l 56 972 l 149 972 l 149 863 l 204 863 l 204 769 l 149 769 m 132 736 l 132 786 l 188 786 l 188 846 l 132 846 l 132 956 l 72 956 l 72 846 l 17 846 l 17 786 l 72 786 l 72 17 l 132 17 l 132 676 l 182 676 l 182 17 l 242 17 l 242 706 q 233 727 242 718 q 213 736 225 736 l 132 736 z "},"ĭ":{"ha":219,"x_min":0,"x_max":203,"o":"m 149 0 l 56 0 l 56 753 l 149 753 l 149 0 m 132 736 l 72 736 l 72 17 l 132 17 l 132 736 m 46 768 q 13 782 26 768 q 0 815 0 796 l 0 972 l 93 972 l 93 861 l 110 861 l 110 972 l 203 972 l 203 815 q 190 782 203 796 q 157 768 176 768 l 46 768 m 17 815 q 26 794 17 803 q 46 785 35 785 l 157 785 q 177 794 168 785 q 186 815 186 803 l 186 956 l 126 956 l 126 844 l 76 844 l 76 956 l 17 956 l 17 815 z "},"·":{"ha":110,"x_min":0,"x_max":93,"o":"m 17 461 l 17 292 l 78 292 l 78 461 l 17 461 m 93 275 l 0 275 l 0 478 l 93 478 l 93 275 z "},"º":{"ha":219,"x_min":0,"x_max":203,"o":"m 47 956 q 26 947 35 956 q 17 925 17 938 l 17 596 q 26 575 17 583 q 47 567 35 567 l 157 567 q 178 575 169 567 q 186 596 186 583 l 186 925 q 178 947 186 938 q 157 956 169 956 l 47 956 m 76 894 l 126 894 l 126 625 l 76 625 l 76 894 m 157 972 q 190 958 176 972 q 203 925 203 944 l 203 596 q 190 563 203 576 q 157 550 176 550 l 47 550 q 14 563 28 550 q 0 596 0 576 l 0 925 q 14 958 0 944 q 47 972 28 972 l 157 972 m 110 642 l 110 878 l 93 878 l 93 642 l 110 642 z "},"Ì":{"ha":329,"x_min":0,"x_max":313,"o":"m 17 736 l 17 401 l 76 401 l 76 676 l 126 676 l 126 76 l 76 76 l 76 351 l 17 351 l 17 17 l 296 17 l 296 351 l 236 351 l 236 76 l 186 76 l 186 676 l 236 676 l 236 401 l 296 401 l 296 736 l 17 736 m 313 385 l 219 385 l 219 660 l 203 660 l 203 93 l 219 93 l 219 368 l 313 368 l 313 0 l 0 0 l 0 368 l 93 368 l 93 93 l 110 93 l 110 660 l 93 660 l 93 385 l 0 385 l 0 753 l 313 753 l 313 385 m 147 972 l 147 863 l 257 863 l 257 769 l 101 769 q 68 783 82 769 q 54 815 54 796 l 54 972 l 147 972 m 131 846 l 131 956 l 71 956 l 71 815 q 80 794 71 803 q 101 786 89 786 l 240 786 l 240 846 l 131 846 z "},"Í":{"ha":329,"x_min":0,"x_max":313,"o":"m 296 736 l 296 401 l 236 401 l 236 676 l 186 676 l 186 76 l 236 76 l 236 351 l 296 351 l 296 17 l 17 17 l 17 351 l 76 351 l 76 76 l 126 76 l 126 676 l 76 676 l 76 401 l 17 401 l 17 736 l 296 736 m 313 753 l 0 753 l 0 385 l 93 385 l 93 660 l 110 660 l 110 93 l 93 93 l 93 368 l 0 368 l 0 0 l 313 0 l 313 368 l 219 368 l 219 93 l 203 93 l 203 660 l 219 660 l 219 385 l 313 385 l 313 753 m 257 972 l 257 815 q 243 783 257 796 q 210 769 229 769 l 54 769 l 54 863 l 164 863 l 164 972 l 257 972 m 71 846 l 71 786 l 210 786 q 231 794 222 786 q 240 815 240 803 l 240 956 l 181 956 l 181 846 l 71 846 z "},"Î":{"ha":329,"x_min":0,"x_max":313,"o":"m 17 736 l 17 401 l 76 401 l 76 676 l 126 676 l 126 76 l 76 76 l 76 351 l 17 351 l 17 17 l 296 17 l 296 351 l 236 351 l 236 76 l 186 76 l 186 676 l 236 676 l 236 401 l 296 401 l 296 736 l 17 736 m 313 385 l 219 385 l 219 660 l 203 660 l 203 93 l 219 93 l 219 368 l 313 368 l 313 0 l 0 0 l 0 368 l 93 368 l 93 93 l 110 93 l 110 660 l 93 660 l 93 385 l 0 385 l 0 753 l 313 753 l 313 385 m 243 904 q 257 871 257 890 l 257 769 l 164 769 l 164 851 l 156 860 l 147 851 l 147 769 l 54 769 l 54 871 q 68 904 54 888 l 122 958 q 156 972 136 972 q 189 958 175 972 l 243 904 m 240 871 q 232 892 240 883 l 176 947 q 156 956 168 956 q 135 947 143 956 l 79 892 q 71 871 71 883 l 71 786 l 131 786 l 131 858 l 156 883 l 181 858 l 181 786 l 240 786 l 240 871 z "},"Ï":{"ha":329,"x_min":0,"x_max":313,"o":"m 17 736 l 17 401 l 76 401 l 76 676 l 126 676 l 126 76 l 76 76 l 76 351 l 17 351 l 17 17 l 296 17 l 296 351 l 236 351 l 236 76 l 186 76 l 186 676 l 236 676 l 236 401 l 296 401 l 296 736 l 17 736 m 313 385 l 219 385 l 219 660 l 203 660 l 203 93 l 219 93 l 219 368 l 313 368 l 313 0 l 0 0 l 0 368 l 93 368 l 93 93 l 110 93 l 110 660 l 93 660 l 93 385 l 0 385 l 0 753 l 313 753 l 313 385 m 181 956 l 181 786 l 240 786 l 240 956 l 181 956 m 71 956 l 71 786 l 131 786 l 131 956 l 71 956 m 257 769 l 164 769 l 164 972 l 257 972 l 257 769 m 147 769 l 54 769 l 54 972 l 147 972 l 147 769 z "},"Ā":{"ha":219,"x_min":0,"x_max":203,"o":"m 46 846 q 25 837 33 846 q 17 815 17 828 l 17 17 l 76 17 l 76 400 l 126 400 l 126 17 l 186 17 l 186 815 q 177 837 186 828 q 156 846 168 846 l 46 846 m 76 786 l 126 786 l 126 461 l 76 461 l 76 786 m 156 863 q 189 849 175 863 q 203 815 203 835 l 203 0 l 110 0 l 110 383 l 93 383 l 93 0 l 0 0 l 0 815 q 13 849 0 835 q 46 863 26 863 l 156 863 m 110 478 l 110 769 l 93 769 l 93 478 l 110 478 m 17 956 l 17 896 l 186 896 l 186 956 l 17 956 m 203 879 l 0 879 l 0 972 l 203 972 l 203 879 z "},"Ĩ":{"ha":329,"x_min":0,"x_max":313,"o":"m 17 736 l 17 401 l 76 401 l 76 676 l 126 676 l 126 76 l 76 76 l 76 351 l 17 351 l 17 17 l 296 17 l 296 351 l 236 351 l 236 76 l 186 76 l 186 676 l 236 676 l 236 401 l 296 401 l 296 736 l 17 736 m 313 385 l 219 385 l 219 660 l 203 660 l 203 93 l 219 93 l 219 368 l 313 368 l 313 0 l 0 0 l 0 368 l 93 368 l 93 93 l 110 93 l 110 660 l 93 660 l 93 385 l 0 385 l 0 753 l 313 753 l 313 385 m 164 972 l 257 972 l 257 871 q 243 838 257 851 q 210 824 229 824 l 147 824 l 147 769 l 54 769 l 54 871 q 67 903 54 890 q 100 917 81 917 l 164 917 l 164 972 m 181 900 l 100 900 q 80 892 89 900 q 71 871 71 883 l 71 786 l 131 786 l 131 840 l 210 840 q 231 849 222 840 q 240 871 240 858 l 240 956 l 181 956 l 181 900 z "},"Ī":{"ha":329,"x_min":0,"x_max":313,"o":"m 17 846 l 17 457 l 76 457 l 76 786 l 126 786 l 126 76 l 76 76 l 76 407 l 17 407 l 17 17 l 296 17 l 296 407 l 236 407 l 236 76 l 186 76 l 186 786 l 236 786 l 236 457 l 296 457 l 296 846 l 17 846 m 313 440 l 219 440 l 219 769 l 203 769 l 203 93 l 219 93 l 219 424 l 313 424 l 313 0 l 0 0 l 0 424 l 93 424 l 93 93 l 110 93 l 110 769 l 93 769 l 93 440 l 0 440 l 0 863 l 313 863 l 313 440 m 72 956 l 72 896 l 242 896 l 242 956 l 72 956 m 258 879 l 56 879 l 56 972 l 258 972 l 258 879 z "},"Ĭ":{"ha":329,"x_min":0,"x_max":313,"o":"m 17 736 l 17 401 l 76 401 l 76 676 l 126 676 l 126 76 l 76 76 l 76 351 l 17 351 l 17 17 l 296 17 l 296 351 l 236 351 l 236 76 l 186 76 l 186 676 l 236 676 l 236 401 l 296 401 l 296 736 l 17 736 m 313 385 l 219 385 l 219 660 l 203 660 l 203 93 l 219 93 l 219 368 l 313 368 l 313 0 l 0 0 l 0 368 l 93 368 l 93 93 l 110 93 l 110 660 l 93 660 l 93 385 l 0 385 l 0 753 l 313 753 l 313 385 m 100 768 q 67 782 81 768 q 54 815 54 796 l 54 972 l 147 972 l 147 861 l 164 861 l 164 972 l 257 972 l 257 815 q 244 782 257 796 q 211 768 231 768 l 100 768 m 71 815 q 80 794 71 803 q 100 785 89 785 l 211 785 q 231 794 222 785 q 240 815 240 803 l 240 956 l 181 956 l 181 844 l 131 844 l 131 956 l 71 956 l 71 815 z "},"İ":{"ha":329,"x_min":0,"x_max":313,"o":"m 17 736 l 17 401 l 76 401 l 76 676 l 126 676 l 126 76 l 76 76 l 76 351 l 17 351 l 17 17 l 296 17 l 296 351 l 236 351 l 236 76 l 186 76 l 186 676 l 236 676 l 236 401 l 296 401 l 296 736 l 17 736 m 313 385 l 219 385 l 219 660 l 203 660 l 203 93 l 219 93 l 219 368 l 313 368 l 313 0 l 0 0 l 0 368 l 93 368 l 93 93 l 110 93 l 110 660 l 93 660 l 93 385 l 0 385 l 0 753 l 313 753 l 313 385 m 126 956 l 126 786 l 186 786 l 186 956 l 126 956 m 203 769 l 110 769 l 110 972 l 203 972 l 203 769 z "},"Ĳ":{"ha":549,"x_min":0,"x_max":532,"o":"m 17 956 l 17 511 l 76 511 l 76 896 l 126 896 l 126 76 l 76 76 l 76 461 l 17 461 l 17 17 l 296 17 l 296 461 l 236 461 l 236 76 l 186 76 l 186 896 l 236 896 l 236 511 l 296 511 l 296 956 l 17 956 m 313 494 l 219 494 l 219 879 l 203 879 l 203 93 l 219 93 l 219 478 l 313 478 l 313 0 l 0 0 l 0 478 l 93 478 l 93 93 l 110 93 l 110 879 l 93 879 l 93 494 l 0 494 l 0 972 l 313 972 l 313 494 m 346 956 l 346 786 l 406 786 l 406 896 l 456 896 l 456 76 l 406 76 l 406 461 l 346 461 l 346 47 q 355 26 346 35 q 376 17 364 17 l 486 17 q 507 26 499 17 q 515 47 515 35 l 515 956 l 346 956 m 532 47 q 519 14 532 28 q 486 0 506 0 l 376 0 q 343 14 357 0 q 329 47 329 28 l 329 478 l 422 478 l 422 93 l 439 93 l 439 879 l 422 879 l 422 769 l 329 769 l 329 972 l 532 972 l 532 47 z "},"ĳ":{"ha":219,"x_min":0,"x_max":203,"o":"m 93 0 l 0 0 l 0 753 l 93 753 l 93 0 m 76 736 l 17 736 l 17 17 l 76 17 l 76 736 m 93 769 l 0 769 l 0 972 l 93 972 l 93 769 m 76 956 l 17 956 l 17 786 l 76 786 l 76 956 m 47 -219 q 14 -206 28 -219 q 0 -174 0 -193 l 0 -17 l 93 -17 l 93 -126 l 110 -126 l 110 753 l 203 753 l 203 -174 q 190 -206 203 -193 q 157 -219 176 -219 l 47 -219 m 17 -174 q 26 -194 17 -186 q 47 -203 35 -203 l 157 -203 q 178 -194 169 -203 q 186 -174 186 -186 l 186 736 l 126 736 l 126 -143 l 76 -143 l 76 -33 l 17 -33 l 17 -174 m 110 972 l 203 972 l 203 769 l 110 769 l 110 972 m 126 786 l 186 786 l 186 956 l 126 956 l 126 786 z "},"ĵ":{"ha":219,"x_min":0,"x_max":203,"o":"m 47 -219 q 14 -206 28 -219 q 0 -174 0 -193 l 0 -17 l 93 -17 l 93 -126 l 110 -126 l 110 753 l 203 753 l 203 -174 q 190 -206 203 -193 q 157 -219 176 -219 l 47 -219 m 17 -174 q 26 -194 17 -186 q 47 -203 35 -203 l 157 -203 q 178 -194 169 -203 q 186 -174 186 -186 l 186 736 l 126 736 l 126 -143 l 76 -143 l 76 -33 l 17 -33 l 17 -174 m 189 904 q 203 871 203 890 l 203 769 l 110 769 l 110 851 l 101 860 l 93 851 l 93 769 l 0 769 l 0 871 q 14 904 0 888 l 68 958 q 101 972 82 972 q 135 958 121 972 l 189 904 m 186 871 q 178 892 186 883 l 122 947 q 101 956 114 956 q 81 947 89 956 l 25 892 q 17 871 17 883 l 17 786 l 76 786 l 76 858 l 101 883 l 126 858 l 126 786 l 186 786 l 186 871 z "},"Ķ":{"ha":219,"x_min":0,"x_max":203,"o":"m 71 -33 l 71 -143 l 17 -143 l 17 -203 l 101 -203 q 122 -194 114 -203 q 131 -172 131 -185 l 131 -33 l 71 -33 m 147 -172 q 134 -206 147 -192 q 101 -219 121 -219 l 0 -219 l 0 -126 l 54 -126 l 54 -17 l 147 -17 l 147 -172 m 126 956 l 126 571 l 76 571 l 76 956 l 17 956 l 17 17 l 76 17 l 76 401 l 126 401 l 126 17 l 186 17 l 186 431 q 177 452 186 443 q 156 461 168 461 l 76 461 l 76 511 l 156 511 q 177 520 168 511 q 186 542 186 529 l 186 956 l 126 956 m 203 542 q 189 508 203 522 q 156 494 175 494 l 93 494 l 93 478 l 156 478 q 189 464 175 478 q 203 431 203 450 l 203 0 l 110 0 l 110 385 l 93 385 l 93 0 l 0 0 l 0 972 l 93 972 l 93 588 l 110 588 l 110 972 l 203 972 l 203 542 z "},"ĸ":{"ha":219,"x_min":0,"x_max":203,"o":"m 126 736 l 126 463 l 76 463 l 76 736 l 17 736 l 17 17 l 76 17 l 76 293 l 126 293 l 126 17 l 186 17 l 186 322 q 177 344 186 335 q 156 353 168 353 l 76 353 l 76 403 l 156 403 q 177 412 168 403 q 186 433 186 421 l 186 736 l 126 736 m 203 433 q 189 400 203 414 q 156 386 175 386 l 93 386 l 93 369 l 156 369 q 189 356 175 369 q 203 322 203 342 l 203 0 l 110 0 l 110 276 l 93 276 l 93 0 l 0 0 l 0 753 l 93 753 l 93 479 l 110 479 l 110 753 l 203 753 l 203 433 z "},"Ŀ":{"ha":219,"x_min":0,"x_max":203,"o":"m 17 956 l 17 17 l 186 17 l 186 351 l 126 351 l 126 76 l 76 76 l 76 956 l 17 956 m 93 93 l 110 93 l 110 368 l 203 368 l 203 0 l 0 0 l 0 972 l 93 972 l 93 93 m 126 571 l 126 401 l 188 401 l 188 571 l 126 571 m 203 385 l 110 385 l 110 588 l 203 588 l 203 385 z "},"ŀ":{"ha":219,"x_min":0,"x_max":203,"o":"m 93 0 l 0 0 l 0 972 l 93 972 l 93 0 m 76 956 l 17 956 l 17 17 l 76 17 l 76 956 m 126 571 l 126 401 l 188 401 l 188 571 l 126 571 m 203 385 l 110 385 l 110 588 l 203 588 l 203 385 z "},"Ł":{"ha":275,"x_min":0,"x_max":258,"o":"m 258 0 l 56 0 l 56 494 l 0 494 l 0 588 l 56 588 l 56 972 l 149 972 l 149 588 l 203 588 l 203 494 l 149 494 l 149 93 l 165 93 l 165 478 l 258 478 l 258 0 m 71 511 l 72 17 l 242 17 l 242 461 l 182 461 l 182 76 l 132 76 l 132 511 l 186 511 l 186 571 l 132 571 l 132 956 l 72 956 l 72 571 l 17 571 l 17 511 l 71 511 z "},"ł":{"ha":219,"x_min":0,"x_max":203,"o":"m 149 0 l 56 0 l 56 494 l 0 494 l 0 588 l 56 588 l 56 972 l 149 972 l 149 588 l 203 588 l 203 494 l 149 494 l 149 0 m 132 511 l 186 511 l 186 571 l 132 571 l 132 956 l 72 956 l 72 571 l 17 571 l 17 511 l 72 511 l 72 17 l 132 17 l 132 511 z "},"ŉ":{"ha":219,"x_min":0,"x_max":203,"o":"m 157 753 q 190 739 176 753 q 203 706 203 725 l 203 0 l 110 0 l 110 660 l 93 660 l 93 0 l 0 0 l 0 753 l 157 753 m 186 706 q 178 727 186 718 q 157 736 169 736 l 17 736 l 17 17 l 76 17 l 76 676 l 126 676 l 126 17 l 186 17 l 186 706 z "},"Ŋ":{"ha":219,"x_min":0,"x_max":203,"o":"m 110 -17 l 110 879 l 93 879 l 93 0 l 0 0 l 0 972 l 157 972 q 190 958 176 972 q 203 925 203 944 l 203 -64 q 190 -97 203 -83 q 157 -110 176 -110 l 56 -110 l 56 -17 l 110 -17 m 126 896 l 126 -33 l 72 -33 l 72 -93 l 157 -93 q 177 -85 168 -93 q 186 -64 186 -76 l 186 925 q 177 947 186 938 q 157 956 168 956 l 17 956 l 17 17 l 76 17 l 76 896 l 126 896 z "},"ŋ":{"ha":219,"x_min":0,"x_max":203,"o":"m 110 -17 l 110 660 l 93 660 l 93 0 l 0 0 l 0 753 l 157 753 q 190 739 176 753 q 203 706 203 725 l 203 -64 q 190 -97 203 -83 q 157 -110 176 -110 l 56 -110 l 56 -17 l 110 -17 m 126 676 l 126 -33 l 72 -33 l 72 -93 l 157 -93 q 177 -85 168 -93 q 186 -64 186 -76 l 186 706 q 177 727 186 718 q 157 736 168 736 l 17 736 l 17 17 l 76 17 l 76 676 l 126 676 z "},"Ŏ":{"ha":219,"x_min":0,"x_max":203,"o":"m 46 768 q 13 782 26 768 q 0 815 0 796 l 0 972 l 93 972 l 93 861 l 110 861 l 110 972 l 203 972 l 203 815 q 190 782 203 796 q 157 768 176 768 l 46 768 m 17 815 q 26 794 17 803 q 46 785 35 785 l 157 785 q 177 794 168 785 q 186 815 186 803 l 186 956 l 126 956 l 126 844 l 76 844 l 76 956 l 17 956 l 17 815 m 156 753 q 189 739 175 753 q 203 706 203 725 l 203 47 q 189 14 203 28 q 156 0 175 0 l 46 0 q 13 14 26 0 q 0 47 0 28 l 0 706 q 13 739 0 725 q 46 753 26 753 l 156 753 m 186 706 q 177 727 186 718 q 156 736 168 736 l 46 736 q 25 727 33 736 q 17 706 17 718 l 17 47 q 25 26 17 35 q 46 17 33 17 l 156 17 q 177 26 168 17 q 186 47 186 35 l 186 706 m 126 676 l 126 76 l 75 76 l 75 676 l 126 676 m 110 660 l 92 660 l 92 93 l 110 93 l 110 660 z "},"ŏ":{"ha":219,"x_min":0,"x_max":203,"o":"m 156 753 q 189 739 175 753 q 203 706 203 725 l 203 47 q 189 14 203 28 q 156 0 175 0 l 46 0 q 13 14 26 0 q 0 47 0 28 l 0 706 q 13 739 0 725 q 46 753 26 753 l 156 753 m 186 706 q 177 727 186 718 q 156 736 168 736 l 46 736 q 25 727 33 736 q 17 706 17 718 l 17 47 q 25 26 17 35 q 46 17 33 17 l 156 17 q 177 26 168 17 q 186 47 186 35 l 186 706 m 126 676 l 126 76 l 75 76 l 75 676 l 126 676 m 110 660 l 92 660 l 92 93 l 110 93 l 110 660 m 46 768 q 13 782 26 768 q 0 815 0 796 l 0 972 l 93 972 l 93 861 l 110 861 l 110 972 l 203 972 l 203 815 q 190 782 203 796 q 157 768 176 768 l 46 768 m 17 815 q 26 794 17 803 q 46 785 35 785 l 157 785 q 177 794 168 785 q 186 815 186 803 l 186 956 l 126 956 l 126 844 l 76 844 l 76 956 l 17 956 l 17 815 z "},"Ť":{"ha":329,"x_min":0,"x_max":313,"o":"m 93 385 l 0 385 l 0 753 l 313 753 l 313 385 l 219 385 l 219 660 l 203 660 l 203 0 l 110 0 l 110 660 l 93 660 l 93 385 m 76 676 l 126 676 l 126 17 l 186 17 l 186 676 l 236 676 l 236 401 l 296 401 l 296 736 l 17 736 l 17 401 l 76 401 l 76 676 m 190 783 q 157 769 176 769 q 124 783 138 769 l 69 838 q 56 871 56 854 l 56 972 l 149 972 l 149 890 l 157 882 l 165 890 l 165 972 l 258 972 l 258 871 q 244 838 258 851 l 190 783 m 242 956 l 182 956 l 182 883 l 157 858 l 132 883 l 132 956 l 72 956 l 72 871 q 81 850 72 858 l 136 794 q 157 786 144 786 q 178 794 169 786 l 233 850 q 242 871 242 858 l 242 956 z "},"Ũ":{"ha":219,"x_min":0,"x_max":203,"o":"m 110 972 l 203 972 l 203 871 q 189 838 203 851 q 156 824 175 824 l 93 824 l 93 769 l 0 769 l 0 871 q 13 903 0 890 q 46 917 26 917 l 110 917 l 110 972 m 126 900 l 46 900 q 26 892 35 900 q 17 871 17 883 l 17 786 l 76 786 l 76 840 l 156 840 q 177 849 168 840 q 186 871 186 858 l 186 956 l 126 956 l 126 900 m 93 93 l 110 93 l 110 753 l 203 753 l 203 47 q 190 14 203 28 q 157 0 176 0 l 47 0 q 14 14 28 0 q 0 47 0 28 l 0 753 l 93 753 l 93 93 m 76 76 l 76 736 l 17 736 l 17 47 q 26 26 17 35 q 47 17 35 17 l 157 17 q 178 26 169 17 q 186 47 186 35 l 186 736 l 126 736 l 126 76 l 76 76 z "},"Ū":{"ha":219,"x_min":0,"x_max":203,"o":"m 93 93 l 110 93 l 110 863 l 203 863 l 203 47 q 190 14 203 28 q 157 0 176 0 l 47 0 q 14 14 28 0 q 0 47 0 28 l 0 863 l 93 863 l 93 93 m 76 76 l 76 846 l 17 846 l 17 47 q 26 26 17 35 q 47 17 35 17 l 157 17 q 178 26 169 17 q 186 47 186 35 l 186 846 l 126 846 l 126 76 l 76 76 m 17 956 l 17 896 l 186 896 l 186 956 l 17 956 m 203 879 l 0 879 l 0 972 l 203 972 l 203 879 z "},"Ŭ":{"ha":219,"x_min":0,"x_max":203,"o":"m 46 768 q 13 782 26 768 q 0 815 0 796 l 0 972 l 93 972 l 93 861 l 110 861 l 110 972 l 203 972 l 203 815 q 190 782 203 796 q 157 768 176 768 l 46 768 m 17 815 q 26 794 17 803 q 46 785 35 785 l 157 785 q 177 794 168 785 q 186 815 186 803 l 186 956 l 126 956 l 126 844 l 76 844 l 76 956 l 17 956 l 17 815 m 93 93 l 110 93 l 110 753 l 203 753 l 203 47 q 190 14 203 28 q 157 0 176 0 l 47 0 q 14 14 28 0 q 0 47 0 28 l 0 753 l 93 753 l 93 93 m 76 76 l 76 736 l 17 736 l 17 47 q 26 26 17 35 q 47 17 35 17 l 157 17 q 178 26 169 17 q 186 47 186 35 l 186 736 l 126 736 l 126 76 l 76 76 z "},"Ŵ":{"ha":329,"x_min":0,"x_max":313,"o":"m 244 904 q 258 871 258 890 l 258 769 l 165 769 l 165 851 l 157 860 l 149 851 l 149 769 l 56 769 l 56 871 q 69 904 56 888 l 124 958 q 157 972 138 972 q 190 958 176 972 l 244 904 m 242 871 q 233 892 242 883 l 178 947 q 157 956 169 956 q 136 947 144 956 l 81 892 q 72 871 72 883 l 72 786 l 132 786 l 132 858 l 157 883 l 182 858 l 182 786 l 242 786 l 242 871 m 313 47 q 299 14 313 28 q 267 0 286 0 l 0 0 l 0 753 l 93 753 l 93 93 l 110 93 l 110 753 l 203 753 l 203 93 l 219 93 l 219 753 l 313 753 l 313 47 m 17 17 l 267 17 q 288 26 279 17 q 296 47 296 35 l 296 736 l 236 736 l 236 76 l 186 76 l 186 736 l 126 736 l 126 76 l 76 76 l 76 736 l 17 736 l 17 17 z "},"ŵ":{"ha":329,"x_min":0,"x_max":313,"o":"m 313 47 q 299 14 313 28 q 267 0 286 0 l 0 0 l 0 753 l 93 753 l 93 93 l 110 93 l 110 753 l 203 753 l 203 93 l 219 93 l 219 753 l 313 753 l 313 47 m 17 17 l 267 17 q 288 26 279 17 q 296 47 296 35 l 296 736 l 236 736 l 236 76 l 186 76 l 186 736 l 126 736 l 126 76 l 76 76 l 76 736 l 17 736 l 17 17 m 244 904 q 258 871 258 890 l 258 769 l 165 769 l 165 851 l 157 860 l 149 851 l 149 769 l 56 769 l 56 871 q 69 904 56 888 l 124 958 q 157 972 138 972 q 190 958 176 972 l 244 904 m 242 871 q 233 892 242 883 l 178 947 q 157 956 169 956 q 136 947 144 956 l 81 892 q 72 871 72 883 l 72 786 l 132 786 l 132 858 l 157 883 l 182 858 l 182 786 l 242 786 l 242 871 z "},"Ŷ":{"ha":219,"x_min":0,"x_max":203,"o":"m 47 329 q 14 342 28 329 q 0 375 0 356 l 0 753 l 93 753 l 93 422 l 110 422 l 110 753 l 203 753 l 203 375 q 190 342 203 356 q 157 329 176 329 l 147 329 l 147 0 l 56 0 l 56 329 l 47 329 m 17 375 q 26 355 17 364 q 47 346 35 346 l 72 346 l 72 17 l 131 17 l 131 346 l 157 346 q 178 355 169 346 q 186 375 186 364 l 186 736 l 126 736 l 126 406 l 76 406 l 76 736 l 17 736 l 17 375 m 189 904 q 203 871 203 890 l 203 769 l 110 769 l 110 851 l 101 860 l 93 851 l 93 769 l 0 769 l 0 871 q 14 904 0 888 l 68 958 q 101 972 82 972 q 135 958 121 972 l 189 904 m 186 871 q 178 892 186 883 l 122 947 q 101 956 114 956 q 81 947 89 956 l 25 892 q 17 871 17 883 l 17 786 l 76 786 l 76 858 l 101 883 l 126 858 l 126 786 l 186 786 l 186 871 z "},"ŷ":{"ha":219,"x_min":0,"x_max":203,"o":"m 93 93 l 110 93 l 110 753 l 203 753 l 203 -174 q 190 -206 203 -193 q 157 -219 176 -219 l 46 -219 q 13 -206 26 -219 q 0 -174 0 -193 l 0 -17 l 93 -17 l 93 -126 l 110 -126 l 110 0 l 46 0 q 13 14 26 0 q 0 47 0 28 l 0 753 l 93 753 l 93 93 m 76 76 l 76 736 l 17 736 l 17 47 q 26 26 17 35 q 46 17 35 17 l 126 17 l 126 -143 l 76 -143 l 76 -33 l 17 -33 l 17 -174 q 26 -194 17 -186 q 46 -203 35 -203 l 157 -203 q 177 -194 168 -203 q 186 -174 186 -186 l 186 736 l 126 736 l 126 76 l 76 76 m 189 904 q 203 871 203 890 l 203 769 l 110 769 l 110 851 l 101 860 l 93 851 l 93 769 l 0 769 l 0 871 q 14 904 0 888 l 68 958 q 101 972 82 972 q 135 958 121 972 l 189 904 m 186 871 q 178 892 186 883 l 122 947 q 101 956 114 956 q 81 947 89 956 l 25 892 q 17 871 17 883 l 17 786 l 76 786 l 76 858 l 101 883 l 126 858 l 126 786 l 186 786 l 186 871 z "},"ſ":{"ha":275,"x_min":0,"x_max":258,"o":"m 258 660 l 165 660 l 165 879 l 149 879 l 149 0 l 56 0 l 56 550 l 0 550 l 0 643 l 56 643 l 56 925 q 69 958 56 944 q 101 972 82 972 l 211 972 q 244 958 231 972 q 258 925 258 944 l 258 660 m 242 925 q 233 947 242 938 q 211 956 224 956 l 101 956 q 81 947 89 956 q 72 925 72 938 l 72 626 l 17 626 l 17 567 l 72 567 l 72 17 l 132 17 l 132 896 l 182 896 l 182 676 l 242 676 l 242 925 z "},"Ǻ":{"ha":219,"x_min":0,"x_max":203,"o":"m 46 626 q 25 617 33 626 q 17 596 17 608 l 17 17 l 76 17 l 76 290 l 126 290 l 126 17 l 186 17 l 186 596 q 177 617 186 608 q 156 626 168 626 l 46 626 m 76 567 l 126 567 l 126 351 l 76 351 l 76 567 m 156 643 q 189 629 175 643 q 203 596 203 615 l 203 0 l 110 0 l 110 274 l 93 274 l 93 0 l 0 0 l 0 596 q 13 629 0 615 q 46 643 26 643 l 156 643 m 110 368 l 110 550 l 93 550 l 93 368 l 110 368 m 126 786 l 126 736 l 76 736 l 76 786 l 126 786 m 110 769 l 93 769 l 93 753 l 110 753 l 110 769 m 156 863 q 189 849 175 863 q 203 815 203 835 l 203 706 q 189 673 203 686 q 156 660 175 660 l 46 660 q 13 673 26 660 q 0 706 0 686 l 0 815 q 13 849 0 835 q 46 863 26 863 l 156 863 m 186 815 q 177 837 186 828 q 156 846 168 846 l 46 846 q 25 837 33 846 q 17 815 17 828 l 17 706 q 25 685 17 693 q 46 676 33 676 l 156 676 q 177 685 168 676 q 186 706 186 693 l 186 815 m 17 956 l 17 896 l 186 896 l 186 956 l 17 956 m 203 879 l 0 879 l 0 972 l 203 972 l 203 879 z "},"ǻ":{"ha":219,"x_min":0,"x_max":203,"o":"m 126 292 l 126 78 l 76 78 l 76 292 l 126 292 m 110 275 l 93 275 l 93 94 l 110 94 l 110 275 m 0 597 q 14 630 0 617 q 47 643 28 643 l 157 643 q 190 630 176 643 q 203 597 203 617 l 203 0 l 47 0 q 14 14 28 0 q 0 47 0 28 l 0 321 q 14 354 0 340 q 47 368 28 368 l 110 368 l 110 550 l 93 550 l 93 385 l 0 385 l 0 597 m 17 401 l 76 401 l 76 567 l 126 567 l 126 351 l 47 351 q 26 342 35 351 q 17 321 17 333 l 17 47 q 26 26 17 35 q 47 17 35 17 l 186 17 l 186 597 q 178 618 186 610 q 157 626 169 626 l 47 626 q 26 618 35 626 q 17 597 17 610 l 17 401 m 126 786 l 126 736 l 76 736 l 76 786 l 126 786 m 110 769 l 93 769 l 93 753 l 110 753 l 110 769 m 156 863 q 189 849 175 863 q 203 815 203 835 l 203 706 q 189 673 203 686 q 156 660 175 660 l 46 660 q 13 673 26 660 q 0 706 0 686 l 0 815 q 13 849 0 835 q 46 863 26 863 l 156 863 m 186 815 q 177 837 186 828 q 156 846 168 846 l 46 846 q 25 837 33 846 q 17 815 17 828 l 17 706 q 25 685 17 693 q 46 676 33 676 l 156 676 q 177 685 168 676 q 186 706 186 693 l 186 815 m 17 956 l 17 896 l 186 896 l 186 956 l 17 956 m 203 879 l 0 879 l 0 972 l 203 972 l 203 879 z "},"Ǽ":{"ha":329,"x_min":0,"x_max":313,"o":"m 126 404 l 126 676 l 76 676 l 76 404 l 126 404 m 93 660 l 110 660 l 110 421 l 93 421 l 93 660 m 0 706 l 0 0 l 93 0 l 93 328 l 110 328 l 110 0 l 313 0 l 313 311 l 219 311 l 219 93 l 203 93 l 203 328 l 313 328 l 313 421 l 203 421 l 203 660 l 219 660 l 219 439 l 313 439 l 313 753 l 46 753 q 13 739 26 753 q 0 706 0 725 m 17 706 q 26 727 17 718 q 46 736 35 736 l 296 736 l 296 456 l 236 456 l 236 676 l 186 676 l 186 404 l 296 404 l 296 344 l 186 344 l 186 76 l 236 76 l 236 294 l 296 294 l 296 17 l 126 17 l 126 344 l 76 344 l 76 17 l 17 17 l 17 706 m 258 972 l 258 815 q 244 783 258 796 q 211 769 231 769 l 56 769 l 56 863 l 165 863 l 165 972 l 258 972 m 72 846 l 72 786 l 211 786 q 233 794 224 786 q 242 815 242 803 l 242 956 l 182 956 l 182 846 l 72 846 z "},"ǽ":{"ha":329,"x_min":0,"x_max":313,"o":"m 186 406 l 186 676 l 236 676 l 236 406 l 186 406 m 203 422 l 219 422 l 219 660 l 203 660 l 203 422 m 0 706 q 13 739 0 725 q 46 753 26 753 l 267 753 q 299 739 286 753 q 313 706 313 725 l 313 329 l 203 329 l 203 93 l 219 93 l 219 313 l 313 313 l 313 46 q 299 13 313 26 q 267 0 286 0 l 46 0 q 13 13 26 0 q 0 46 0 26 l 0 376 q 13 409 0 396 q 46 422 26 422 l 110 422 l 110 660 l 93 660 l 93 439 l 0 439 l 0 706 m 296 706 q 288 727 296 718 q 267 736 279 736 l 46 736 q 26 727 35 736 q 17 706 17 718 l 17 456 l 76 456 l 76 676 l 126 676 l 126 406 l 46 406 q 26 397 35 406 q 17 376 17 389 l 17 46 q 26 26 17 35 q 46 17 35 17 l 267 17 q 288 26 279 17 q 296 46 296 35 l 296 296 l 236 296 l 236 76 l 186 76 l 186 346 l 296 346 l 296 706 m 126 346 l 126 76 l 76 76 l 76 346 l 126 346 m 110 329 l 93 329 l 93 93 l 110 93 l 110 329 m 257 972 l 257 815 q 243 783 257 796 q 210 769 229 769 l 54 769 l 54 863 l 164 863 l 164 972 l 257 972 m 71 846 l 71 786 l 210 786 q 231 794 222 786 q 240 815 240 803 l 240 956 l 181 956 l 181 846 l 71 846 z "},"Ǿ":{"ha":329,"x_min":0,"x_max":313,"o":"m 313 706 q 299 739 313 725 q 267 753 286 753 l 46 753 q 13 739 26 753 q 0 706 0 725 l 0 156 q 13 123 0 136 q 46 110 26 110 l 110 110 l 110 0 l 203 0 l 203 110 l 267 110 q 299 123 286 110 q 313 156 313 136 l 313 706 m 296 156 q 288 135 296 144 q 267 126 279 126 l 186 126 l 186 17 l 126 17 l 126 126 l 46 126 q 26 135 35 126 q 17 156 17 144 l 17 706 q 26 727 17 718 q 46 736 35 736 l 267 736 q 288 727 279 736 q 296 706 296 718 l 296 156 m 76 676 l 76 186 l 126 186 l 126 676 l 76 676 m 110 203 l 93 203 l 93 660 l 110 660 l 110 203 m 186 676 l 186 186 l 236 186 l 236 676 l 186 676 m 219 203 l 203 203 l 203 660 l 219 660 l 219 203 m 258 972 l 258 815 q 244 783 258 796 q 211 769 231 769 l 56 769 l 56 863 l 165 863 l 165 972 l 258 972 m 72 846 l 72 786 l 211 786 q 233 794 224 786 q 242 815 242 803 l 242 956 l 182 956 l 182 846 l 72 846 z "},"ǿ":{"ha":329,"x_min":0,"x_max":313,"o":"m 313 706 q 299 739 313 725 q 267 753 286 753 l 46 753 q 13 739 26 753 q 0 706 0 725 l 0 46 q 13 13 0 26 q 46 0 26 0 l 110 0 l 110 -110 l 203 -110 l 203 0 l 267 0 q 299 13 286 0 q 313 46 313 26 l 313 706 m 296 46 q 288 26 296 35 q 267 17 279 17 l 186 17 l 186 -93 l 126 -93 l 126 17 l 46 17 q 26 26 35 17 q 17 46 17 35 l 17 706 q 26 727 17 718 q 46 736 35 736 l 267 736 q 288 727 279 736 q 296 706 296 718 l 296 46 m 76 676 l 76 76 l 126 76 l 126 676 l 76 676 m 110 93 l 93 93 l 93 660 l 110 660 l 110 93 m 186 676 l 186 76 l 236 76 l 236 676 l 186 676 m 219 93 l 203 93 l 203 660 l 219 660 l 219 93 m 258 972 l 258 815 q 244 783 258 796 q 211 769 231 769 l 56 769 l 56 863 l 165 863 l 165 972 l 258 972 m 72 846 l 72 786 l 211 786 q 233 794 224 786 q 242 815 242 803 l 242 956 l 182 956 l 182 846 l 72 846 z "},"Ẁ":{"ha":329,"x_min":0,"x_max":313,"o":"m 149 972 l 149 863 l 258 863 l 258 769 l 103 769 q 69 783 83 769 q 56 815 56 796 l 56 972 l 149 972 m 132 846 l 132 956 l 72 956 l 72 815 q 81 794 72 803 q 103 786 90 786 l 242 786 l 242 846 l 132 846 m 313 47 q 299 14 313 28 q 267 0 286 0 l 0 0 l 0 753 l 93 753 l 93 93 l 110 93 l 110 753 l 203 753 l 203 93 l 219 93 l 219 753 l 313 753 l 313 47 m 17 17 l 267 17 q 288 26 279 17 q 296 47 296 35 l 296 736 l 236 736 l 236 76 l 186 76 l 186 736 l 126 736 l 126 76 l 76 76 l 76 736 l 17 736 l 17 17 z "},"ẁ":{"ha":329,"x_min":0,"x_max":313,"o":"m 313 47 q 299 14 313 28 q 267 0 286 0 l 0 0 l 0 753 l 93 753 l 93 93 l 110 93 l 110 753 l 203 753 l 203 93 l 219 93 l 219 753 l 313 753 l 313 47 m 17 17 l 267 17 q 288 26 279 17 q 296 47 296 35 l 296 736 l 236 736 l 236 76 l 186 76 l 186 736 l 126 736 l 126 76 l 76 76 l 76 736 l 17 736 l 17 17 m 149 972 l 149 863 l 258 863 l 258 769 l 103 769 q 69 783 83 769 q 56 815 56 796 l 56 972 l 149 972 m 132 846 l 132 956 l 72 956 l 72 815 q 81 794 72 803 q 103 786 90 786 l 242 786 l 242 846 l 132 846 z "},"Ẃ":{"ha":329,"x_min":0,"x_max":313,"o":"m 258 972 l 258 815 q 244 783 258 796 q 211 769 231 769 l 56 769 l 56 863 l 165 863 l 165 972 l 258 972 m 72 846 l 72 786 l 211 786 q 233 794 224 786 q 242 815 242 803 l 242 956 l 182 956 l 182 846 l 72 846 m 313 47 q 299 14 313 28 q 267 0 286 0 l 0 0 l 0 753 l 93 753 l 93 93 l 110 93 l 110 753 l 203 753 l 203 93 l 219 93 l 219 753 l 313 753 l 313 47 m 17 17 l 267 17 q 288 26 279 17 q 296 47 296 35 l 296 736 l 236 736 l 236 76 l 186 76 l 186 736 l 126 736 l 126 76 l 76 76 l 76 736 l 17 736 l 17 17 z "},"ẃ":{"ha":329,"x_min":0,"x_max":313,"o":"m 313 47 q 299 14 313 28 q 267 0 286 0 l 0 0 l 0 753 l 93 753 l 93 93 l 110 93 l 110 753 l 203 753 l 203 93 l 219 93 l 219 753 l 313 753 l 313 47 m 17 17 l 267 17 q 288 26 279 17 q 296 47 296 35 l 296 736 l 236 736 l 236 76 l 186 76 l 186 736 l 126 736 l 126 76 l 76 76 l 76 736 l 17 736 l 17 17 m 258 972 l 258 815 q 244 783 258 796 q 211 769 231 769 l 56 769 l 56 863 l 165 863 l 165 972 l 258 972 m 72 846 l 72 786 l 211 786 q 233 794 224 786 q 242 815 242 803 l 242 956 l 182 956 l 182 846 l 72 846 z "},"Ẅ":{"ha":329,"x_min":0,"x_max":313,"o":"m 182 956 l 182 786 l 242 786 l 242 956 l 182 956 m 72 956 l 72 786 l 132 786 l 132 956 l 72 956 m 258 769 l 165 769 l 165 972 l 258 972 l 258 769 m 149 769 l 56 769 l 56 972 l 149 972 l 149 769 m 313 47 q 299 14 313 28 q 267 0 286 0 l 0 0 l 0 753 l 93 753 l 93 93 l 110 93 l 110 753 l 203 753 l 203 93 l 219 93 l 219 753 l 313 753 l 313 47 m 17 17 l 267 17 q 288 26 279 17 q 296 47 296 35 l 296 736 l 236 736 l 236 76 l 186 76 l 186 736 l 126 736 l 126 76 l 76 76 l 76 736 l 17 736 l 17 17 z "},"ẅ":{"ha":329,"x_min":0,"x_max":313,"o":"m 313 47 q 299 14 313 28 q 267 0 286 0 l 0 0 l 0 753 l 93 753 l 93 93 l 110 93 l 110 753 l 203 753 l 203 93 l 219 93 l 219 753 l 313 753 l 313 47 m 17 17 l 267 17 q 288 26 279 17 q 296 47 296 35 l 296 736 l 236 736 l 236 76 l 186 76 l 186 736 l 126 736 l 126 76 l 76 76 l 76 736 l 17 736 l 17 17 m 182 956 l 182 786 l 242 786 l 242 956 l 182 956 m 72 956 l 72 786 l 132 786 l 132 956 l 72 956 m 258 769 l 165 769 l 165 972 l 258 972 l 258 769 m 149 769 l 56 769 l 56 972 l 149 972 l 149 769 z "},"ỳ":{"ha":219,"x_min":0,"x_max":203,"o":"m 93 93 l 110 93 l 110 753 l 203 753 l 203 -174 q 190 -206 203 -193 q 157 -219 176 -219 l 46 -219 q 13 -206 26 -219 q 0 -174 0 -193 l 0 -17 l 93 -17 l 93 -126 l 110 -126 l 110 0 l 46 0 q 13 14 26 0 q 0 47 0 28 l 0 753 l 93 753 l 93 93 m 76 76 l 76 736 l 17 736 l 17 47 q 26 26 17 35 q 46 17 35 17 l 126 17 l 126 -143 l 76 -143 l 76 -33 l 17 -33 l 17 -174 q 26 -194 17 -186 q 46 -203 35 -203 l 157 -203 q 177 -194 168 -203 q 186 -174 186 -186 l 186 736 l 126 736 l 126 76 l 76 76 m 93 972 l 93 863 l 203 863 l 203 769 l 47 769 q 14 783 28 769 q 0 815 0 796 l 0 972 l 93 972 m 76 846 l 76 956 l 17 956 l 17 815 q 26 794 17 803 q 47 786 35 786 l 186 786 l 186 846 l 76 846 z "},"Ỳ":{"ha":219,"x_min":0,"x_max":203,"o":"m 47 329 q 14 342 28 329 q 0 375 0 356 l 0 753 l 93 753 l 93 422 l 110 422 l 110 753 l 203 753 l 203 375 q 190 342 203 356 q 157 329 176 329 l 147 329 l 147 0 l 56 0 l 56 329 l 47 329 m 17 375 q 26 355 17 364 q 47 346 35 346 l 72 346 l 72 17 l 131 17 l 131 346 l 157 346 q 178 355 169 346 q 186 375 186 364 l 186 736 l 126 736 l 126 406 l 76 406 l 76 736 l 17 736 l 17 375 m 93 972 l 93 863 l 203 863 l 203 769 l 47 769 q 14 783 28 769 q 0 815 0 796 l 0 972 l 93 972 m 76 846 l 76 956 l 17 956 l 17 815 q 26 794 17 803 q 47 786 35 786 l 186 786 l 186 846 l 76 846 z "},"‹":{"ha":165,"x_min":0,"x_max":149,"o":"m 93 442 l 93 314 l 149 314 l 149 221 l 46 221 q 13 235 26 221 q 0 268 0 249 l 0 488 q 13 520 0 507 q 46 533 26 533 l 149 533 l 149 442 l 93 442 m 76 297 l 76 458 l 132 458 l 132 517 l 46 517 q 26 508 35 517 q 17 488 17 500 l 17 268 q 26 247 17 256 q 46 238 35 238 l 132 238 l 132 297 l 76 297 z "},"›":{"ha":165,"x_min":0,"x_max":149,"o":"m 56 442 l 56 314 l 0 314 l 0 221 l 103 221 q 135 235 122 221 q 149 268 149 249 l 149 488 q 135 520 149 507 q 103 533 122 533 l 0 533 l 0 442 l 56 442 m 72 297 l 72 458 l 17 458 l 17 517 l 103 517 q 123 508 114 517 q 132 488 132 500 l 132 268 q 123 247 132 256 q 103 238 114 238 l 17 238 l 17 297 l 72 297 z "},"№":{"ha":549,"x_min":0,"x_max":532,"o":"m 376 956 q 355 947 364 956 q 346 925 346 938 l 346 596 q 355 575 346 583 q 376 567 364 567 l 486 567 q 507 575 499 567 q 515 596 515 583 l 515 925 q 507 947 515 938 q 486 956 499 956 l 376 956 m 406 894 l 456 894 l 456 625 l 406 625 l 406 894 m 486 972 q 519 958 506 972 q 532 925 532 944 l 532 596 q 519 563 532 576 q 486 550 506 550 l 376 550 q 343 563 357 550 q 329 596 329 576 l 329 925 q 343 958 329 944 q 376 972 357 972 l 486 972 m 439 642 l 439 878 l 422 878 l 422 642 l 439 642 m 346 517 l 346 457 l 515 457 l 515 517 l 346 517 m 532 440 l 329 440 l 329 533 l 532 533 l 532 440 m 236 956 l 236 93 l 236 76 l 186 76 l 186 925 q 178 947 186 938 q 157 956 169 956 l 17 956 l 17 17 l 78 17 l 78 896 l 128 896 l 128 47 q 136 26 128 35 q 157 17 144 17 l 296 17 l 296 956 l 236 956 m 313 0 l 157 0 q 124 14 138 0 q 111 47 111 28 l 111 879 l 94 879 l 94 0 l 0 0 l 0 972 l 157 972 q 190 958 176 972 q 203 925 203 944 l 203 93 l 219 93 l 219 972 l 313 972 l 313 0 z "},"B":{"ha":329,"x_min":0,"x_max":313,"o":"m 219 896 l 236 896 l 236 879 l 236 588 l 236 571 l 219 571 l 203 571 l 186 571 l 186 588 l 186 879 l 186 896 l 203 896 l 219 896 m 219 879 l 203 879 l 203 588 l 219 588 l 219 879 m 267 972 q 299 958 286 972 q 313 925 313 944 l 313 542 q 299 508 313 522 q 267 494 286 494 l 203 494 l 203 478 l 267 478 q 299 464 286 478 q 313 431 313 450 l 313 46 q 299 13 313 26 q 267 0 286 0 l 203 0 l 110 0 l 93 0 l 0 0 l 0 93 l 0 478 l 93 478 l 93 93 l 110 93 l 110 385 l 110 478 l 110 494 l 110 588 l 110 879 l 93 879 l 93 494 l 0 494 l 0 879 l 0 972 l 93 972 l 110 972 l 203 972 l 267 972 m 296 925 q 288 947 296 938 q 267 956 279 956 l 203 956 l 110 956 l 93 956 l 17 956 l 17 879 l 17 511 l 76 511 l 76 879 l 76 896 l 93 896 l 110 896 l 126 896 l 126 879 l 126 588 l 126 494 l 126 478 l 126 385 l 126 93 l 126 76 l 110 76 l 93 76 l 76 76 l 76 93 l 76 461 l 17 461 l 17 93 l 17 17 l 93 17 l 110 17 l 203 17 l 267 17 q 288 26 279 17 q 296 46 296 35 l 296 431 q 288 452 296 443 q 267 461 279 461 l 203 461 l 186 461 l 186 478 l 186 494 l 186 511 l 203 511 l 267 511 q 288 520 279 511 q 296 542 296 529 l 296 925 m 186 401 l 203 401 l 219 401 l 236 401 l 236 385 l 236 93 l 236 76 l 219 76 l 203 76 l 186 76 l 186 93 l 186 385 l 186 401 m 203 93 l 219 93 l 219 385 l 203 385 l 203 93 z "},"\u0001":{"ha":0,"x_min":0,"x_max":0,"o":""},"\r":{"ha":694,"x_min":0,"x_max":0,"o":""},"C":{"ha":219,"x_min":0,"x_max":203,"o":"m 47 956 q 26 947 35 956 q 17 925 17 938 l 17 47 q 26 26 17 35 q 47 17 35 17 l 157 17 q 178 26 169 17 q 186 47 186 35 l 186 461 l 126 461 l 126 76 l 76 76 l 76 896 l 126 896 l 126 511 l 186 511 l 186 925 q 178 947 186 938 q 157 956 169 956 l 47 956 m 157 972 q 190 958 176 972 q 203 925 203 944 l 203 494 l 110 494 l 110 879 l 93 879 l 93 93 l 110 93 l 110 478 l 203 478 l 203 47 q 190 14 203 28 q 157 0 176 0 l 47 0 q 14 14 28 0 q 0 47 0 28 l 0 925 q 14 958 0 944 q 47 972 28 972 l 157 972 z "}," ":{"ha":110,"x_min":0,"x_max":0,"o":""},"Ѐ":{"ha":219,"x_min":0,"x_max":203,"o":"m 17 736 l 17 17 l 186 17 l 186 296 l 126 296 l 126 76 l 76 76 l 76 346 l 186 346 l 186 407 l 76 407 l 76 676 l 126 676 l 126 457 l 186 457 l 186 736 l 17 736 m 203 440 l 110 440 l 110 660 l 93 660 l 93 424 l 203 424 l 203 329 l 93 329 l 93 93 l 110 93 l 110 313 l 203 313 l 203 0 l 0 0 l 0 753 l 203 753 l 203 440 m 93 972 l 93 863 l 203 863 l 203 769 l 47 769 q 14 783 28 769 q 0 815 0 796 l 0 972 l 93 972 m 76 846 l 76 956 l 17 956 l 17 815 q 26 794 17 803 q 47 786 35 786 l 186 786 l 186 846 l 76 846 z "}}}
